<svg width="456" height="495" viewBox="0 0 456 495" fill="none" xmlns="http://www.w3.org/2000/svg">
<g clip-path="url(#clip0_6_130)">
<path d="M428.556 376.177H86.6062C83.5594 376.173 80.6383 374.949 78.4839 372.773C76.3295 370.598 75.1175 367.648 75.114 364.571V83.3979C75.1175 80.3211 76.3295 77.3714 78.4839 75.1957C80.6383 73.0201 83.5594 71.7963 86.6062 71.7927H428.556C431.603 71.7963 434.524 73.0201 436.679 75.1957C438.833 77.3714 440.045 80.3211 440.048 83.3979V364.571C440.045 367.648 438.833 370.598 436.679 372.773C434.524 374.949 431.603 376.173 428.556 376.177Z" fill="#E6E6E6"/>
<path d="M395.332 368.348H94.3597C91.3129 368.345 88.3919 367.121 86.2374 364.945C84.083 362.77 82.8711 359.82 82.8676 356.743V91.2319C82.8711 88.1551 84.083 85.2053 86.2374 83.0297C88.3919 80.8541 91.3129 79.6303 94.3597 79.6267H420.805C423.852 79.6303 426.773 80.8541 428.927 83.0297C431.081 85.2053 432.293 88.1551 432.297 91.2319V331.02C432.286 340.917 428.388 350.405 421.458 357.403C414.528 364.401 405.132 368.337 395.332 368.348Z" fill="white"/>
<path d="M312.625 139.663H175.188C174.798 139.664 174.412 139.587 174.052 139.437C173.692 139.287 173.364 139.067 173.089 138.789C172.813 138.511 172.594 138.18 172.445 137.817C172.296 137.453 172.219 137.064 172.219 136.67C172.219 136.277 172.296 135.887 172.445 135.524C172.594 135.16 172.813 134.83 173.089 134.552C173.364 134.274 173.692 134.054 174.052 133.904C174.412 133.754 174.798 133.677 175.188 133.677H312.625C313.41 133.679 314.163 133.995 314.718 134.556C315.272 135.117 315.584 135.877 315.584 136.67C315.584 137.463 315.272 138.224 314.718 138.785C314.163 139.346 313.41 139.662 312.625 139.663Z" fill="#1783C1"/>
<path d="M382.2 171.597H175.187C174.401 171.597 173.648 171.281 173.092 170.72C172.536 170.159 172.224 169.397 172.224 168.604C172.224 167.81 172.536 167.049 173.092 166.487C173.648 165.926 174.401 165.611 175.187 165.611H382.2C382.986 165.611 383.74 165.926 384.296 166.487C384.851 167.049 385.164 167.81 385.164 168.604C385.164 169.397 384.851 170.159 384.296 170.72C383.74 171.281 382.986 171.597 382.2 171.597Z" fill="#E6E6E6"/>
<path d="M382.198 203.53H175.188C174.798 203.53 174.412 203.454 174.052 203.303C173.692 203.153 173.364 202.933 173.089 202.655C172.813 202.377 172.594 202.047 172.445 201.683C172.296 201.32 172.219 200.93 172.219 200.537C172.219 200.143 172.296 199.754 172.445 199.39C172.594 199.027 172.813 198.697 173.089 198.419C173.364 198.141 173.692 197.92 174.052 197.77C174.412 197.62 174.798 197.543 175.188 197.544H382.198C382.984 197.545 383.736 197.861 384.291 198.422C384.846 198.983 385.157 199.744 385.157 200.537C385.157 201.33 384.846 202.09 384.291 202.651C383.736 203.213 382.984 203.528 382.198 203.53Z" fill="#E6E6E6"/>
<path d="M382.2 235.463H175.187C174.401 235.463 173.648 235.148 173.092 234.586C172.536 234.025 172.224 233.264 172.224 232.47C172.224 231.676 172.536 230.915 173.092 230.354C173.648 229.792 174.401 229.477 175.187 229.477H382.2C382.986 229.477 383.74 229.792 384.296 230.354C384.851 230.915 385.164 231.676 385.164 232.47C385.164 233.264 384.851 234.025 384.296 234.586C383.74 235.148 382.986 235.463 382.2 235.463Z" fill="#E6E6E6"/>
<path d="M382.2 267.396H175.187C174.401 267.396 173.648 267.081 173.092 266.52C172.536 265.958 172.224 265.197 172.224 264.403C172.224 263.61 172.536 262.848 173.092 262.287C173.648 261.726 174.401 261.41 175.187 261.41H382.2C382.986 261.41 383.74 261.726 384.296 262.287C384.851 262.848 385.164 263.61 385.164 264.403C385.164 265.197 384.851 265.958 384.296 266.52C383.74 267.081 382.986 267.396 382.2 267.396Z" fill="#E6E6E6"/>
<path d="M372.89 318.284C369.921 318.284 367.02 317.395 364.552 315.73C362.084 314.064 360.16 311.697 359.024 308.928C357.888 306.159 357.591 303.112 358.17 300.172C358.749 297.232 360.179 294.532 362.278 292.412C364.377 290.293 367.051 288.849 369.962 288.265C372.873 287.68 375.891 287.98 378.633 289.127C381.375 290.274 383.719 292.217 385.368 294.709C387.017 297.201 387.897 300.131 387.897 303.129C387.897 307.148 386.316 311.003 383.502 313.845C380.687 316.687 376.87 318.284 372.89 318.284Z" fill="#1783C1"/>
<path d="M381.333 302.409L377.078 296.138C376.889 295.859 376.598 295.667 376.269 295.605C375.94 295.543 375.6 295.616 375.324 295.807C375.048 295.998 374.858 296.292 374.797 296.624C374.735 296.956 374.807 297.299 374.996 297.578L377.748 301.634H366.968C366.575 301.634 366.198 301.791 365.921 302.072C365.643 302.352 365.487 302.732 365.487 303.129C365.487 303.525 365.643 303.905 365.921 304.186C366.198 304.466 366.575 304.624 366.968 304.624H377.883L374.996 308.879C374.807 309.158 374.735 309.501 374.797 309.833C374.858 310.165 375.048 310.459 375.324 310.65C375.6 310.841 375.94 310.914 376.269 310.852C376.598 310.789 376.889 310.598 377.078 310.319L381.333 304.048C381.472 303.798 381.544 303.515 381.544 303.228C381.544 302.942 381.472 302.659 381.333 302.409L381.333 302.409Z" fill="white"/>
<path d="M454.042 30.3279H61.1226C60.7236 30.3193 60.3438 30.1532 60.0647 29.8652C59.7855 29.5772 59.6292 29.1903 59.6292 28.7873C59.6292 28.3843 59.7855 27.9973 60.0647 27.7093C60.3438 27.4214 60.7236 27.2553 61.1226 27.2467H454.042C454.441 27.2553 454.821 27.4214 455.1 27.7093C455.379 27.9973 455.536 28.3843 455.536 28.7873C455.536 29.1903 455.379 29.5772 455.1 29.8652C454.821 30.1532 454.441 30.3193 454.042 30.3279Z" fill="#CACACA"/>
<path d="M87.2367 19.3808C92.1744 19.3808 96.1773 15.2485 96.1773 10.151C96.1773 5.05357 92.1744 0.921265 87.2367 0.921265C82.2989 0.921265 78.296 5.05357 78.296 10.151C78.296 15.2485 82.2989 19.3808 87.2367 19.3808Z" fill="#3F3D56"/>
<path d="M118.123 19.3808C123.06 19.3808 127.063 15.2485 127.063 10.151C127.063 5.05357 123.06 0.921265 118.123 0.921265C113.185 0.921265 109.182 5.05357 109.182 10.151C109.182 15.2485 113.185 19.3808 118.123 19.3808Z" fill="#3F3D56"/>
<path d="M149.009 19.3808C153.946 19.3808 157.949 15.2485 157.949 10.151C157.949 5.05357 153.946 0.921265 149.009 0.921265C144.071 0.921265 140.068 5.05357 140.068 10.151C140.068 15.2485 144.071 19.3808 149.009 19.3808Z" fill="#3F3D56"/>
<path d="M435.447 3.20898H413.506C413.071 3.21767 412.657 3.39824 412.353 3.7119C412.048 4.02556 411.878 4.44729 411.878 4.88655C411.878 5.3258 412.048 5.74755 412.353 6.06121C412.657 6.37487 413.071 6.55542 413.506 6.56411H435.447C435.882 6.55542 436.296 6.37487 436.6 6.06121C436.905 5.74755 437.075 5.3258 437.075 4.88655C437.075 4.44729 436.905 4.02556 436.6 3.7119C436.296 3.39824 435.882 3.21767 435.447 3.20898Z" fill="#3F3D56"/>
<path d="M435.447 9.50598H413.506C413.071 9.51467 412.657 9.69524 412.353 10.0089C412.048 10.3226 411.878 10.7443 411.878 11.1835C411.878 11.6228 412.048 12.0445 412.353 12.3582C412.657 12.6719 413.071 12.8524 413.506 12.8611H435.447C435.882 12.8524 436.296 12.6719 436.6 12.3582C436.905 12.0445 437.075 11.6228 437.075 11.1835C437.075 10.7443 436.905 10.3226 436.6 10.0089C436.296 9.69524 435.882 9.51467 435.447 9.50598Z" fill="#3F3D56"/>
<path d="M435.447 15.7948H413.506C413.071 15.8035 412.657 15.984 412.353 16.2977C412.048 16.6114 411.878 17.0331 411.878 17.4724C411.878 17.9116 412.048 18.3334 412.353 18.647C412.657 18.9607 413.071 19.1412 413.506 19.1499H435.447C435.882 19.1412 436.296 18.9607 436.6 18.647C436.905 18.3334 437.075 17.9116 437.075 17.4724C437.075 17.0331 436.905 16.6114 436.6 16.2977C436.296 15.984 435.882 15.8035 435.447 15.7948Z" fill="#3F3D56"/>
<path d="M110.294 334.031C110.896 333.523 111.38 332.888 111.712 332.171C112.044 331.453 112.216 330.671 112.216 329.879C112.217 329.088 112.045 328.305 111.714 327.588C111.382 326.87 110.899 326.235 110.298 325.726L107.044 297.334L96.7129 299.749L102.454 326.663C101.675 327.739 101.314 329.066 101.439 330.393C101.564 331.721 102.167 332.955 103.134 333.863C104.1 334.772 105.363 335.29 106.682 335.321C108.002 335.352 109.287 334.893 110.294 334.031Z" fill="#FFB6B6"/>
<path d="M109.227 301.963L97.266 309.498C97.266 309.498 96.5379 313.914 95.7155 302.816C95.6296 301.658 96.4301 299.639 96.3421 298.45C96.2428 297.109 92.4378 296.498 92.3376 295.141C92.2662 294.175 93.3662 293.316 93.2952 292.352C93.1876 290.893 93.0807 289.441 92.9757 288.013C92.8879 286.818 91.5775 286.061 91.4931 284.908C91.4079 283.745 92.5487 282.187 92.4683 281.086C91.8654 272.824 93.9502 252.038 93.9502 251.615C93.7891 250.554 93.3503 249.555 92.6792 248.723L93.3176 246.795L92.8955 243.177C92.3407 238.423 93.3304 233.616 95.7154 229.479L98.7531 227.47L112.769 251.277C106.871 271.878 103.021 279.969 109.227 301.963Z" fill="#1783C1"/>
<path d="M99.8937 479.469H107.129L110.573 451.286H99.8937V479.469Z" fill="#FFB6B6"/>
<path d="M97.533 474.464L109.092 473.767V478.769L120.082 486.433C120.625 486.812 121.034 487.356 121.249 487.985C121.464 488.615 121.474 489.298 121.278 489.934C121.081 490.57 120.689 491.126 120.158 491.52C119.626 491.915 118.984 492.128 118.324 492.128H104.562L102.19 487.181L101.264 492.128H96.0754L97.533 474.464Z" fill="#2F2E41"/>
<path d="M140.536 479.469H147.772L151.215 451.286H140.536V479.469Z" fill="#FFB6B6"/>
<path d="M138.175 474.464L149.734 473.767V478.769L160.724 486.433C161.267 486.812 161.676 487.356 161.891 487.985C162.106 488.615 162.116 489.298 161.92 489.934C161.723 490.57 161.331 491.126 160.8 491.52C160.268 491.915 159.626 492.128 158.966 492.128H145.204L142.832 487.181L141.906 492.128H136.717L138.175 474.464Z" fill="#2F2E41"/>
<path d="M96.8226 455.165H96.8507L98.2422 388.049C97.3417 386.295 96.8847 384.344 96.9119 382.368C96.939 380.393 97.4496 378.454 98.3979 376.726L98.5971 376.362L98.0806 373.944C97.4171 370.838 97.7216 367.6 98.9522 364.675L100.25 321.93C95.6125 291.578 117.715 271.784 117.715 271.784H150.824L157.932 296.446C162.631 342.678 161.779 409.022 154.322 452.67L154.525 452.773C154.911 452.991 155.198 453.349 155.329 453.775C155.46 454.201 155.423 454.661 155.226 455.061C154.882 456.069 154.009 456.679 153.277 456.424L135.792 455.81C135.406 455.593 135.118 455.234 134.987 454.808C134.857 454.382 134.894 453.922 135.09 453.523C135.435 452.515 136.307 451.904 137.039 452.159L138.228 452.767L137.002 450.245C136.263 448.726 135.944 447.035 136.077 445.349C136.211 443.662 136.792 442.044 137.76 440.663L137.545 435.112C136.63 434.03 136.001 432.733 135.714 431.34C135.428 429.948 135.494 428.504 135.907 427.144L137.086 423.257L135.693 387.256L135.974 379.179L135.395 370.017L132.714 328.802L122.569 379.484L112.207 455.675C112.456 455.902 112.641 456.192 112.744 456.515C112.846 456.837 112.862 457.182 112.79 457.513C112.683 457.951 112.431 458.34 112.077 458.616C111.722 458.891 111.285 459.036 110.837 459.027H96.7721C96.4771 459.027 96.1862 458.958 95.922 458.826C95.6578 458.693 95.4274 458.501 95.2489 458.264C95.0703 458.027 94.9483 457.751 94.8925 457.459C94.8366 457.166 94.8483 456.865 94.9268 456.578C95.0455 456.165 95.2954 455.803 95.638 455.548C95.9806 455.292 96.3969 455.158 96.8226 455.165Z" fill="#2F2E41"/>
<path d="M177.282 322.999C177.777 322.384 178.133 321.668 178.324 320.9C178.515 320.132 178.537 319.331 178.388 318.554C178.239 317.776 177.924 317.041 177.463 316.4C177.003 315.759 176.409 315.228 175.723 314.844L167.186 287.593L157.498 291.947L168.199 317.269C167.636 318.475 167.531 319.847 167.904 321.126C168.276 322.405 169.101 323.502 170.22 324.208C171.34 324.914 172.677 325.181 173.979 324.958C175.28 324.735 176.456 324.038 177.282 322.999H177.282Z" fill="#FFB6B6"/>
<path d="M142.154 236.366C142.154 236.366 151.89 271.16 151.449 274.675C150.54 281.923 105.799 304.203 102.471 294.289L102.888 291.029C101.207 287.634 111.463 274.161 111.961 272.398C112.593 270.145 109.729 262.745 109.729 262.745C109.729 262.745 111.709 255.991 111.393 251.809C111.071 247.628 110.116 248.272 106.613 245.694C103.111 243.121 97.3767 231.22 97.3767 231.22C97.3767 231.22 99.9246 219.639 99.9246 217.386C99.9246 215.132 110.391 211.294 111.662 210.01C112.215 209.265 112.681 208.457 113.05 207.603C113.308 207.083 113.144 205.876 113.419 205.279C113.595 204.888 114.21 205.131 114.392 204.729C114.567 204.338 114.415 203.889 114.591 203.504C114.819 202.996 115.37 202.552 115.586 202.073C116.582 199.873 117.431 198.08 117.695 198.08C118.328 198.08 138.722 200.979 138.722 200.979C139.832 202.712 141.111 204.329 142.541 205.805C144.772 208.053 155.215 213.524 155.215 213.524L142.154 236.366Z" fill="#1783C1"/>
<path d="M169.693 294.902C168.099 296.511 160.216 303.897 159.894 301.963C159.578 300.035 159.406 299.805 158.129 299.166C156.852 298.521 156.852 298.202 156.536 295.948C156.219 293.695 153.349 291.441 153.672 290.477C153.988 289.513 153.693 290.74 153.693 289.77C153.693 288.805 152.738 285.268 151.461 284.624C150.19 283.979 148.275 283.34 149.235 281.731C150.19 280.123 140.245 231.859 140.245 231.859L149.165 214.168L155.215 213.524C155.215 213.524 157.054 214.586 157.63 224.163C157.659 224.648 158.183 225.538 158.205 226.068C158.224 226.508 157.742 226.581 157.755 227.053C157.758 227.154 157.761 227.256 157.763 227.358C157.775 227.828 159.031 228.173 159.05 228.626C159.083 229.436 159.576 234.599 159.629 235.358C159.689 236.214 159.76 237.038 159.842 237.831C160.722 246.461 161.037 247.19 161.583 249.945C162.427 254.209 165.928 279.111 165.928 279.111C165.928 279.111 168.476 279.75 168.476 282.004C168.476 284.257 171.286 288.786 170.015 291.359C168.738 293.938 171.286 293.293 169.693 294.902Z" fill="#1783C1"/>
<path d="M126.332 197.42C134.677 197.42 141.442 190.588 141.442 182.161C141.442 173.734 134.677 166.902 126.332 166.902C117.987 166.902 111.221 173.734 111.221 182.161C111.221 190.588 117.987 197.42 126.332 197.42Z" fill="#FFB8B8"/>
<path d="M93.7698 214.229C90.5722 213.085 87.3746 211.938 84.1771 210.79C84.7282 209.856 85.4301 209.022 86.2537 208.322C89.2981 205.754 93.5003 205.29 97.3655 204.424C101.237 203.558 105.439 201.783 106.854 198.047C108.324 194.162 106.193 189.968 104.955 186.009C103.128 180.456 103.35 174.423 105.58 169.023C106.719 166.356 108.452 163.989 110.644 162.108C112.835 160.226 115.427 158.879 118.217 158.173C123.816 156.917 130.144 158.965 133.586 163.592C135.804 162.92 138.189 163.091 140.291 164.074C142.392 165.056 144.065 166.781 144.992 168.924C145.429 169.928 145.623 171.022 145.559 172.117C145.495 173.212 145.175 174.276 144.625 175.221C143.43 177.046 140.876 177.98 138.952 176.965L140.067 174.108C136.619 175.289 134.377 181.586 134.842 185.236C135.302 188.879 137.409 192.071 139.547 195.047C141.685 198.022 143.963 201.028 144.882 204.585C146.205 209.701 144.416 215.293 141.109 219.394C137.801 223.495 133.139 226.279 128.312 228.327C124.699 229.861 120.944 231.029 117.102 231.815C117.788 230.467 118.468 229.118 119.154 227.77L111.013 232.743C109.439 232.898 107.853 232.991 106.266 233.022C101.647 233.102 96.9368 232.613 92.7101 230.752C88.4773 228.883 84.759 225.5 83.2276 221.102C82.7366 219.679 82.5042 218.179 82.5416 216.673C86.2843 215.856 90.027 215.041 93.7698 214.229Z" fill="#2F2E41"/>
<path d="M239.791 493.29H211.766L211.646 493.07C211.287 492.413 210.941 491.718 210.618 491.004C207.731 484.763 206.511 477.625 205.435 471.328L204.624 466.581C204.526 466.006 204.6 465.415 204.836 464.882C205.073 464.35 205.461 463.901 205.952 463.594C206.443 463.286 207.013 463.133 207.591 463.154C208.168 463.175 208.726 463.37 209.193 463.714C213.452 466.843 217.712 469.97 221.975 473.093C223.589 474.279 225.432 475.651 227.197 477.135C227.367 476.299 227.545 475.462 227.723 474.635C227.846 474.065 228.135 473.545 228.552 473.141C228.97 472.737 229.497 472.468 230.067 472.369C230.636 472.269 231.222 472.344 231.75 472.583C232.277 472.821 232.722 473.214 233.027 473.709L236.306 479.029C238.698 482.914 240.809 486.742 240.378 490.871C240.381 490.921 240.377 490.972 240.367 491.021C240.281 491.699 240.122 492.366 239.892 493.009L239.791 493.29Z" fill="#F0F0F0"/>
<path d="M267.919 493.902L1.61403 494.164C1.34837 494.163 1.09413 494.055 0.906826 493.865C0.71952 493.675 0.61438 493.417 0.61438 493.149C0.61438 492.881 0.71952 492.623 0.906826 492.433C1.09413 492.243 1.34837 492.135 1.61403 492.134L267.919 491.872C268.185 491.873 268.439 491.981 268.627 492.171C268.814 492.361 268.919 492.619 268.919 492.887C268.919 493.155 268.814 493.413 268.627 493.603C268.439 493.793 268.185 493.901 267.919 493.902Z" fill="#CACACA"/>
</g>
<defs>
<clipPath id="clip0_6_130">
<rect width="454.92" height="493.243" fill="white" transform="translate(0.613647 0.921265)"/>
</clipPath>
</defs>
</svg>
