<svg width="620" height="492" viewBox="0 0 620 492" fill="none" xmlns="http://www.w3.org/2000/svg">
<g clip-path="url(#clip0_96_183)">
<path d="M573.645 447.182C553.331 463.337 528.582 479.703 504.25 487.419C497.236 489.71 489.997 491.172 482.671 491.778C475.822 492.353 468.928 491.795 462.246 490.123C444.685 485.562 428.397 477.573 412.637 468.241C407.487 465.187 402.398 461.993 397.338 458.729C389.078 453.398 380.901 447.881 372.701 442.496C371.473 441.68 370.253 440.88 369.025 440.087H369.017C367.038 438.789 365.054 437.51 363.065 436.248C362.715 436.023 362.365 435.805 362.008 435.58C358.25 433.202 354.428 430.878 350.541 428.609C350.065 428.337 349.589 428.058 349.113 427.786C341.593 423.43 333.864 419.479 325.956 415.951C320.762 413.666 315.502 411.607 310.189 409.851H310.181C308.15 409.182 306.111 408.553 304.065 407.978C297.929 406.22 291.676 404.942 285.358 404.155C276.652 403.054 267.847 403.127 259.159 404.372C258.571 404.458 257.99 404.543 257.402 404.644C233.889 408.576 212.429 421.833 188.811 424.957C188.045 425.058 187.286 425.151 186.52 425.221C186.192 425.252 185.865 425.291 185.537 425.315C178.674 425.928 171.767 425.751 164.941 424.786C145.869 422.16 127.297 414.008 110.577 403.735C71.4893 379.715 39.7906 342.796 20.5185 300.041C17.209 292.714 14.2707 285.21 11.7158 277.56C4.57237 256.348 0.638469 234.102 0.0557161 211.625C-1.75245 133.637 40.6835 55.3922 107.31 20.1204C173.944 -15.1514 261.599 -3.48739 315.338 50.6986C347.937 83.5692 366.8 128.112 391.333 167.906C415.866 207.693 450.734 245.7 495.708 251.497C518.619 254.45 542.593 248.738 564.552 256.167C576.71 260.286 587.083 268.165 595.439 278.205C601.057 285.018 605.759 292.6 609.414 300.74C612.092 306.626 614.266 312.747 615.91 319.033C616.215 320.191 616.497 321.349 616.773 322.507C627.711 369.162 610.232 418.072 573.645 447.182Z" fill="#F2F2F2"/>
<path d="M207.726 362.721H137.781C127.302 362.721 118.806 371.592 118.806 382.536V382.536C118.806 393.48 127.302 402.352 137.781 402.352H207.726C218.206 402.352 226.701 393.48 226.701 382.536C226.701 371.592 218.206 362.721 207.726 362.721Z" fill="#3F3D56"/>
<path d="M186.519 392.25V425.221C179.335 425.947 172.093 425.801 164.941 424.786V392.25H186.519Z" fill="#3F3D56"/>
<path d="M259.158 404.372C258.571 404.458 257.99 404.543 257.402 404.644C233.889 408.576 212.429 421.833 188.811 424.957C188.045 425.058 187.286 425.151 186.519 425.221C186.192 425.252 185.865 425.291 185.537 425.315C179.77 419.417 174.004 413.138 168.587 406.634C165.647 403.113 162.805 399.523 160.134 395.887C153.199 386.499 147.32 376.848 143.436 367.368C143.83 362.822 141.122 352.308 139.827 344.257L139.82 344.249C139.269 340.869 138.971 337.932 139.247 336.043C140.824 325.149 149.344 326.4 151.963 315.723C154.326 313.675 156.842 311.827 159.486 310.198C159.925 309.926 160.372 309.654 160.833 309.382L189.258 288.867L200.122 299.995L216.655 316.935L234.573 335.282L219.364 351.329C219.364 351.329 232.073 366.629 246.933 387.028C250.921 392.506 255.066 398.358 259.158 404.372Z" fill="#2F2E41"/>
<path d="M504.25 392.25V487.419C497.235 489.71 489.997 491.172 482.671 491.778V392.25H504.25Z" fill="#3F3D56"/>
<path d="M532.154 384.479H462.208C451.729 384.479 443.234 393.351 443.234 404.295V404.295C443.234 415.238 451.729 424.11 462.208 424.11H532.154C542.633 424.11 551.128 415.238 551.128 404.295C551.128 393.351 542.633 384.479 532.154 384.479Z" fill="#3F3D56"/>
<path d="M362.008 435.58C358.25 433.202 354.428 430.878 350.541 428.609C350.065 428.337 349.589 428.058 349.113 427.786L351.672 426.643L358.577 423.543L358.644 423.512L358.719 423.776L362.008 435.58Z" fill="#FFB6B6"/>
<path d="M372.701 442.496C371.473 441.68 370.253 440.88 369.025 440.087H369.017C367.038 438.789 365.054 437.51 363.065 436.248C362.715 436.023 362.365 435.805 362.008 435.58C358.25 433.202 354.428 430.879 350.541 428.609C350.065 428.337 349.589 428.058 349.113 427.786C341.593 423.43 333.864 419.479 325.956 415.951C320.762 413.666 315.502 411.607 310.189 409.851H310.181L306.007 402.554L287.218 369.691L283.089 362.472C283.089 362.472 269.003 366.824 249.068 370.997C241.814 372.52 233.792 374.012 225.376 375.27C216.38 376.607 206.945 377.672 197.569 378.185C193.097 378.433 188.64 378.558 184.25 378.519C172.902 378.441 162.001 377.33 152.455 374.688C149.27 371.564 139.671 367.313 132.796 363.42H132.788C129.901 361.788 127.505 360.226 126.247 358.835C119 350.831 125.191 344.591 118.747 335.857C118.66 332.653 118.817 329.446 119.216 326.268C119.283 325.739 119.35 325.203 119.432 324.659L121.463 288.634L136.553 286.551L159.516 283.381L184.391 279.946L187.13 302.341C187.13 302.341 206.499 301.316 231.039 301.657C270.454 302.217 323.196 306.32 330.339 323.929C331.009 325.584 331.678 327.255 332.348 328.925C333.94 332.92 335.518 336.934 337.081 340.97C342.743 355.579 348.145 370.328 353.079 384.269C356.144 392.941 359.032 401.303 361.688 409.128C363.824 415.422 365.803 421.375 367.611 426.853C369.263 431.858 370.758 436.466 372.09 440.6C372.299 441.245 372.5 441.882 372.701 442.496Z" fill="#2F2E41"/>
<path d="M233.885 224.223L186.221 181.949L217.231 149.174L238.866 186.181L319.061 202.785C321.472 200.89 324.359 199.768 327.37 199.557C330.382 199.346 333.387 200.054 336.019 201.596C338.651 203.137 340.797 205.445 342.195 208.238C343.593 211.032 344.183 214.189 343.892 217.326C343.601 220.463 342.442 223.444 340.558 225.906C338.673 228.367 336.143 230.202 333.276 231.188C330.409 232.174 327.33 232.267 324.414 231.457C321.497 230.646 318.869 228.967 316.851 226.624L233.885 224.223Z" fill="#A0616A"/>
<path d="M144.097 126.39C138.589 145.104 191.05 189.738 191.05 189.738C191.633 185.245 221.376 223.987 223.4 220.478C229.151 210.506 235.479 185.858 242.119 182.707C245.916 180.906 224.133 155.864 224.133 155.864C224.133 155.864 213.022 140.512 198.351 121.055C194.302 115.474 188.965 111.054 182.84 108.206C176.714 105.358 169.998 104.175 163.316 104.767C163.316 104.767 149.606 107.676 144.097 126.39Z" fill="#3F3D56"/>
<path d="M167.292 84.9611C185.097 84.9611 199.53 69.8882 199.53 51.2948C199.53 32.7014 185.097 17.6284 167.292 17.6284C149.488 17.6284 135.055 32.7014 135.055 51.2948C135.055 69.8882 149.488 84.9611 167.292 84.9611Z" fill="#A0616A"/>
<path d="M183.411 107.212C190.356 111.524 194.511 119.446 196.896 127.508C201.311 142.434 203.969 157.866 204.81 173.463L207.329 220.157L238.526 319.583C211.489 343.475 109.858 325.013 109.858 325.013C109.858 325.013 106.738 323.927 109.858 320.669C112.977 317.411 116.014 320.297 112.895 317.039C109.775 313.781 111.926 317.411 112.966 314.153C114.005 310.894 112.966 313.067 111.926 311.98C110.886 310.894 119.976 301.12 119.976 301.12L111.657 244.049L101.258 128.932C113.737 112.642 138.834 103.039 138.834 103.039L145.318 90.8491L177.742 93.558L183.411 107.212Z" fill="#3F3D56"/>
<path d="M193.867 33.4083C196.372 35.3599 198.229 38.083 199.174 41.1943C199.538 36.1098 199.561 31.0051 199.243 25.9173C198.863 22.3421 196.453 21.5379 193.662 20.606C191.142 19.7641 188.292 18.8131 187.525 15.3424C177.391 5.04728 159.751 5.56642 147.678 9.15752C141.035 11.1336 137.213 13.6725 136.871 15.1599L136.8 15.466L136.53 15.6069C131.409 18.2807 130.412 26.7241 130.478 33.3362C130.603 45.7939 134.722 59.9427 137.042 61.0921C137.165 61.153 137.196 61.1291 137.249 61.0829C140.743 58.167 145.006 61.3044 146.879 63.01C147.984 55.2673 151.541 48.1346 156.983 42.7511C162.425 37.3676 169.437 34.0437 176.9 33.3105C179.338 33.0645 181.755 32.6411 184.136 32.0434C185.344 31.7171 186.585 31.547 187.832 31.5368C189.98 31.5027 192.086 32.1558 193.867 33.4083V33.4083Z" fill="#2F2E41"/>
<path d="M153.246 274.945L143.385 269.671C142.857 269.278 142.481 268.699 142.328 268.041C142.174 267.383 142.252 266.689 142.548 266.086C142.844 265.483 143.337 265.011 143.938 264.756C144.54 264.502 145.209 264.482 145.823 264.7L155.684 269.974C156.213 270.367 156.588 270.946 156.742 271.604C156.895 272.262 156.817 272.956 156.521 273.559C156.226 274.163 155.732 274.634 155.131 274.889C154.53 275.143 153.861 275.163 153.246 274.945L153.246 274.945Z" fill="#F8C300"/>
<path d="M120.057 260.814L103.835 197.745L147.185 189.175L144.854 232.465L201.813 293.714C204.828 293.585 207.814 294.375 210.407 295.988C213 297.601 215.087 299.967 216.415 302.798C217.742 305.628 218.252 308.801 217.883 311.929C217.514 315.057 216.281 318.005 214.335 320.414C212.389 322.823 209.813 324.589 206.923 325.496C204.033 326.402 200.952 326.412 198.057 325.522C195.162 324.632 192.577 322.882 190.618 320.484C188.659 318.087 187.41 315.146 187.024 312.02L120.057 260.814Z" fill="#A0616A"/>
<path d="M99.3992 127.03C84.6846 139.162 103.571 207.019 103.571 207.019C106.495 203.668 109.893 253.198 113.467 251.511C123.625 246.718 142.243 230.189 149.421 231.537C153.526 232.307 149.225 198.775 149.225 198.775C149.225 198.775 148.434 179.549 146.948 154.833C146.651 147.837 144.665 141.033 141.174 135.055C137.682 129.076 132.799 124.118 126.979 120.64C126.979 120.64 114.114 114.899 99.3992 127.03Z" fill="#3F3D56"/>
<path d="M609.413 300.74L20.5184 300.041C17.2089 292.714 14.2706 285.21 11.7157 277.56L595.439 278.205C601.057 285.018 605.759 292.6 609.413 300.74V300.74Z" fill="#3F3D56"/>
<path d="M421.848 463.788C418.805 465.327 415.734 466.811 412.636 468.241C407.487 465.187 402.398 461.993 397.338 458.729L416.104 450.119L421.848 463.788Z" fill="#FFB6B6"/>
<path d="M558.673 356.706C555.623 360.98 552.475 365.168 549.231 369.271C546.24 373.056 543.169 376.768 540.019 380.407C538.717 381.915 537.4 383.414 536.053 384.899C533.575 387.673 531.042 390.4 528.456 393.081C523.797 394.612 514.362 397.309 504.25 399.826C496.891 401.652 489.175 403.385 482.671 404.489C479.03 405.171 475.348 405.582 471.651 405.717C467.261 405.755 462.804 405.631 458.332 405.382C453.287 405.103 448.234 404.667 443.241 404.108C430.257 402.686 417.681 400.471 406.832 398.194C402.859 397.371 399.124 396.531 395.686 395.716C389.175 394.185 383.728 392.755 379.784 391.667C375.342 390.455 372.812 389.67 372.812 389.67L361.688 409.128L355.914 419.222L351.672 426.643L350.541 428.609C350.065 428.337 349.589 428.058 349.113 427.786C341.593 423.43 333.864 419.479 325.956 415.951C320.763 413.666 315.502 411.607 310.189 409.851H310.181C308.15 409.182 306.111 408.553 304.065 407.978C304.705 406.183 305.352 404.375 306.007 402.554C307.227 399.158 308.472 395.731 309.742 392.273C312.488 384.782 315.331 377.182 318.255 369.621C320.651 363.412 323.092 357.227 325.562 351.127C326.701 348.313 329.015 345.842 332.251 343.674C333.798 342.656 335.412 341.752 337.081 340.97C346.345 336.564 359.992 333.697 375.03 331.855C376.272 331.707 377.523 331.56 378.78 331.42C391.229 330.052 404.437 329.345 416.789 329.018C422.972 328.855 428.94 328.793 434.491 328.785C436.284 328.785 438.028 328.791 439.722 328.801H439.729C444.305 328.824 448.517 328.894 452.223 328.972C452.944 328.987 453.644 329.011 454.328 329.026H454.336C454.797 329.034 455.251 329.05 455.698 329.057C463.801 329.275 468.771 329.539 468.771 329.539L470.699 313.749L471.093 310.563L471.465 307.532V307.524L471.51 307.144L471.815 307.136L477.172 307.027L522.205 306.11L546.805 305.605L542.906 323.058L536.47 351.857C537.124 356.411 558.897 352.844 558.673 356.706Z" fill="#2F2E41"/>
<path d="M427.399 460.913C425.561 461.892 423.709 462.855 421.848 463.788C418.805 465.326 415.734 466.811 412.636 468.24C407.487 465.187 402.398 461.993 397.338 458.729C389.078 453.398 380.901 447.881 372.701 442.496C371.473 441.68 370.252 440.879 369.025 440.087H369.017C365.639 434.849 362.194 429.394 358.719 423.776C358.667 423.698 358.622 423.62 358.577 423.543C357.685 422.113 356.797 420.673 355.914 419.222C350.355 410.13 344.767 400.65 339.343 390.967L353.079 384.269L378.616 371.82L383.021 369.675L395.686 395.715L406.981 418.942L409.496 424.11L427.399 460.913Z" fill="#2F2E41"/>
<path d="M431.248 335.894L496.357 270.321L514.403 216.959L487.785 204.871C474.112 218.549 459.333 261.151 459.333 261.151L414.529 320.679C414.18 320.804 413.831 320.936 413.488 321.095C411.47 322.024 409.715 323.481 408.394 325.326C407.073 327.17 406.23 329.339 405.946 331.623C405.662 333.907 405.947 336.229 406.774 338.365C407.6 340.5 408.94 342.377 410.664 343.813C412.388 345.25 414.438 346.197 416.615 346.565C418.792 346.932 421.023 346.707 423.093 345.911C425.162 345.115 427 343.775 428.429 342.02C429.858 340.265 430.829 338.155 431.248 335.894V335.894Z" fill="#FFB8B8"/>
<path d="M480.295 210.829L514.059 222.023L514.186 222.001C526.753 219.803 537.18 198.368 543.715 180.774C545.865 174.97 545.825 168.531 543.603 162.757C541.381 156.984 537.142 152.306 531.744 149.671V149.671C527.75 147.755 523.322 147.045 518.961 147.619C514.6 148.194 510.48 150.031 507.066 152.923L489.728 167.718L480.295 210.829Z" fill="#F8C300"/>
<path d="M558.538 357.493L558.735 357.219C569.27 342.629 554.861 306.497 552.683 301.256L562.478 298.226L560.771 278.75L559.949 270.065L567.565 262.512L567.59 262.319L572.828 223.393L579.681 197.63C582.264 187.89 582.318 177.608 579.839 167.839C577.36 158.07 572.435 149.166 565.572 142.041L551.563 127.516L534.779 100.08L506.637 99.3208L496.518 118.094C487.107 120.1 478.668 125.49 472.671 133.325C466.675 141.16 463.5 150.944 463.701 160.973L464.653 210.951L454.556 272.875L454.272 284.123L444.362 295.045L446.194 306.087L438.78 309.171L435.153 324.861C433.767 326.671 424.619 338.748 424.536 342.114C424.523 342.62 424.868 343.118 425.622 343.681C431.543 348.105 464.64 357.692 479.536 351.928C495.403 345.794 557.588 357.315 558.215 357.432L558.538 357.493Z" fill="#F8C300"/>
<path d="M518.25 90.9103C538.84 90.9103 555.532 73.4787 555.532 51.9757C555.532 30.4726 538.84 13.041 518.25 13.041C497.66 13.041 480.968 30.4726 480.968 51.9757C480.968 73.4787 497.66 90.9103 518.25 90.9103Z" fill="#FFB8B8"/>
<path d="M513.702 91.431C519.475 91.525 525.246 91.1039 530.951 90.1721C536.605 88.9713 549.255 79.2905 552.781 73.465C555.401 69.1367 557.077 62.3778 558.021 57.4703C559.293 50.9761 559.244 44.2753 557.879 37.802C556.513 31.3286 553.861 25.2269 550.093 19.892C548.646 17.6606 546.647 15.8793 544.309 14.7366C544.102 14.652 543.889 14.577 543.674 14.5129C540.267 13.5769 537.207 11.5991 534.884 8.83331C534.434 8.2739 533.946 7.74907 533.423 7.26292C530.799 4.94986 527.687 3.31827 524.343 2.50153C518.946 0.99289 511.134 2.49041 501.126 6.9568C496.098 9.20081 490.599 8.38869 486.369 7.4304C486.132 7.38253 485.886 7.40039 485.658 7.48219C485.429 7.56399 485.225 7.70688 485.066 7.89665C483.266 9.66118 480.893 10.6489 478.425 10.6612C476.913 10.7306 475.326 12.9169 473.409 15.768C472.974 16.4152 472.466 17.1706 472.1 17.63L472.051 16.7473L471.196 17.732C469.851 19.2795 468.904 21.1572 468.441 23.1902C467.979 25.2232 468.016 27.3453 468.551 29.3589C469.085 31.3726 470.099 33.2123 471.497 34.7067C472.896 36.2011 474.633 37.3017 476.549 37.9059C478.07 38.3285 479.628 38.5878 481.199 38.6799C482.151 38.7693 483.136 38.8618 484.079 39.0328C487.108 39.6804 489.923 41.1369 492.252 43.2603C494.58 45.3836 496.341 48.1011 497.364 51.1476C497.605 51.8518 497.999 52.4885 498.514 53.0087C499.028 53.5288 499.651 53.9185 500.333 54.1476C501.015 54.3766 501.738 54.439 502.447 54.3298C503.155 54.2206 503.83 53.9429 504.42 53.5179C505.403 52.7187 506.556 52.1795 507.782 51.9464C509.007 51.7134 510.269 51.7933 511.458 52.1795C512.486 52.7764 513.287 53.7244 513.725 54.8643C514.257 56.1343 515.14 57.2098 516.26 57.9537C520.092 60.0169 520.356 69.157 518.98 76.7763C517.654 84.1207 515.031 89.4337 512.603 89.6964C510.734 89.8983 510.52 90.037 510.385 90.3822L510.264 90.6913L510.474 90.9803C511.506 91.3712 512.607 91.5249 513.702 91.431V91.431Z" fill="#2F2E41"/>
<path d="M489.553 199.058L475.178 169.128C454.313 170.616 412.901 195.811 412.901 195.811L334.548 213.16C332.227 212.228 329.712 211.951 327.256 212.357C324.8 212.763 322.489 213.838 320.557 215.473C318.625 217.108 317.14 219.245 316.25 221.671C315.361 224.096 315.099 226.723 315.491 229.287C315.882 231.852 316.914 234.263 318.482 236.279C320.05 238.295 322.098 239.843 324.422 240.769C326.745 241.695 329.261 241.966 331.716 241.554C334.171 241.141 336.479 240.061 338.407 238.421L438.077 230.96L489.553 199.058Z" fill="#FFB8B8"/>
<path d="M483.755 203.972L521.298 174.836L527.911 149.948C529.192 145.057 529.138 139.89 527.754 135.029C526.371 130.169 523.713 125.809 520.082 122.444V122.444C515.13 117.916 508.716 115.52 502.138 115.742C495.56 115.964 489.307 118.786 484.645 123.638C470.517 138.364 454.403 158.91 457.865 173.156L457.9 173.3L483.755 203.972Z" fill="#F8C300"/>
<path d="M437.281 281.904H336.828V295.891H437.281V281.904Z" fill="white"/>
<path d="M180.567 281.904H80.1133V295.891H180.567V281.904Z" fill="white"/>
<path d="M192.297 214.638V281.237C192.297 282.086 192.62 282.9 193.195 283.5C193.77 284.1 194.549 284.437 195.362 284.438H289.866C290.678 284.438 291.457 284.1 292.032 283.5C292.607 282.9 292.93 282.086 292.931 281.237V214.638C292.929 213.79 292.605 212.978 292.031 212.378C291.456 211.779 290.678 211.442 289.866 211.441H195.362C194.55 211.442 193.771 211.779 193.197 212.378C192.622 212.978 192.299 213.79 192.297 214.638Z" fill="#3F3D56"/>
<path d="M194.514 215.467V280.416C194.514 280.869 194.687 281.304 194.994 281.624C195.301 281.945 195.718 282.125 196.152 282.126H289.079C289.513 282.125 289.929 281.945 290.236 281.624C290.543 281.304 290.716 280.869 290.717 280.416V215.467C290.717 215.013 290.545 214.577 290.237 214.256C289.93 213.934 289.514 213.753 289.079 213.752H196.152C195.717 213.753 195.3 213.934 194.993 214.256C194.686 214.577 194.514 215.013 194.514 215.467Z" fill="#F8C300"/>
<path d="M190.32 294.226C190.493 294.453 190.713 294.636 190.964 294.761C191.214 294.886 191.489 294.95 191.766 294.949H292.958C293.235 294.948 293.508 294.884 293.757 294.759C294.007 294.635 294.227 294.454 294.402 294.229C294.576 294.005 294.7 293.742 294.765 293.462C294.83 293.181 294.835 292.888 294.778 292.605L293.207 284.813C293.142 284.496 293.002 284.2 292.799 283.953C292.597 283.706 292.338 283.516 292.048 283.401C291.837 283.314 291.613 283.27 291.387 283.271H193.331C193.105 283.27 192.881 283.314 192.67 283.401C192.379 283.516 192.121 283.706 191.918 283.953C191.716 284.2 191.576 284.496 191.511 284.813L189.94 292.605C189.884 292.888 189.889 293.18 189.955 293.46C190.021 293.741 190.145 294.002 190.32 294.226V294.226Z" fill="#2F2E41"/>
<path d="M287.915 286.626H290.305C290.506 286.626 290.668 286.457 290.668 286.247V285.053C290.668 284.843 290.506 284.674 290.305 284.674H287.915C287.714 284.674 287.552 284.843 287.552 285.053V286.247C287.552 286.457 287.714 286.626 287.915 286.626Z" fill="#3F3D56"/>
<path d="M281.682 286.626H284.072C284.272 286.626 284.435 286.457 284.435 286.247V285.053C284.435 284.843 284.272 284.674 284.072 284.674H281.682C281.481 284.674 281.318 284.843 281.318 285.053V286.247C281.318 286.457 281.481 286.626 281.682 286.626Z" fill="#3F3D56"/>
<path d="M275.448 286.626H277.838C278.039 286.626 278.202 286.457 278.202 286.247V285.053C278.202 284.843 278.039 284.674 277.838 284.674H275.448C275.248 284.674 275.085 284.843 275.085 285.053V286.247C275.085 286.457 275.248 286.626 275.448 286.626Z" fill="#3F3D56"/>
<path d="M269.215 286.626H271.605C271.806 286.626 271.968 286.457 271.968 286.247V285.053C271.968 284.843 271.806 284.674 271.605 284.674H269.215C269.014 284.674 268.852 284.843 268.852 285.053V286.247C268.852 286.457 269.014 286.626 269.215 286.626Z" fill="#3F3D56"/>
<path d="M262.982 286.626H265.372C265.572 286.626 265.735 286.457 265.735 286.247V285.053C265.735 284.843 265.572 284.674 265.372 284.674H262.982C262.781 284.674 262.618 284.843 262.618 285.053V286.247C262.618 286.457 262.781 286.626 262.982 286.626Z" fill="#3F3D56"/>
<path d="M256.748 286.626H259.138C259.339 286.626 259.502 286.457 259.502 286.247V285.053C259.502 284.843 259.339 284.674 259.138 284.674H256.748C256.548 284.674 256.385 284.843 256.385 285.053V286.247C256.385 286.457 256.548 286.626 256.748 286.626Z" fill="#3F3D56"/>
<path d="M250.515 286.626H252.905C253.106 286.626 253.268 286.457 253.268 286.247V285.053C253.268 284.843 253.106 284.674 252.905 284.674H250.515C250.314 284.674 250.152 284.843 250.152 285.053V286.247C250.152 286.457 250.314 286.626 250.515 286.626Z" fill="#3F3D56"/>
<path d="M244.282 286.626H246.672C246.873 286.626 247.035 286.457 247.035 286.247V285.053C247.035 284.843 246.873 284.674 246.672 284.674H244.282C244.081 284.674 243.919 284.843 243.919 285.053V286.247C243.919 286.457 244.081 286.626 244.282 286.626Z" fill="#3F3D56"/>
<path d="M238.048 286.626H240.439C240.639 286.626 240.802 286.457 240.802 286.247V285.053C240.802 284.843 240.639 284.674 240.439 284.674H238.048C237.848 284.674 237.685 284.843 237.685 285.053V286.247C237.685 286.457 237.848 286.626 238.048 286.626Z" fill="#3F3D56"/>
<path d="M231.815 286.626H234.205C234.406 286.626 234.569 286.457 234.569 286.247V285.053C234.569 284.843 234.406 284.674 234.205 284.674H231.815C231.615 284.674 231.452 284.843 231.452 285.053V286.247C231.452 286.457 231.615 286.626 231.815 286.626Z" fill="#3F3D56"/>
<path d="M225.582 286.626H227.972C228.173 286.626 228.335 286.457 228.335 286.247V285.053C228.335 284.843 228.173 284.674 227.972 284.674H225.582C225.381 284.674 225.219 284.843 225.219 285.053V286.247C225.219 286.457 225.381 286.626 225.582 286.626Z" fill="#3F3D56"/>
<path d="M219.349 286.626H221.739C221.939 286.626 222.102 286.457 222.102 286.247V285.053C222.102 284.843 221.939 284.674 221.739 284.674H219.349C219.148 284.674 218.985 284.843 218.985 285.053V286.247C218.985 286.457 219.148 286.626 219.349 286.626Z" fill="#3F3D56"/>
<path d="M213.115 286.626H215.505C215.706 286.626 215.869 286.457 215.869 286.247V285.053C215.869 284.843 215.706 284.674 215.505 284.674H213.115C212.915 284.674 212.752 284.843 212.752 285.053V286.247C212.752 286.457 212.915 286.626 213.115 286.626Z" fill="#3F3D56"/>
<path d="M206.882 286.626H209.272C209.473 286.626 209.635 286.457 209.635 286.247V285.053C209.635 284.843 209.473 284.674 209.272 284.674H206.882C206.681 284.674 206.519 284.843 206.519 285.053V286.247C206.519 286.457 206.681 286.626 206.882 286.626Z" fill="#3F3D56"/>
<path d="M200.649 286.626H203.039C203.239 286.626 203.402 286.457 203.402 286.247V285.053C203.402 284.843 203.239 284.674 203.039 284.674H200.649C200.448 284.674 200.285 284.843 200.285 285.053V286.247C200.285 286.457 200.448 286.626 200.649 286.626Z" fill="#3F3D56"/>
<path d="M194.415 286.626H196.805C197.006 286.626 197.169 286.457 197.169 286.247V285.053C197.169 284.843 197.006 284.674 196.805 284.674H194.415C194.215 284.674 194.052 284.843 194.052 285.053V286.247C194.052 286.457 194.215 286.626 194.415 286.626Z" fill="#3F3D56"/>
<path d="M287.989 289.881H290.379C290.579 289.881 290.742 289.712 290.742 289.502V288.308C290.742 288.098 290.579 287.928 290.379 287.928H287.989C287.788 287.928 287.625 288.098 287.625 288.308V289.502C287.625 289.712 287.788 289.881 287.989 289.881Z" fill="#3F3D56"/>
<path d="M281.755 289.881H284.146C284.346 289.881 284.509 289.712 284.509 289.502V288.308C284.509 288.098 284.346 287.928 284.146 287.928H281.755C281.555 287.928 281.392 288.098 281.392 288.308V289.502C281.392 289.712 281.555 289.881 281.755 289.881Z" fill="#3F3D56"/>
<path d="M275.522 289.881H277.912C278.113 289.881 278.275 289.712 278.275 289.502V288.308C278.275 288.098 278.113 287.928 277.912 287.928H275.522C275.321 287.928 275.159 288.098 275.159 288.308V289.502C275.159 289.712 275.321 289.881 275.522 289.881Z" fill="#3F3D56"/>
<path d="M269.289 289.881H271.679C271.879 289.881 272.042 289.712 272.042 289.502V288.308C272.042 288.098 271.879 287.928 271.679 287.928H269.289C269.088 287.928 268.925 288.098 268.925 288.308V289.502C268.925 289.712 269.088 289.881 269.289 289.881Z" fill="#3F3D56"/>
<path d="M263.055 289.881H265.446C265.646 289.881 265.809 289.712 265.809 289.502V288.308C265.809 288.098 265.646 287.928 265.446 287.928H263.055C262.855 287.928 262.692 288.098 262.692 288.308V289.502C262.692 289.712 262.855 289.881 263.055 289.881Z" fill="#3F3D56"/>
<path d="M256.822 289.881H259.212C259.413 289.881 259.575 289.712 259.575 289.502V288.308C259.575 288.098 259.413 287.928 259.212 287.928H256.822C256.621 287.928 256.459 288.098 256.459 288.308V289.502C256.459 289.712 256.621 289.881 256.822 289.881Z" fill="#3F3D56"/>
<path d="M250.589 289.881H252.979C253.179 289.881 253.342 289.712 253.342 289.502V288.308C253.342 288.098 253.179 287.928 252.979 287.928H250.589C250.388 287.928 250.225 288.098 250.225 288.308V289.502C250.225 289.712 250.388 289.881 250.589 289.881Z" fill="#3F3D56"/>
<path d="M244.355 289.881H246.746C246.946 289.881 247.109 289.712 247.109 289.502V288.308C247.109 288.098 246.946 287.928 246.746 287.928H244.355C244.155 287.928 243.992 288.098 243.992 288.308V289.502C243.992 289.712 244.155 289.881 244.355 289.881Z" fill="#3F3D56"/>
<path d="M238.122 289.881H240.512C240.713 289.881 240.875 289.712 240.875 289.502V288.308C240.875 288.098 240.713 287.928 240.512 287.928H238.122C237.921 287.928 237.759 288.098 237.759 288.308V289.502C237.759 289.712 237.921 289.881 238.122 289.881Z" fill="#3F3D56"/>
<path d="M231.889 289.881H234.279C234.48 289.881 234.642 289.712 234.642 289.502V288.308C234.642 288.098 234.48 287.928 234.279 287.928H231.889C231.688 287.928 231.526 288.098 231.526 288.308V289.502C231.526 289.712 231.688 289.881 231.889 289.881Z" fill="#3F3D56"/>
<path d="M225.656 289.881H228.046C228.246 289.881 228.409 289.712 228.409 289.502V288.308C228.409 288.098 228.246 287.928 228.046 287.928H225.656C225.455 287.928 225.292 288.098 225.292 288.308V289.502C225.292 289.712 225.455 289.881 225.656 289.881Z" fill="#3F3D56"/>
<path d="M219.422 289.881H221.812C222.013 289.881 222.176 289.712 222.176 289.502V288.308C222.176 288.098 222.013 287.928 221.812 287.928H219.422C219.222 287.928 219.059 288.098 219.059 288.308V289.502C219.059 289.712 219.222 289.881 219.422 289.881Z" fill="#3F3D56"/>
<path d="M213.189 289.881H215.579C215.78 289.881 215.942 289.712 215.942 289.502V288.308C215.942 288.098 215.78 287.928 215.579 287.928H213.189C212.988 287.928 212.826 288.098 212.826 288.308V289.502C212.826 289.712 212.988 289.881 213.189 289.881Z" fill="#3F3D56"/>
<path d="M206.956 289.881H209.346C209.546 289.881 209.709 289.712 209.709 289.502V288.308C209.709 288.098 209.546 287.928 209.346 287.928H206.956C206.755 287.928 206.592 288.098 206.592 288.308V289.502C206.592 289.712 206.755 289.881 206.956 289.881Z" fill="#3F3D56"/>
<path d="M200.722 289.881H203.112C203.313 289.881 203.476 289.712 203.476 289.502V288.308C203.476 288.098 203.313 287.928 203.112 287.928H200.722C200.522 287.928 200.359 288.098 200.359 288.308V289.502C200.359 289.712 200.522 289.881 200.722 289.881Z" fill="#3F3D56"/>
<path d="M194.489 289.881H196.879C197.08 289.881 197.242 289.712 197.242 289.502V288.308C197.242 288.098 197.08 287.928 196.879 287.928H194.489C194.288 287.928 194.126 288.098 194.126 288.308V289.502C194.126 289.712 194.288 289.881 194.489 289.881Z" fill="#3F3D56"/>
<path d="M236.252 293.787H260.459C260.659 293.787 260.822 293.617 260.822 293.408V292.214C260.822 292.004 260.659 291.834 260.459 291.834H236.252C236.051 291.834 235.889 292.004 235.889 292.214V293.408C235.889 293.617 236.051 293.787 236.252 293.787Z" fill="#3F3D56"/>
</g>
<defs>
<clipPath id="clip0_96_183">
<rect width="620" height="491.979" fill="white"/>
</clipPath>
</defs>
</svg>
