<svg width="581" height="461" viewBox="0 0 581 461" fill="none" xmlns="http://www.w3.org/2000/svg">
<g clip-path="url(#clip0_35_178)">
<path d="M78.8458 446.679L85.0871 436.412L86.3337 442.279C86.5523 443.307 86.7709 444.351 86.9733 445.386C88.7461 443.837 90.6323 442.403 92.4778 441.028C98.1444 436.818 103.808 432.603 109.47 428.382L107.697 438.906C106.604 445.387 105.462 451.999 102.759 457.924C102.459 458.595 102.135 459.258 101.787 459.905H75.4456C75.2338 459.304 75.0872 458.682 75.0085 458.048C75.0019 458.007 74.9993 457.966 75.0006 457.924C74.5875 453.905 76.7571 450.118 78.8458 446.679Z" fill="#F0F0F0"/>
<path d="M475.503 0H104.749C101.563 0.00518266 98.5097 1.30278 96.2573 3.60843C94.0049 5.91408 92.7373 9.03973 92.7322 12.3004V268.404C92.7352 271.665 94.0023 274.792 96.2551 277.098C98.5079 279.404 101.563 280.701 104.749 280.704H475.503C478.689 280.701 481.744 279.404 483.997 277.098C486.25 274.792 487.517 271.665 487.52 268.404V12.3004C487.515 9.03971 486.247 5.91406 483.994 3.60842C481.742 1.30277 478.689 0.00518264 475.503 0V0Z" fill="#E6E6E6"/>
<path d="M473.218 272.225H230.287C196.247 272.123 163.63 258.236 139.56 233.597C115.49 208.958 101.924 175.569 101.825 140.724V15.4762C101.825 13.6205 102.544 11.8407 103.825 10.5273C105.106 9.21387 106.843 8.47407 108.656 8.47021H473.218C475.031 8.47406 476.768 9.21386 478.049 10.5273C479.329 11.8407 480.049 13.6205 480.049 15.4762V265.232C480.047 267.086 479.327 268.864 478.046 270.175C476.766 271.486 475.029 272.223 473.218 272.225V272.225Z" fill="white"/>
<path d="M454.083 43.2952H112.963C112.608 43.2872 112.271 43.1374 112.023 42.8779C111.775 42.6183 111.636 42.2697 111.636 41.9066C111.636 41.5435 111.775 41.1948 112.023 40.9353C112.271 40.6757 112.608 40.5259 112.963 40.5179H454.083C454.437 40.5259 454.775 40.6757 455.023 40.9353C455.271 41.1948 455.41 41.5435 455.41 41.9066C455.41 42.2697 455.271 42.6183 455.023 42.8779C454.775 43.1374 454.437 43.2872 454.083 43.2952Z" fill="#CACACA"/>
<path d="M136.184 33.4279C140.574 33.4279 144.134 29.7033 144.134 25.1086C144.134 20.514 140.574 16.7893 136.184 16.7893C131.793 16.7893 128.234 20.514 128.234 25.1086C128.234 29.7033 131.793 33.4279 136.184 33.4279Z" fill="#3F3D56"/>
<path d="M163.647 33.4279C168.038 33.4279 171.597 29.7033 171.597 25.1086C171.597 20.514 168.038 16.7893 163.647 16.7893C159.256 16.7893 155.697 20.514 155.697 25.1086C155.697 29.7033 159.256 33.4279 163.647 33.4279Z" fill="#3F3D56"/>
<path d="M191.11 33.4279C195.501 33.4279 199.06 29.7033 199.06 25.1086C199.06 20.514 195.501 16.7893 191.11 16.7893C186.72 16.7893 183.16 20.514 183.16 25.1086C183.16 29.7033 186.72 33.4279 191.11 33.4279Z" fill="#3F3D56"/>
<path d="M345.27 168.126H207.128C204.629 168.159 202.211 167.221 200.359 165.502C198.508 163.783 197.362 161.41 197.152 158.861C197.065 157.557 197.23 156.249 197.638 155.011C198.045 153.773 198.687 152.629 199.527 151.645C200.366 150.66 201.387 149.855 202.53 149.274C203.674 148.694 204.918 148.349 206.191 148.261C206.408 148.246 206.626 148.238 206.844 148.238H345.27C347.847 148.238 350.317 149.286 352.139 151.151C353.961 153.015 354.984 155.545 354.984 158.182C354.984 160.819 353.961 163.349 352.139 165.213C350.317 167.078 347.847 168.126 345.27 168.126V168.126Z" fill="#1DA838"/>
<path d="M345.526 112.435C350.373 112.435 354.302 108.412 354.302 103.451C354.302 98.489 350.373 94.4668 345.526 94.4668C340.679 94.4668 336.75 98.489 336.75 103.451C336.75 108.412 340.679 112.435 345.526 112.435Z" fill="#E6E6E6"/>
<path d="M344.329 108.126C344.177 108.126 344.028 108.09 343.892 108.021C343.757 107.952 343.639 107.851 343.548 107.727L341.154 104.459C341.076 104.354 341.019 104.234 340.987 104.107C340.954 103.979 340.947 103.847 340.965 103.716C340.983 103.586 341.026 103.46 341.091 103.347C341.156 103.234 341.243 103.135 341.346 103.056C341.449 102.977 341.566 102.919 341.691 102.887C341.815 102.854 341.945 102.847 342.072 102.866C342.199 102.885 342.322 102.93 342.432 102.997C342.543 103.065 342.639 103.154 342.716 103.26L344.282 105.397L348.305 99.22C348.448 98.9989 348.671 98.845 348.925 98.7921C349.178 98.7392 349.442 98.7916 349.658 98.9378C349.874 99.0841 350.024 99.3121 350.076 99.5718C350.128 99.8315 350.077 100.102 349.934 100.323L349.93 100.329L345.141 107.681C345.055 107.814 344.938 107.924 344.801 108.002C344.665 108.079 344.512 108.122 344.356 108.126L344.329 108.126Z" fill="white"/>
<path d="M345.526 221.817C350.373 221.817 354.302 217.795 354.302 212.833C354.302 207.872 350.373 203.849 345.526 203.849C340.679 203.849 336.75 207.872 336.75 212.833C336.75 217.795 340.679 221.817 345.526 221.817Z" fill="#E6E6E6"/>
<path d="M344.329 217.509C344.177 217.509 344.028 217.473 343.892 217.404C343.757 217.334 343.639 217.233 343.548 217.109L341.154 213.841C341.076 213.736 341.019 213.617 340.987 213.489C340.954 213.362 340.947 213.229 340.965 213.099C340.983 212.968 341.026 212.843 341.091 212.73C341.156 212.616 341.243 212.517 341.346 212.438C341.449 212.359 341.566 212.302 341.691 212.269C341.815 212.237 341.945 212.23 342.072 212.249C342.199 212.268 342.322 212.312 342.432 212.38C342.543 212.447 342.639 212.536 342.716 212.642L344.282 214.78L348.305 208.603C348.448 208.382 348.671 208.228 348.925 208.175C349.178 208.122 349.442 208.174 349.658 208.32C349.874 208.467 350.024 208.695 350.076 208.954C350.128 209.214 350.077 209.484 349.934 209.705L349.93 209.711L345.141 217.064C345.055 217.197 344.938 217.307 344.801 217.384C344.665 217.462 344.512 217.504 344.356 217.509L344.329 217.509Z" fill="white"/>
<path d="M274.842 113.435H207.128C204.629 113.467 202.21 112.53 200.359 110.811C198.508 109.092 197.362 106.719 197.152 104.17C197.065 102.866 197.23 101.558 197.638 100.32C198.045 99.0815 198.687 97.9376 199.527 96.9533C200.366 95.969 201.387 95.1635 202.53 94.583C203.674 94.0024 204.918 93.6581 206.191 93.5697C206.408 93.5546 206.626 93.547 206.844 93.5469H274.842C277.419 93.5469 279.89 94.5945 281.711 96.4594C283.533 98.3242 284.556 100.853 284.556 103.491C284.556 106.128 283.533 108.657 281.711 110.522C279.89 112.387 277.419 113.435 274.842 113.435V113.435Z" fill="#1DA838"/>
<path d="M345.27 113.849H206.844C204.16 113.849 201.586 112.758 199.688 110.815C197.791 108.872 196.725 106.238 196.725 103.491C196.725 100.743 197.791 98.1088 199.688 96.1663C201.586 94.2238 204.16 93.1324 206.844 93.1324H345.27C347.954 93.1324 350.528 94.2238 352.425 96.1663C354.323 98.1088 355.389 100.743 355.389 103.491C355.389 106.238 354.323 108.872 352.425 110.815C350.528 112.758 347.954 113.849 345.27 113.849ZM206.844 94.7898C204.589 94.7898 202.427 95.7065 200.833 97.3382C199.239 98.9699 198.344 101.183 198.344 103.491C198.344 105.798 199.239 108.011 200.833 109.643C202.427 111.275 204.589 112.192 206.844 112.192H345.27C347.524 112.192 349.686 111.275 351.28 109.643C352.875 108.011 353.77 105.798 353.77 103.491C353.77 101.183 352.875 98.9699 351.28 97.3382C349.686 95.7065 347.524 94.7898 345.27 94.7898H206.844Z" fill="#3F3D56"/>
<path d="M345.27 168.54H206.844C204.16 168.54 201.586 167.449 199.688 165.506C197.791 163.564 196.725 160.929 196.725 158.182C196.725 155.435 197.791 152.8 199.688 150.858C201.586 148.915 204.16 147.824 206.844 147.824H345.27C347.954 147.824 350.528 148.915 352.425 150.858C354.323 152.8 355.389 155.435 355.389 158.182C355.389 160.929 354.323 163.564 352.425 165.506C350.528 167.449 347.954 168.54 345.27 168.54ZM206.844 149.481C204.589 149.481 202.427 150.398 200.833 152.03C199.239 153.661 198.344 155.874 198.344 158.182C198.344 160.49 199.239 162.703 200.833 164.335C202.427 165.966 204.589 166.883 206.844 166.883H345.27C347.524 166.883 349.686 165.966 351.28 164.335C352.875 162.703 353.77 160.49 353.77 158.182C353.77 155.874 352.875 153.661 351.28 152.03C349.686 150.398 347.524 149.481 345.27 149.481H206.844Z" fill="#3F3D56"/>
<path d="M245.7 222.817H207.128C204.629 222.85 202.21 221.913 200.359 220.194C198.508 218.475 197.362 216.102 197.152 213.552C197.065 212.249 197.23 210.94 197.638 209.702C198.045 208.464 198.687 207.32 199.527 206.336C200.366 205.352 201.387 204.546 202.53 203.966C203.674 203.385 204.918 203.041 206.191 202.952C206.408 202.937 206.626 202.93 206.844 202.929H245.7C248.276 202.929 250.747 203.977 252.569 205.842C254.391 207.707 255.414 210.236 255.414 212.873C255.414 215.511 254.391 218.04 252.569 219.905C250.747 221.77 248.276 222.817 245.7 222.817V222.817Z" fill="#1DA838"/>
<path d="M345.27 223.232H206.844C204.16 223.232 201.586 222.14 199.688 220.198C197.791 218.255 196.725 215.621 196.725 212.873C196.725 210.126 197.791 207.492 199.688 205.549C201.586 203.606 204.16 202.515 206.844 202.515H345.27C347.954 202.515 350.528 203.606 352.425 205.549C354.323 207.492 355.389 210.126 355.389 212.873C355.389 215.621 354.323 218.255 352.425 220.198C350.528 222.14 347.954 223.232 345.27 223.232V223.232ZM206.844 204.172C204.589 204.172 202.427 205.089 200.833 206.721C199.239 208.353 198.344 210.566 198.344 212.873C198.344 215.181 199.239 217.394 200.833 219.026C202.427 220.658 204.589 221.574 206.844 221.574H345.27C347.524 221.574 349.686 220.658 351.28 219.026C352.875 217.394 353.77 215.181 353.77 212.873C353.77 210.566 352.875 208.353 351.28 206.721C349.686 205.089 347.524 204.172 345.27 204.172H206.844Z" fill="#3F3D56"/>
<path d="M232.749 82.8657H200.368C199.509 82.8657 198.686 82.5165 198.078 81.8949C197.471 81.2733 197.13 80.4302 197.13 79.5511C197.13 78.672 197.471 77.8289 198.078 77.2073C198.686 76.5857 199.509 76.2365 200.368 76.2365H232.749C233.607 76.2365 234.431 76.5857 235.038 77.2073C235.645 77.8289 235.987 78.672 235.987 79.5511C235.987 80.4302 235.645 81.2733 235.038 81.8949C234.431 82.5165 233.607 82.8657 232.749 82.8657Z" fill="#CCCCCC"/>
<path d="M232.749 137.557H200.368C199.509 137.557 198.686 137.208 198.078 136.586C197.471 135.965 197.13 135.121 197.13 134.242C197.13 133.363 197.471 132.52 198.078 131.899C198.686 131.277 199.509 130.928 200.368 130.928H232.749C233.607 130.928 234.431 131.277 235.038 131.899C235.645 132.52 235.987 133.363 235.987 134.242C235.987 135.121 235.645 135.965 235.038 136.586C234.431 137.208 233.607 137.557 232.749 137.557Z" fill="#CCCCCC"/>
<path d="M232.749 192.248H200.368C199.509 192.248 198.686 191.899 198.078 191.278C197.471 190.656 197.13 189.813 197.13 188.934C197.13 188.055 197.471 187.212 198.078 186.59C198.686 185.968 199.509 185.619 200.368 185.619H232.749C233.607 185.619 234.431 185.968 235.038 186.59C235.645 187.212 235.987 188.055 235.987 188.934C235.987 189.813 235.645 190.656 235.038 191.278C234.431 191.899 233.607 192.248 232.749 192.248Z" fill="#CCCCCC"/>
<path d="M184.187 83.5788C186.13 83.5788 187.705 81.9303 187.705 79.8968C187.705 77.8633 186.13 76.2148 184.187 76.2148C182.244 76.2148 180.668 77.8633 180.668 79.8968C180.668 81.9303 182.244 83.5788 184.187 83.5788Z" fill="#3F3D56"/>
<path d="M184.187 138.27C186.13 138.27 187.705 136.622 187.705 134.588C187.705 132.555 186.13 130.906 184.187 130.906C182.244 130.906 180.668 132.555 180.668 134.588C180.668 136.622 182.244 138.27 184.187 138.27Z" fill="#3F3D56"/>
<path d="M184.187 192.961C186.13 192.961 187.705 191.313 187.705 189.28C187.705 187.246 186.13 185.598 184.187 185.598C182.244 185.598 180.668 187.246 180.668 189.28C180.668 191.313 182.244 192.961 184.187 192.961Z" fill="#3F3D56"/>
<path d="M416.046 450.947L408.031 450.947L404.218 419.3L416.047 419.301L416.046 450.947Z" fill="#FFB6B6"/>
<path d="M416.328 459.506L391.681 459.505V459.186C391.681 456.582 392.692 454.084 394.491 452.243C396.29 450.401 398.73 449.367 401.274 449.366H401.275L405.777 445.87L414.177 449.367L416.328 449.367L416.328 459.506Z" fill="#2F2E41"/>
<path d="M447.617 450.947L439.602 450.947L435.789 419.3L447.619 419.301L447.617 450.947Z" fill="#FFB6B6"/>
<path d="M447.899 459.506L423.252 459.505V459.186C423.252 456.582 424.263 454.084 426.062 452.243C427.861 450.401 430.301 449.367 432.845 449.366H432.846L437.348 445.87L445.748 449.367L447.899 449.367L447.899 459.506Z" fill="#2F2E41"/>
<path d="M388.464 252.74L382.798 272.628L389.473 356.857C389.473 356.857 386.036 362.123 388.464 362.123C390.893 362.123 394.007 363.291 392.045 366.436C390.083 369.581 396.789 380.872 396.789 380.872L406.274 440.845L418.359 440.663C418.359 440.663 424.503 437.159 421.055 433.616C417.607 430.073 415.178 430.073 418.416 426.758C421.654 423.444 421.654 424.442 421.654 421.871C421.654 419.3 424.899 387.883 417.205 375.832L419.523 326.696L424.983 374.892L436.226 439.188L447.868 439.09C447.868 439.09 453.245 433.784 453.235 429.857C453.225 425.93 449.913 425.603 452.379 423.281C454.844 420.958 454.844 385.273 447.559 365.438L447.615 276.712C447.615 276.712 454.773 256.799 447.523 248.969C440.273 241.139 388.464 252.74 388.464 252.74Z" fill="#2F2E41"/>
<path d="M461.434 218.041L466.314 166.292C466.515 164.099 465.865 161.913 464.505 160.206C463.145 158.5 461.184 157.409 459.045 157.169V157.169C456.884 156.927 454.717 157.573 453.021 158.966C451.326 160.359 450.24 162.385 450.003 164.597C449.988 164.745 449.976 164.892 449.967 165.041L446.508 218.954L443.056 251.624C441.65 252.057 440.407 252.922 439.498 254.103C438.588 255.284 438.056 256.723 437.973 258.224C437.891 259.726 438.261 261.216 439.035 262.495C439.809 263.773 440.949 264.776 442.299 265.368C443.649 265.96 445.145 266.112 446.583 265.804C448.02 265.496 449.33 264.742 450.335 263.645C451.34 262.548 451.99 261.161 452.198 259.672C452.405 258.183 452.16 256.665 451.496 255.324L461.434 218.041Z" fill="#FFB6B6"/>
<path d="M443.133 140.061L460.717 142.318C460.717 142.318 473.893 167.74 471.181 169.897C468.469 172.055 456.215 185.515 447.18 179.344C438.146 173.174 443.133 140.061 443.133 140.061Z" fill="#3F3D56"/>
<path d="M412.85 115.67C423.158 115.67 431.514 107.117 431.514 96.5652C431.514 86.0137 423.158 77.46 412.85 77.46C402.542 77.46 394.186 86.0137 394.186 96.5652C394.186 107.117 402.542 115.67 412.85 115.67Z" fill="#FFB6B6"/>
<path d="M420.062 114.105C414.706 113.925 414.219 112.477 408.863 112.297C407.158 112.239 405.146 112 404.321 110.471C404.081 109.898 403.974 109.276 404.009 108.654C404.044 108.031 404.219 107.426 404.521 106.884C405.132 105.81 405.683 104.701 406.171 103.562C406.465 102.669 406.542 101.716 406.396 100.786C406.249 99.8558 405.884 98.976 405.331 98.2228C404.778 97.4695 404.054 96.8654 403.222 96.4628C402.389 96.0601 401.474 95.8709 400.554 95.9116C398.924 95.9837 397.394 96.7683 395.768 96.9117C393.539 97.1083 388.61 89.5744 389.636 87.5394C390.635 85.5584 392.646 84.0638 392.962 81.8581C393.169 80.4154 392.587 78.982 392.507 77.5262C392.389 75.3676 397.735 80.2347 396.756 78.3191C394.354 73.6197 416.984 67.7939 420.709 73.6802C422.101 75.8801 424.583 75.7301 426.795 77.0513C428.244 77.9172 431.904 80.9046 432.737 82.7666C433.501 84.6666 433.863 86.7112 433.797 88.765C433.83 98.3165 432.409 107.102 424.882 112.748" fill="#2F2E41"/>
<path d="M407.893 120.984L423.273 117.669L435.087 123.486C435.087 123.486 463.031 134.992 462.936 146.337C462.841 157.683 457.929 182.542 452.29 185.028C446.65 187.514 457.174 195.801 453.936 200.773C450.698 205.745 445.793 239.712 445.793 239.712C445.793 239.712 457.26 263.095 447.559 267.656C437.857 272.217 396.86 276.481 394.232 270.53C391.603 264.579 391.579 267.827 385.52 266.203C379.461 264.579 385.526 241.814 390.993 239.524C396.461 237.234 399.699 187.514 399.699 187.514L390.993 148.855L404.275 129.717L407.893 120.984Z" fill="#3F3D56"/>
<path d="M397.12 227.25L411.016 177.244C411.598 175.124 411.343 172.854 410.305 170.925C409.268 168.995 407.53 167.561 405.468 166.931C403.385 166.295 401.14 166.531 399.227 167.59C397.314 168.648 395.89 170.44 395.269 172.573C395.227 172.715 395.19 172.858 395.156 173.003L382.277 225.4L373.14 256.9C371.68 257.067 370.306 257.69 369.204 258.684C368.101 259.678 367.325 260.995 366.98 262.457C366.634 263.918 366.737 265.453 367.274 266.853C367.81 268.253 368.755 269.45 369.979 270.281C371.203 271.112 372.648 271.537 374.116 271.499C375.585 271.46 377.006 270.96 378.187 270.066C379.368 269.171 380.252 267.927 380.717 266.501C381.183 265.075 381.209 263.536 380.791 262.095L397.12 227.25Z" fill="#FFB6B6"/>
<path d="M392.822 147.172L409.723 152.63C409.723 152.63 420.716 169.154 416.601 171.511C412.486 173.869 410.942 173.37 413.055 177.528C415.169 181.687 418.216 180.064 415.169 181.687C412.123 183.309 397.702 194.293 389.9 186.559C382.097 178.826 392.822 147.172 392.822 147.172Z" fill="#3F3D56"/>
<path d="M4.28809e-06 460.014C-0.0003726 460.143 0.024098 460.271 0.0720175 460.39C0.119937 460.51 0.190367 460.618 0.279287 460.71C0.368208 460.801 0.473882 460.874 0.590266 460.924C0.70665 460.974 0.831466 461 0.957595 461H580C580.255 461 580.5 460.896 580.681 460.711C580.861 460.526 580.963 460.275 580.963 460.014C580.963 459.752 580.861 459.501 580.681 459.317C580.5 459.132 580.255 459.028 580 459.028H0.963326C0.837193 459.027 0.712227 459.052 0.595552 459.101C0.478878 459.151 0.372779 459.223 0.283326 459.314C0.193873 459.405 0.122816 459.513 0.0742039 459.632C0.0255917 459.751 0.000374751 459.879 4.28809e-06 460.008V460.014Z" fill="#CCCCCC"/>
<path d="M345.526 175.057C354.652 175.057 362.05 167.484 362.05 158.142C362.05 148.8 354.652 141.228 345.526 141.228C336.4 141.228 329.002 148.8 329.002 158.142C329.002 167.484 336.4 175.057 345.526 175.057Z" fill="#1DA838"/>
<path d="M343.272 166.945C342.987 166.945 342.705 166.877 342.45 166.747C342.195 166.616 341.973 166.426 341.802 166.193L337.294 160.04C337.001 159.641 336.876 159.139 336.945 158.645C337.014 158.151 337.271 157.705 337.661 157.406C338.051 157.106 338.542 156.978 339.024 157.048C339.507 157.119 339.942 157.383 340.235 157.782L343.184 161.807L350.759 150.177C351.027 149.76 351.447 149.471 351.925 149.371C352.402 149.271 352.899 149.37 353.306 149.645C353.712 149.921 353.995 150.35 354.093 150.839C354.19 151.328 354.094 151.836 353.825 152.253L353.817 152.264L344.801 166.108C344.638 166.358 344.419 166.565 344.162 166.71C343.905 166.856 343.617 166.936 343.323 166.945L343.272 166.945Z" fill="white"/>
</g>
<defs>
<clipPath id="clip0_35_178">
<rect width="580.963" height="461" fill="white"/>
</clipPath>
</defs>
</svg>
