<svg width="581" height="461" viewBox="0 0 581 461" fill="none" xmlns="http://www.w3.org/2000/svg">
<g clip-path="url(#clip0_96_249)">
<path d="M404.545 448.706L393.791 448.706L388.675 407.777H404.546L404.545 448.706Z" fill="#FFB6B6"/>
<path d="M404.257 445.24L392.776 440.632L392.447 440.499L386.108 445.24C382.529 445.241 379.096 446.644 376.565 449.142C374.034 451.639 372.612 455.026 372.611 458.558V458.99H407.284V445.24H404.257Z" fill="#2F2E41"/>
<path d="M501.711 434.911L492.086 439.644L469.004 405.264L483.21 398.279L501.711 434.911Z" fill="#FFB6B6"/>
<path d="M502.601 430.601L500.14 431.807L499.887 431.931L487.545 432.871L487.174 432.896L483.642 439.925C482.056 440.705 480.641 441.786 479.478 443.106C478.315 444.426 477.427 445.959 476.865 447.617C476.303 449.276 476.078 451.028 476.202 452.772C476.326 454.517 476.798 456.22 477.589 457.785L477.783 458.167L508.814 442.912L502.601 430.601Z" fill="#2F2E41"/>
<path d="M397.251 228.717L456.548 230.765L456.961 230.173C456.961 230.173 462.019 241.818 462.019 251.8C462.019 255.119 459.68 276.825 460.869 280.932C461.017 281.443 460 282.695 460.333 285.073C460.55 286.616 461.745 285.429 462.019 287.569C462.217 289.104 460.113 289.952 460.333 291.728C460.574 293.668 463.467 299.953 463.727 302.112C466.5 325.092 470.191 358.383 470.191 358.383C470.191 358.383 485.016 397.565 488.152 398.201C493.416 399.269 496.97 408.714 494.053 410.678C492.664 411.614 474.711 417.906 474.711 417.906C473.725 418.082 470.639 416.555 472.605 412.943C472.967 412.278 470.808 413.97 470.449 413.174C470.068 412.327 470.817 408.959 470.38 408.02C466.456 399.582 460.432 387.89 454.724 381.886C446.289 373.015 440.948 361.717 439.479 349.64L426.385 277.999L421.897 298.089L418.184 301.71L419.202 310.152L419.027 318.346L409.754 352.451C409.754 352.451 408.363 416.142 410.597 418.165C411.807 419.26 416.94 432.753 407.225 433.97L389.574 432.626C389.574 432.626 387.196 427.681 388.385 425.92C389.574 424.16 389.503 424.641 388.052 421.76C386.601 418.88 387.196 414 387.196 414C384.884 391.063 383.971 368.009 384.464 344.964C385.349 307.114 390.711 263.631 390.711 262.745C390.756 261.839 390.587 260.936 390.217 260.106V257.717L392.495 249.251L397.251 228.717Z" fill="#2F2E41"/>
<path d="M480.697 235.872C493.63 235.872 504.115 225.526 504.115 212.764C504.115 200.002 493.63 189.656 480.697 189.656C467.763 189.656 457.278 200.002 457.278 212.764C457.278 225.526 467.763 235.872 480.697 235.872Z" fill="#DA251D"/>
<path d="M477.502 224.791C477.097 224.791 476.699 224.698 476.337 224.519C475.975 224.341 475.661 224.081 475.418 223.762L469.029 215.356C468.824 215.086 468.675 214.779 468.59 214.452C468.505 214.125 468.486 213.785 468.534 213.451C468.583 213.116 468.697 212.795 468.872 212.505C469.046 212.214 469.277 211.96 469.55 211.758C469.824 211.555 470.135 211.408 470.467 211.324C470.798 211.24 471.143 211.222 471.482 211.27C471.82 211.317 472.146 211.431 472.44 211.602C472.735 211.774 472.992 212.002 473.197 212.272L477.377 217.771L488.112 201.881C488.302 201.6 488.546 201.359 488.83 201.171C489.114 200.982 489.433 200.851 489.769 200.785C490.105 200.719 490.45 200.718 490.786 200.784C491.122 200.849 491.441 200.979 491.726 201.167C492.011 201.354 492.256 201.595 492.446 201.876C492.636 202.156 492.769 202.471 492.836 202.802C492.903 203.134 492.903 203.475 492.836 203.806C492.77 204.137 492.637 204.452 492.447 204.733L479.67 223.646C479.438 223.988 479.127 224.27 478.763 224.469C478.398 224.668 477.991 224.778 477.574 224.79C477.55 224.79 477.526 224.791 477.502 224.791Z" fill="white"/>
<path d="M492.276 237.193C492.505 236.249 492.52 235.266 492.322 234.314C492.124 233.363 491.716 232.466 491.129 231.686C490.541 230.907 489.787 230.264 488.921 229.803C488.054 229.343 487.095 229.075 486.113 229.019L474.113 188.677L465.996 197.973L478.91 235.745C478.925 237.38 479.547 238.954 480.658 240.167C481.77 241.38 483.294 242.149 484.941 242.327C486.589 242.506 488.246 242.082 489.598 241.136C490.949 240.189 491.903 238.787 492.276 237.193V237.193Z" fill="#FFB8B8"/>
<path d="M483.811 217.512L482.251 211.872L484.038 208.503L483.904 208.112L483.364 206.598L480.565 204.386L481.568 201.566L478.028 191.642L477.16 189.92L456.835 149.652L451.963 139.994L450.833 138.247L447.318 132.807L442.513 125.379C441.749 124.192 440.753 123.166 439.584 122.362C438.414 121.558 437.095 120.992 435.701 120.696C435.251 120.598 434.795 120.529 434.335 120.488L434.007 120.463C433.186 120.418 432.363 120.466 431.554 120.604H431.537C430.11 120.849 428.75 121.381 427.541 122.168C426.59 122.776 425.742 123.528 425.029 124.398C423.388 126.406 422.535 128.931 422.626 131.51L422.778 135.569L422.93 139.262L430.062 151.989L430.525 152.821L430.534 152.846L452.477 192.025L459.094 203.837L460.097 205.633L464.548 208.545L463.36 211.473L463.705 216.031L467.49 218.851L472.978 224.349L473.198 224.799L474.884 223.959L475.044 223.875L475.423 223.767L480.641 222.212L483.811 221.272L483.912 221.238L484.78 221.022L483.811 217.512Z" fill="#E6E6E6"/>
<path d="M574.02 400.647C572.43 398.652 570.272 397.174 567.823 396.401C565.373 395.629 562.746 395.598 560.279 396.313L559.739 396.471L554.901 415.112C554.176 412.334 552.624 406.062 551.647 399.923L551.562 399.416L551.082 399.623C546.023 401.83 541.268 404.658 536.928 408.042C529.24 414.127 522.987 421.791 518.603 430.502C514.22 439.213 511.811 448.761 511.545 458.483L511.537 458.841L511.529 459.066L512.169 458.841L525.918 453.992C532.006 454.521 538.136 453.702 543.862 451.595C549.588 449.489 554.764 446.147 559.014 441.814C564.57 436.032 568.38 428.596 572.064 421.401C573.143 419.305 574.247 417.142 575.377 415.062C576.637 412.801 577.181 410.219 576.939 407.649C576.697 405.079 575.68 402.64 574.02 400.647V400.647Z" fill="#F2F2F2"/>
<path d="M221.189 91.2009H219.503V27.1147H341.448V28.7784H221.189V91.2009Z" fill="#3F3D56"/>
<path d="M360.148 46.2161C373.082 46.2161 383.567 35.8703 383.567 23.1081C383.567 10.3458 373.082 0 360.148 0C347.215 0 336.73 10.3458 336.73 23.1081C336.73 35.8703 347.215 46.2161 360.148 46.2161Z" fill="#DA251D"/>
<path d="M356.954 35.1348C356.549 35.1348 356.15 35.0419 355.789 34.8634C355.427 34.6849 355.112 34.4257 354.87 34.1064L348.481 25.7006C348.276 25.4306 348.126 25.1233 348.041 24.7963C347.957 24.4693 347.938 24.129 347.986 23.7949C348.035 23.4607 348.149 23.1392 348.323 22.8488C348.498 22.5583 348.728 22.3046 349.002 22.1021C349.276 21.8996 349.587 21.7522 349.918 21.6685C350.25 21.5847 350.595 21.5662 350.933 21.6139C351.272 21.6616 351.598 21.7747 351.892 21.9467C352.187 22.1187 352.444 22.3462 352.649 22.6163L356.829 28.1151L367.564 12.2257C367.754 11.9445 367.998 11.7029 368.282 11.5148C368.566 11.3266 368.885 11.1956 369.221 11.1293C369.556 11.0629 369.902 11.0624 370.238 11.1279C370.574 11.1933 370.893 11.3235 371.178 11.5108C371.463 11.6982 371.707 11.9391 371.898 12.2198C372.088 12.5004 372.221 12.8154 372.288 13.1466C372.355 13.4779 372.355 13.8189 372.288 14.1502C372.221 14.4815 372.089 14.7965 371.899 15.0774L359.121 33.9901C358.89 34.3321 358.579 34.6145 358.215 34.8135C357.85 35.0126 357.443 35.1224 357.026 35.134C357.002 35.1344 356.978 35.1348 356.954 35.1348Z" fill="white"/>
<path d="M138.576 246.79H136.89V310.876H258.835V309.212H138.576V246.79Z" fill="#3F3D56"/>
<path d="M277.535 334.027C290.468 334.027 300.953 323.681 300.953 310.919C300.953 298.157 290.468 287.811 277.535 287.811C264.601 287.811 254.116 298.157 254.116 310.919C254.116 323.681 264.601 334.027 277.535 334.027Z" fill="#DA251D"/>
<path d="M274.34 322.946C273.936 322.946 273.537 322.853 273.175 322.674C272.814 322.496 272.499 322.237 272.256 321.917L265.868 313.512C265.662 313.242 265.513 312.934 265.428 312.607C265.343 312.28 265.324 311.94 265.373 311.606C265.421 311.272 265.536 310.95 265.71 310.66C265.884 310.369 266.115 310.116 266.389 309.913C266.662 309.711 266.974 309.563 267.305 309.48C267.636 309.396 267.981 309.377 268.32 309.425C268.659 309.473 268.984 309.586 269.279 309.758C269.573 309.93 269.83 310.157 270.035 310.427L274.215 315.926L284.951 300.037C285.14 299.756 285.384 299.514 285.668 299.326C285.953 299.138 286.272 299.007 286.607 298.94C286.943 298.874 287.289 298.873 287.624 298.939C287.96 299.004 288.28 299.135 288.564 299.322C288.849 299.509 289.094 299.75 289.284 300.031C289.475 300.312 289.607 300.626 289.674 300.958C289.741 301.289 289.741 301.63 289.675 301.961C289.608 302.293 289.476 302.608 289.286 302.888L276.508 321.801C276.277 322.143 275.966 322.426 275.601 322.625C275.237 322.824 274.829 322.933 274.413 322.945C274.388 322.945 274.364 322.946 274.34 322.946Z" fill="white"/>
<path d="M462.862 249.146C462.887 250.898 462.602 252.64 462.019 254.295L461.893 254.27C446.921 256.826 433.565 257.244 427.386 248.175C419.326 238.047 408.238 238.162 395.87 242.608L394.403 241.044L391.908 238.391L394.201 235.829L391.908 230.888L393.821 224.791L396.266 224.35L395.608 219.101L394.58 216.031L397.598 212.762L400.161 204.602L398.314 187.525C395.788 164.117 400.683 140.512 412.325 119.964L419.33 113.759L422.239 111.18L426.142 103.993L430.264 104.467L441.425 105.74L441.804 106.638L444.544 113.16L458.976 128.457L458.327 134.912L458.041 137.757L457.83 139.803L456.835 149.652L452.78 189.887L452.477 192.025L449.214 215.158C454.517 220.216 459.204 229.956 461.455 238.857C461.708 239.847 460.991 240.853 461.176 241.818C461.438 243.182 462.576 244.48 462.702 245.753C462.82 246.88 462.874 248.013 462.862 249.146V249.146Z" fill="#E6E6E6"/>
<path d="M434.278 101.417C444.984 101.417 453.664 92.853 453.664 82.2885C453.664 71.7239 444.984 63.1597 434.278 63.1597C423.571 63.1597 414.892 71.7239 414.892 82.2885C414.892 92.853 423.571 101.417 434.278 101.417Z" fill="#FFB6B6"/>
<path d="M457.647 77.07C456.499 73.5405 453.352 70.5542 449.617 70.164C449.9 67.8197 449.526 65.4438 448.535 63.2949C447.544 61.146 445.975 59.3064 443.998 57.9765C442.022 56.6466 439.713 55.8773 437.324 55.7524C434.935 55.6276 432.557 56.1519 430.449 57.2683C430.001 56.7372 429.422 56.3292 428.767 56.0838C428.113 55.8384 427.405 55.7639 426.713 55.8675C425.329 56.0925 424.024 56.6566 422.919 57.5079C420.172 59.4901 418.022 62.1699 416.696 65.2623C415.371 68.3547 414.92 71.7438 415.392 75.0689C415.384 73.3822 416.141 76.6455 418.312 76.9339C420.122 77.2931 421.844 77.9941 423.384 78.9985C424.924 80.0027 426.641 80.7129 428.447 81.0922C430.269 81.3552 430.738 88.562 429.437 93.2037C429.19 94.0833 429.065 95.2636 429.887 95.6828C430.899 96.199 431.921 94.9011 433.053 94.7745C433.561 94.7666 434.052 94.9536 434.423 95.296C434.794 95.6385 435.016 96.1096 435.042 96.6102C435.043 97.1124 434.922 97.6076 434.69 98.0545C434.458 98.5015 434.121 98.8873 433.707 99.1798C432.875 99.7565 431.954 100.197 430.98 100.484L431.307 100.942C431.593 101.465 432.054 101.874 432.612 102.098C433.17 102.323 433.79 102.349 434.365 102.172C435.661 103.715 449.02 99.4303 449.672 96.6141C452.47 94.1268 454.793 91.1651 456.532 87.8693C458.27 84.5368 458.668 80.6797 457.647 77.07V77.07Z" fill="#2F2E41"/>
<path d="M473.324 135.328C473.054 137.557 470.938 139.221 468.713 139.687C467.581 139.902 466.42 139.921 465.282 139.745C464.17 139.582 463.071 139.34 461.994 139.021C460.662 138.647 459.344 138.226 458.041 137.757C454.316 136.445 450.726 134.788 447.318 132.808C444.741 131.323 442.273 129.661 439.933 127.833C438.719 126.885 437.542 125.895 436.401 124.864L437.825 125.529C436.553 123.841 435.28 122.152 434.007 120.463C432.776 118.833 431.548 117.203 430.323 115.572C430.247 115.472 430.188 115.406 430.163 115.373V115.364C429.598 114.624 429.041 113.884 428.485 113.143C426.808 110.922 425.155 107.662 427.086 105.657C427.498 105.267 427.997 104.978 428.544 104.815C429.09 104.651 429.668 104.618 430.23 104.717C430.835 104.795 431.421 104.981 431.958 105.266C433.433 106.208 434.684 107.454 435.625 108.918C436.94 107.029 439.495 106.331 441.804 106.638C441.931 106.647 442.049 106.663 442.167 106.68C444.569 107.088 445.606 105.807 447.689 107.063C448.658 107.645 449.248 110.64 450.218 111.222C450.765 111.555 452.797 112.054 453.353 112.395C454.449 113.06 454.171 115.547 455.276 116.213C456.093 116.704 458.285 115.381 459.103 115.872C459.963 116.396 461.16 119.856 462.019 120.372C463.731 121.412 465.105 119.515 466.816 120.547C469.016 121.886 471.36 123.375 472.287 125.754C473.105 127.85 472.051 130.72 470.019 131.319C470.99 131.433 471.877 131.915 472.494 132.664C473.111 133.412 473.408 134.367 473.324 135.328V135.328Z" fill="#E6E6E6"/>
<path opacity="0.2" d="M458.041 137.757L457.83 139.803C455.441 139.576 453.09 139.054 450.833 138.248C447.862 137.264 445.285 135.373 443.474 132.849C442.327 131.152 441.13 129.464 439.933 127.833C437.943 125.105 435.971 122.56 434.335 120.488C432.338 117.985 430.837 116.171 430.323 115.572C430.247 115.472 430.188 115.406 430.163 115.373L430.137 115.348L430.163 115.364C440.179 127.874 449.64 135.087 458.327 134.912C458.327 134.912 459.347 138.223 458.041 137.757Z" fill="black"/>
<path d="M366.377 37.5819C366.13 38.5224 366.096 39.5047 366.275 40.4598C366.455 41.4149 366.845 42.3195 367.417 43.1099C367.989 43.9004 368.73 44.5574 369.588 45.0346C370.445 45.5119 371.398 45.7979 372.38 45.8724L383.586 86.4358L391.884 77.297L379.712 39.2853C379.73 37.6499 379.139 36.0649 378.051 34.8307C376.964 33.5966 375.455 32.7989 373.812 32.589C372.168 32.379 370.503 32.7713 369.133 33.6916C367.763 34.6118 366.782 35.996 366.377 37.5819Z" fill="#FFB8B8"/>
<path d="M432.169 141.309L432.093 137.615L425.029 124.398L424.767 123.915L424.751 123.89L419.33 113.759L393.174 64.8257L390.365 63.8076L390.505 59.8328L390.365 55.4893L386.99 53.2568L385.551 50.5649L383.511 51.1389H383.503L383.444 51.1555L374.525 53.626H374.517L372.662 54.6575L370.976 59.6485L370.607 62.0113L370.976 66.303L375.191 67.1349L373.795 71.5356L378.032 84.1956C383.334 106.322 390.576 125.421 403.077 136.326L404.106 137.99L412.241 151.124C413.351 152.921 414.975 154.353 416.909 155.24C418.843 156.126 420.999 156.428 423.107 156.107H423.115C424.546 155.888 425.917 155.384 427.145 154.626C428.277 153.937 429.267 153.042 430.062 151.989C431.514 150.086 432.282 147.759 432.245 145.376L432.169 141.309Z" fill="#E6E6E6"/>
<path d="M579.956 460.745L350.873 461C350.606 461 350.351 460.896 350.163 460.71C349.975 460.524 349.869 460.272 349.869 460.01C349.869 459.747 349.975 459.495 350.163 459.309C350.351 459.124 350.606 459.019 350.873 459.019L579.956 458.764C580.223 458.764 580.478 458.868 580.666 459.054C580.854 459.24 580.96 459.491 580.96 459.754C580.96 460.017 580.854 460.269 580.666 460.455C580.478 460.64 580.223 460.745 579.956 460.745V460.745Z" fill="#CACACA"/>
<path d="M70.4983 127.858C70.4843 115.354 75.3256 103.32 84.027 94.2304L54.1653 53.6745C52.9361 52.0037 51.3564 50.6139 49.5338 49.5997C47.7113 48.5855 45.6886 47.9708 43.6036 47.7974C41.5186 47.6239 39.4202 47.8959 37.4513 48.5948C35.4824 49.2937 33.6892 50.403 32.1939 51.8472C21.9646 61.6868 13.8435 73.4545 8.31311 86.4515C2.78269 99.4485 -0.0443181 113.41 2.54098e-05 127.506C0.000108701 132.829 0.402287 138.145 1.2032 143.409C1.5174 145.49 2.2879 147.478 3.46098 149.236C4.63406 150.993 6.18148 152.476 7.99531 153.583C9.78868 154.678 11.8026 155.374 13.8966 155.622C15.9906 155.871 18.1143 155.665 20.1195 155.02L71.6817 138.488C70.897 134.998 70.5002 131.434 70.4983 127.858V127.858Z" fill="#F2F2F2"/>
<path d="M73.2405 143.928L19.6346 161.115C17.6507 161.748 15.8278 162.794 14.2895 164.183C12.7512 165.572 11.5334 167.27 10.7186 169.164C9.90379 171.058 9.51106 173.102 9.56701 175.159C9.62296 177.216 10.1263 179.236 11.0429 181.084C18.6768 196.366 29.9301 209.609 43.85 219.69C57.7699 229.771 73.9466 236.394 91.0104 238.999C93.0886 239.314 95.2113 239.182 97.2329 238.611C99.2544 238.041 101.127 237.046 102.722 235.694C104.315 234.346 105.594 232.674 106.47 230.792C107.346 228.911 107.8 226.864 107.799 224.793V175.389C99.8594 173.357 92.5512 169.422 86.5228 163.933C80.4943 158.445 75.9319 151.574 73.2405 143.928Z" fill="#E6E6E6"/>
<path d="M234.448 174.796C233.542 172.675 232.185 170.772 230.468 169.215C228.751 167.659 226.714 166.485 224.496 165.774L166.032 147.03C162.619 154.95 157.157 161.846 150.193 167.027C143.229 172.208 135.008 175.493 126.353 176.553V236.66C126.354 238.967 126.861 241.247 127.838 243.343C128.815 245.439 130.24 247.301 132.015 248.803C133.79 250.305 135.873 251.411 138.122 252.044C140.37 252.678 142.731 252.824 145.042 252.473C164.037 249.574 182.044 242.201 197.54 230.979C213.035 219.757 225.563 205.016 234.061 188.004C235.082 185.959 235.646 183.72 235.713 181.441C235.779 179.162 235.348 176.896 234.448 174.796Z" fill="#3F3D56"/>
<path d="M219.922 36.9274C218.258 35.3196 216.262 34.0847 214.07 33.3066C211.878 32.5286 209.542 32.2258 207.221 32.4188C204.9 32.6118 202.649 33.2962 200.62 34.4252C198.591 35.5543 196.832 37.1015 195.464 38.9615L155.493 93.2473C160.092 97.7957 163.737 103.193 166.221 109.132C168.705 115.07 169.98 121.434 169.972 127.858C169.972 129.054 169.913 130.234 169.828 131.408L233.364 151.779C235.61 152.494 237.988 152.718 240.331 152.434C242.674 152.15 244.926 151.366 246.931 150.136C248.935 148.905 250.644 147.258 251.937 145.31C253.231 143.361 254.079 141.158 254.421 138.853C255.313 132.993 255.76 127.075 255.76 121.149C255.81 105.458 252.663 89.9164 246.506 75.4484C240.35 60.9803 231.309 47.8807 219.922 36.9274V36.9274Z" fill="#DA251D"/>
<path d="M120.235 78.7807C128.792 78.7711 137.206 80.9511 144.654 85.1079L169.05 51.9742C170.294 50.2868 171.151 48.3532 171.564 46.3069C171.977 44.2606 171.935 42.1502 171.44 40.1216C170.962 38.1316 170.052 36.2678 168.772 34.6587C167.493 33.0497 165.875 31.7338 164.03 30.8018C148.967 23.243 132.313 19.2915 115.415 19.2672C98.5165 19.2429 81.8502 23.1466 66.7658 30.662C64.8635 31.6091 63.1927 32.953 61.869 34.6006C60.5453 36.2481 59.6004 38.16 59.0998 40.2036C58.6062 42.2181 58.5623 44.3144 58.9713 46.3473C59.3802 48.3802 60.2323 50.301 61.4683 51.9767L89.1439 89.5643C97.9556 82.572 108.927 78.7665 120.235 78.7807V78.7807Z" fill="#E6E6E6"/>
</g>
<defs>
<clipPath id="clip0_96_249">
<rect width="580.96" height="461" fill="white"/>
</clipPath>
</defs>
</svg>
