<?xml version="1.0" encoding="utf-8"?>
<!-- Generator: Adobe Illustrator 26.0.1, SVG Export Plug-In . SVG Version: 6.00 Build 0)  -->
<svg version="1.1" xmlns="http://www.w3.org/2000/svg" xmlns:xlink="http://www.w3.org/1999/xlink" x="0px" y="0px"
	 viewBox="0 0 500 500" style="enable-background:new 0 0 500 500;" xml:space="preserve">
<style type="text/css">
	.st0{fill:#EBEBEB;}
	.st1{fill:#FAFAFA;}
	.st2{fill:#E0E0E0;}
	.st3{fill:#F0F0F0;}
	.st4{opacity:0.1;fill:#FFFFFF;}
	.st5{opacity:0.3;}
	.st6{fill:#FFFFFF;}
	.st7{fill:#E6E6E6;}
	.st8{fill:#F5F5F5;}
	.st9{opacity:0.8;fill:#FFFFFF;}
	.st10{display:none;}
	.st11{display:inline;}
	.st12{fill:#407BFF;}
	.st13{opacity:0.9;fill:#FFFFFF;}
	.st14{opacity:0.1;}
	.st15{opacity:0.7;fill:#FFFFFF;}
	.st16{opacity:0.5;fill:#FFFFFF;}
	.st17{fill:#263238;}
	.st18{fill:#FFC3BD;}
	.st19{opacity:0.2;enable-background:new    ;}
	.st20{opacity:0.2;}
	.st21{opacity:0.6;}
	.st22{opacity:0.5;}
	.st23{opacity:0.3;enable-background:new    ;}
	.st24{fill:#ED847E;}
	.st25{fill:#2E353A;}
	.st26{fill:#DE5753;}
	.st27{opacity:0.8;}
	.st28{fill:none;stroke:#407BFF;stroke-miterlimit:10;}
	.st29{fill:#E8BFBF;}
	.st30{opacity:0.3;fill:#FFFFFF;}
	.st31{opacity:0.2;fill:#FFFFFF;}
	.st32{opacity:0.6;fill:#FFFFFF;}
</style>
<g id="Background_Complete">
	<rect x="416.78" y="398.49" class="st0" width="33.12" height="0.25"/>
	<rect x="322.53" y="401.21" class="st0" width="8.69" height="0.25"/>
	<rect x="396.59" y="389.21" class="st0" width="19.19" height="0.25"/>
	<rect x="52.46" y="390.89" class="st0" width="43.19" height="0.25"/>
	<rect x="104.56" y="390.89" class="st0" width="6.33" height="0.25"/>
	<rect x="131.47" y="395.11" class="st0" width="93.68" height="0.25"/>
	<path class="st0" d="M237.01,337.8H43.92c-3.15,0-5.71-2.56-5.71-5.71V60.66c0-3.15,2.56-5.71,5.71-5.71h193.1
		c3.15,0,5.71,2.56,5.71,5.71v271.43C242.72,335.24,240.16,337.8,237.01,337.8z M43.92,55.2c-3.01,0-5.46,2.45-5.46,5.46v271.43
		c0,3.01,2.45,5.46,5.46,5.46h193.1c3.01,0,5.46-2.45,5.46-5.46V60.66c0-3.01-2.45-5.46-5.46-5.46H43.92z"/>
	<path class="st0" d="M453.31,337.8h-193.1c-3.15,0-5.71-2.56-5.71-5.71V60.66c0-3.15,2.56-5.71,5.71-5.71h193.1
		c3.15,0,5.71,2.56,5.71,5.71v271.43C459.02,335.24,456.46,337.8,453.31,337.8z M260.21,55.2c-3.01,0-5.46,2.45-5.46,5.46v271.43
		c0,3.01,2.45,5.46,5.46,5.46h193.1c3.01,0,5.46-2.45,5.46-5.46V60.66c0-3.01-2.45-5.46-5.46-5.46H260.21z"/>
	<rect y="382.4" class="st0" width="500" height="0.25"/>
	<g>
		<g>
			<g>
				<rect x="384.41" y="71.37" class="st1" width="71.25" height="241.71"/>
				<g>
					<rect x="368.39" y="156.93" class="st2" width="89.08" height="154.04"/>
					<polygon class="st2" points="385.5,135.41 385.5,174.04 392.53,174.04 433.34,174.04 440.37,174.04 440.37,135.41 					"/>
					<rect x="374.1" y="162.64" class="st1" width="11.4" height="11.4"/>
					<rect x="396.19" y="162.64" class="st1" width="11.4" height="11.4"/>
					<rect x="418.28" y="162.64" class="st1" width="11.4" height="11.4"/>
					<rect x="440.37" y="162.64" class="st3" width="11.41" height="11.4"/>
					<rect x="374.1" y="183.36" class="st3" width="11.4" height="11.41"/>
					<rect x="396.19" y="183.36" class="st3" width="11.4" height="11.41"/>
					<rect x="418.28" y="183.36" class="st1" width="11.4" height="11.41"/>
					<rect x="440.37" y="183.36" class="st1" width="11.41" height="11.41"/>
					<rect x="374.1" y="204.08" class="st3" width="11.4" height="11.4"/>
					<rect x="396.19" y="204.08" class="st1" width="11.4" height="11.4"/>
					<rect x="418.28" y="204.08" class="st1" width="11.4" height="11.4"/>
					<rect x="396.19" y="144.72" class="st1" width="11.4" height="11.4"/>
					<rect x="418.28" y="144.72" class="st3" width="11.4" height="11.4"/>
					<rect x="440.37" y="204.08" class="st3" width="11.41" height="11.4"/>
					<rect x="374.1" y="224.8" class="st1" width="11.4" height="11.4"/>
					<rect x="396.19" y="224.8" class="st3" width="11.4" height="11.4"/>
					<rect x="418.28" y="224.8" class="st3" width="11.4" height="11.4"/>
					<rect x="440.37" y="224.8" class="st1" width="11.41" height="11.4"/>
					<rect x="374.1" y="245.53" class="st3" width="11.4" height="11.4"/>
					<rect x="396.19" y="245.53" class="st1" width="11.4" height="11.4"/>
					<rect x="418.28" y="245.53" class="st1" width="11.4" height="11.4"/>
					<rect x="440.37" y="245.53" class="st3" width="11.41" height="11.4"/>
					<rect x="374.1" y="266.25" class="st3" width="11.4" height="11.4"/>
					<rect x="396.19" y="266.25" class="st1" width="11.4" height="11.4"/>
					<rect x="418.28" y="266.25" class="st3" width="11.4" height="11.4"/>
					<rect x="440.37" y="266.25" class="st1" width="11.41" height="11.4"/>
					<rect x="374.1" y="286.97" class="st1" width="11.4" height="11.41"/>
					<rect x="396.19" y="286.97" class="st1" width="11.4" height="11.41"/>
					<rect x="418.28" y="286.97" class="st3" width="11.4" height="11.41"/>
					<rect x="440.37" y="286.97" class="st3" width="11.41" height="11.41"/>
				</g>
				<rect x="384.27" y="71.37" class="st4" width="71.25" height="241.71"/>
				<g class="st5">
					<polygon class="st6" points="448.55,71.37 425.83,71.37 400.98,313.08 423.7,313.08 					"/>
				</g>
				<rect x="383.81" y="68.31" class="st2" width="72.45" height="6.13"/>
				<rect x="383.81" y="310.97" class="st0" width="72.45" height="6.13"/>
				<g>
					<path class="st0" d="M459.07,322.33h-78.54v-260h78.54V322.33z M386.52,316.34h66.57V68.31h-66.57V316.34z"/>
				</g>
			</g>
			<g>
				<rect x="306.69" y="71.37" class="st1" width="71.25" height="241.71"/>
				<g>
					<rect x="311.62" y="237.04" class="st7" width="60.93" height="74.77"/>
					<polygon class="st7" points="367.25,245.33 353.07,245.33 349.17,245.33 345.27,245.33 345.27,253.13 349.17,253.13 
						353.07,253.13 367.25,253.13 					"/>
					<polygon class="st1" points="367.25,260.44 353.07,260.44 349.17,260.44 345.27,260.44 345.27,268.24 349.17,268.24 
						353.07,268.24 367.25,268.24 					"/>
					<polygon class="st7" points="367.25,275.55 353.07,275.55 349.17,275.55 345.27,275.55 345.27,283.35 349.17,283.35 
						353.07,283.35 367.25,283.35 					"/>
					<polygon class="st1" points="367.25,290.66 353.07,290.66 347.05,290.66 345.27,290.66 345.27,298.46 347.05,298.46 
						353.07,298.46 367.25,298.46 					"/>
					<polygon class="st1" points="338.9,245.33 324.73,245.33 320.83,245.33 316.93,245.33 316.93,253.13 320.83,253.13 
						324.73,253.13 338.9,253.13 					"/>
					<polygon class="st1" points="338.9,260.44 324.73,260.44 319.23,260.44 316.93,260.44 316.93,268.24 319.23,268.24 
						324.73,268.24 338.9,268.24 					"/>
					<polygon class="st7" points="338.9,275.55 324.73,275.55 320.83,275.55 316.93,275.55 316.93,283.35 320.83,283.35 
						324.73,283.35 338.9,283.35 					"/>
					<polygon class="st1" points="338.9,290.66 324.73,290.66 320.83,290.66 316.93,290.66 316.93,298.46 320.83,298.46 
						324.73,298.46 338.9,298.46 					"/>
				</g>
				<rect x="306.46" y="71.37" class="st4" width="71.25" height="241.71"/>
				<g class="st5">
					<polygon class="st6" points="370.83,71.37 348.12,71.37 323.26,313.08 345.98,313.08 					"/>
				</g>
				<rect x="306.09" y="68.31" class="st2" width="72.45" height="6.13"/>
				<rect x="306.09" y="310.97" class="st0" width="72.45" height="6.13"/>
				<g>
					<path class="st0" d="M381.36,322.33h-78.54v-260h78.54V322.33z M308.8,316.34h66.57V68.31H308.8V316.34z"/>
				</g>
			</g>
		</g>
		<g>
			<g>
				<rect x="120" y="71.37" class="st1" width="71.25" height="241.71"/>
				<rect x="119.86" y="71.37" class="st4" width="71.25" height="241.71"/>
				<g class="st5">
					<polygon class="st6" points="184.15,71.37 161.43,71.37 136.58,313.08 159.29,313.08 					"/>
				</g>
				<rect x="119.41" y="68.31" class="st2" width="72.45" height="6.13"/>
				<rect x="119.41" y="310.97" class="st0" width="72.45" height="6.13"/>
				<g>
					<path class="st0" d="M194.67,322.33h-78.54v-260h78.54V322.33z M122.12,316.34h66.57V68.31h-66.57V316.34z"/>
				</g>
			</g>
			<g>
				<rect x="42.39" y="71.37" class="st1" width="71.25" height="241.71"/>
				<g>
					<rect x="47.75" y="173.73" class="st7" width="55.15" height="46.28"/>
					<rect x="51.28" y="179.5" class="st1" width="7.06" height="7.06"/>
					<rect x="64.96" y="179.5" class="st1" width="7.06" height="7.06"/>
					<rect x="78.64" y="179.5" class="st1" width="7.06" height="7.06"/>
					<rect x="92.31" y="179.5" class="st1" width="7.06" height="7.06"/>
					<rect x="51.28" y="192.33" class="st1" width="7.06" height="7.06"/>
					<rect x="64.96" y="192.33" class="st1" width="7.06" height="7.06"/>
					<rect x="78.64" y="192.33" class="st1" width="7.06" height="7.06"/>
					<rect x="92.31" y="192.33" class="st7" width="7.06" height="7.06"/>
					<rect x="51.28" y="205.15" class="st7" width="7.06" height="7.06"/>
					<rect x="64.96" y="205.15" class="st7" width="7.06" height="7.06"/>
					<rect x="78.64" y="205.15" class="st1" width="7.06" height="7.06"/>
					<rect x="92.31" y="205.15" class="st7" width="7.06" height="7.06"/>
				</g>
				<g>
					<rect x="47.75" y="219.43" class="st7" width="55.15" height="46.28"/>
					<rect x="51.28" y="225.19" class="st1" width="7.06" height="7.06"/>
					<rect x="64.96" y="225.19" class="st1" width="7.06" height="7.06"/>
					<rect x="78.64" y="225.19" class="st1" width="7.06" height="7.06"/>
					<rect x="92.31" y="225.19" class="st1" width="7.06" height="7.06"/>
					<rect x="51.28" y="238.02" class="st1" width="7.06" height="7.06"/>
					<rect x="64.96" y="238.02" class="st1" width="7.06" height="7.06"/>
					<rect x="78.64" y="238.02" class="st1" width="7.06" height="7.06"/>
					<rect x="92.31" y="238.02" class="st7" width="7.06" height="7.06"/>
					<rect x="51.28" y="250.85" class="st7" width="7.06" height="7.06"/>
					<rect x="64.96" y="250.85" class="st7" width="7.06" height="7.06"/>
					<rect x="78.64" y="250.85" class="st1" width="7.06" height="7.06"/>
					<rect x="92.31" y="250.85" class="st7" width="7.06" height="7.06"/>
				</g>
				<g>
					<rect x="47.75" y="265.12" class="st7" width="55.15" height="46.28"/>
					<rect x="51.28" y="270.89" class="st1" width="7.06" height="7.06"/>
					<rect x="64.96" y="270.89" class="st1" width="7.06" height="7.06"/>
					<rect x="78.64" y="270.89" class="st1" width="7.06" height="7.06"/>
					<rect x="92.31" y="270.89" class="st1" width="7.06" height="7.06"/>
					<rect x="51.28" y="283.72" class="st1" width="7.06" height="7.06"/>
					<rect x="64.96" y="283.72" class="st1" width="7.06" height="7.06"/>
					<rect x="78.64" y="283.72" class="st1" width="7.06" height="7.06"/>
					<rect x="92.31" y="283.72" class="st7" width="7.06" height="7.06"/>
					<rect x="51.28" y="296.55" class="st7" width="7.06" height="7.06"/>
					<rect x="64.96" y="296.55" class="st7" width="7.06" height="7.06"/>
					<rect x="78.64" y="296.55" class="st1" width="7.06" height="7.06"/>
					<rect x="92.31" y="296.55" class="st7" width="7.06" height="7.06"/>
				</g>
				<rect x="41.45" y="71.37" class="st4" width="71.25" height="241.71"/>
				<g class="st5">
					<polygon class="st6" points="106.54,71.37 83.82,71.37 58.97,313.08 81.68,313.08 					"/>
				</g>
				<rect x="41.8" y="68.31" class="st2" width="72.45" height="6.13"/>
				<rect x="41.8" y="310.97" class="st0" width="72.45" height="6.13"/>
				<g>
					<path class="st0" d="M117.06,322.33H38.52v-260h78.54V322.33z M44.51,316.34h66.57V68.31H44.51V316.34z"/>
				</g>
			</g>
		</g>
	</g>
	<g>
		<g>
			<g>
				<g>
					<g>
						<path class="st2" d="M243.52,354.61l-0.8,0.1c-0.05-0.41-4.91-41.09,5.12-74.33c9.97-33.04,3.1-54.1,3.03-54.3l0.77-0.26
							c0.07,0.21,7.01,21.51-3.03,54.8C238.63,313.69,243.47,354.21,243.52,354.61z"/>
					</g>
					<g>
						<g>
							<path class="st2" d="M252.3,230.61c-1.73-2.07-4.13-3.55-6.76-4.16l0.18-0.79c2.8,0.66,5.35,2.23,7.19,4.43L252.3,230.61z"/>
						</g>
					</g>
					<g>
						
							<rect x="253.45" y="234.58" transform="matrix(0.8706 -0.4919 0.4919 0.8706 -82.64 155.7358)" class="st2" width="2.65" height="0.81"/>
					</g>
					<g>
						<path class="st2" d="M251.43,252.73c-1.99-4.55-5.77-8.22-10.38-10.07l0.3-0.75c4.81,1.93,8.75,5.75,10.82,10.5L251.43,252.73
							z"/>
					</g>
					<g>
						<path class="st2" d="M249.27,278.14l-0.81,0.01c-0.04-3.28-1.6-6.46-4.18-8.49l0.5-0.63
							C247.55,271.21,249.22,274.62,249.27,278.14z"/>
					</g>
					<g>
						<path class="st2" d="M247.47,284.64l-0.75-0.3c0.81-2.06,2.53-3.75,4.59-4.53l0.29,0.76
							C249.74,281.27,248.19,282.79,247.47,284.64z"/>
					</g>
					<g>
						<path class="st2" d="M242.23,325.87l-0.62-0.52c0.98-1.18,1.72-5.69,2.12-8.12c0.1-0.58,0.18-1.07,0.24-1.43l0.79,0.15
							c-0.07,0.35-0.15,0.84-0.24,1.41C243.94,320.99,243.27,324.62,242.23,325.87z"/>
					</g>
					<g>
						<path class="st2" d="M241.77,338.82c-1.04-3.19-4.36-5.48-7.71-5.32l-0.04-0.81c3.7-0.17,7.36,2.35,8.51,5.87L241.77,338.82z"
							/>
					</g>
					<g>
						
							<rect x="241.13" y="350.3" transform="matrix(0.6663 -0.7456 0.7456 0.6663 -179.6215 299.9931)" class="st2" width="8.54" height="0.81"/>
					</g>
				</g>
				<g>
					<path class="st3" d="M251.96,305.75c1.29,4.17-7.7,12.12-7.7,12.12s-11.91-1.49-13.19-5.66c-1.29-4.17,1.73-11,7.5-12.78
						C244.33,297.64,250.67,301.58,251.96,305.75z"/>
					<path class="st0" d="M261.94,255.11c-1.14,4.43-9.66,7.58-9.66,7.58s-5.94-6.87-4.8-11.3c1.14-4.43,5.85-9.32,9.84-8.29
						C261.31,244.13,263.08,250.68,261.94,255.11z"/>
					<path class="st8" d="M227.77,321.33c5.35,2.08,8.62,11.54,8.62,11.54s-8.81,4.75-14.16,2.67c-5.35-2.08-11.01-7.95-9.48-11.87
						C214.28,319.75,222.42,319.25,227.77,321.33z"/>
					<path class="st7" d="M239.49,269.3c1.13,0.84,2.3,1.7,3.65,2.06c1.36,0.37,2.97,0.14,3.9-0.92c1.14-1.32,0.84-3.36,0.12-4.95
						c-1.43-3.15-6.7-8.49-10.75-6.96C230.57,260.75,236.88,267.37,239.49,269.3z"/>
					<path class="st0" d="M251.45,277.33c-0.77,0.95-1.58,2.15-1.16,3.29c0.37,1.02,1.62,1.48,2.69,1.32c1.07-0.16,2-0.8,2.89-1.41
						c2.06-1.43,6.29-4.44,3.59-7.25C256.66,270.36,253.06,275.32,251.45,277.33z"/>
					<path class="st2" d="M234.19,237.33c-0.88,0.1-1.78,0.69-1.93,1.56c-0.18,1.02,0.67,1.92,1.49,2.55
						c2.05,1.58,8.2,5.84,9.58,1.73C244.64,239.29,236.91,237.03,234.19,237.33z"/>
					<g>
						<path class="st7" d="M245.54,223.81c-1.27,0.12-2.54-0.34-3.81-0.26c-1.27,0.08-2.69,1.1-2.4,2.35
							c0.26,1.15,1.69,1.53,2.87,1.61c2.01,0.13,4.03-0.01,6-0.41c0.46-0.09,0.96-0.23,1.22-0.62c0.51-0.76-0.3-1.77-1.18-2.04
							c-0.88-0.27-1.86-0.18-2.66-0.63L245.54,223.81z"/>
					</g>
					<g>
						<path class="st3" d="M257.95,232.55c1.28,0.04,2.51-0.51,3.78-0.51c1.28,0,2.75,0.93,2.55,2.19
							c-0.18,1.16-1.59,1.64-2.76,1.79c-1.99,0.26-4.02,0.25-6.02-0.02c-0.46-0.06-0.97-0.17-1.26-0.53
							c-0.56-0.72,0.19-1.79,1.04-2.12c0.86-0.33,1.85-0.3,2.61-0.81L257.95,232.55z"/>
					</g>
					<g>
						<path class="st3" d="M256.7,326.51c0.31-0.27,0.67-0.54,1.08-0.54c0.55,0,0.98,0.52,1.08,1.06c0.1,0.54-0.05,1.09-0.21,1.61
							c-0.86,2.89-10.57,23.84-12.8,20.08c-1.32-2.22,1.92-9.59,2.88-11.67C250.59,333.01,253.3,329.37,256.7,326.51z"/>
					</g>
				</g>
			</g>
			<g>
				<path class="st7" d="M250.89,224.6c0.77-1.73,1.6-3.54,3.13-4.65c1.53-1.11,3.98-1.2,5.1,0.33c1.25,1.71,0,4.31-1.91,5.22
					c-1.91,0.91-4.15,0.64-6.24,0.34c-0.02-0.31-0.03-0.62-0.05-0.93L250.89,224.6z"/>
			</g>
		</g>
		<g>
			<path class="st3" d="M257.67,382.55L257.67,382.55c-10.32,1.76-21.08,1.76-31.4,0l0,0l-12.21-36.04h55.83L257.67,382.55z"/>
		</g>
	</g>
	<g>
		<g>
			<circle class="st2" cx="250.59" cy="92.25" r="20.73"/>
			
				<ellipse transform="matrix(0.1602 -0.9871 0.9871 0.1602 119.0752 322.7193)" class="st0" cx="249.19" cy="91.38" rx="20.73" ry="20.73"/>
			<path class="st9" d="M265.83,91.52c0,9.19-7.45,16.64-16.64,16.64c-9.19,0-16.64-7.45-16.64-16.64c0-9.19,7.45-16.64,16.64-16.64
				C258.38,74.88,265.83,82.33,265.83,91.52z"/>
		</g>
		<g>
			<g>
				<path class="st2" d="M248.29,93.09c-0.66-0.66-0.66-1.73,0-2.39c0.66-0.66,1.73-0.66,2.39,0c0.66,0.66,0.66,1.73,0,2.39
					C250.02,93.75,248.95,93.75,248.29,93.09z"/>
			</g>
			<g>
				<polygon class="st2" points="249.18,91.32 259.01,91.02 259.04,92.04 250.14,92.31 249.18,107.79 248.17,107.73 				"/>
			</g>
		</g>
	</g>
</g>
<g id="Background_Simple" class="st10">
	<g class="st11">
		<path class="st12" d="M138.1,117.91c-21.88,21.07-36.41,48.83-45.71,77.74c-6.32,19.64-10.37,40.93-4.85,60.81
			s22.89,37.63,43.52,37.84c15.76,0.16,30.23-9.72,39.84-22.21c9.61-12.5,15.27-27.49,21.3-42.06
			c6.03-14.57,12.79-29.29,24.01-40.37c11.36-11.23,26.57-17.91,42.1-21.65c10.91-2.62,23.57-3.53,32.22,3.61
			c10.66,8.8,9.89,26.1,2.75,37.94c-10.73,17.78-31.29,26.53-47.94,38.92c-30.43,22.65-48.95,60.47-48.17,98.4
			c0.24,11.92,3.11,25.15,12.98,31.83c10.31,6.97,24.74,3.99,34.97-3.09c10.23-7.08,17.55-17.51,25.89-26.75
			c23.05-25.54,54.09-42.15,81.87-62.44c27.78-20.29,54-47.11,59.48-81.07c4.61-28.57-6.83-58.38-26.66-79.46
			c-19.83-21.08-47.23-33.98-75.52-40.07C254.76,73.89,181.06,76.54,138.1,117.91z"/>
		<path class="st13" d="M138.1,117.91c-21.88,21.07-36.41,48.83-45.71,77.74c-6.32,19.64-10.37,40.93-4.85,60.81
			s22.89,37.63,43.52,37.84c15.76,0.16,30.23-9.72,39.84-22.21c9.61-12.5,15.27-27.49,21.3-42.06
			c6.03-14.57,12.79-29.29,24.01-40.37c11.36-11.23,26.57-17.91,42.1-21.65c10.91-2.62,23.57-3.53,32.22,3.61
			c10.66,8.8,9.89,26.1,2.75,37.94c-10.73,17.78-31.29,26.53-47.94,38.92c-30.43,22.65-48.95,60.47-48.17,98.4
			c0.24,11.92,3.11,25.15,12.98,31.83c10.31,6.97,24.74,3.99,34.97-3.09c10.23-7.08,17.55-17.51,25.89-26.75
			c23.05-25.54,54.09-42.15,81.87-62.44c27.78-20.29,54-47.11,59.48-81.07c4.61-28.57-6.83-58.38-26.66-79.46
			c-19.83-21.08-47.23-33.98-75.52-40.07C254.76,73.89,181.06,76.54,138.1,117.91z"/>
	</g>
</g>
<g id="Shadow">
	<ellipse id="_x3C_Path_x3E__359_" class="st8" cx="250" cy="415.69" rx="193.89" ry="11.32"/>
</g>
<g id="Character_2">
	<g>
		<g>
			<g>
				<path class="st12" d="M430.35,362.91l5.08-80.86c1.89-30.03-21.96-55.43-52.05-55.43h0c-27.67,0-50.52,21.6-52.07,49.22
					l-5.33,94.44h96.52C426.65,370.28,430.09,367.05,430.35,362.91z"/>
				<path class="st14" d="M430.53,359.98l4.89-77.93c1.89-30.03-21.96-55.43-52.05-55.43h0c-27.67,0-50.52,21.6-52.07,49.22
					l-5.33,94.44h93.59C425.37,370.28,430.17,365.77,430.53,359.98z"/>
			</g>
			<path class="st12" d="M414.69,370.28l5.54-88.23c1.89-30.03-21.96-55.43-52.05-55.43h0c-27.67,0-50.52,21.6-52.07,49.22
				l-5.33,94.44H414.69z"/>
		</g>
		<g>
			<path class="st12" d="M416.35,385.47l1.33,0c0.68,0,1.31-0.57,1.42-1.36l1.97-13.83h-8.11l1.97,13.83
				C415.03,384.9,415.67,385.47,416.35,385.47z"/>
			<path class="st15" d="M416.35,385.47l1.33,0c0.68,0,1.31-0.57,1.42-1.36l1.97-13.83h-8.11l1.97,13.83
				C415.03,384.9,415.67,385.47,416.35,385.47z"/>
		</g>
		<g>
			<path class="st12" d="M285.7,385.47l1.21,0c0.62,0,1.19-0.57,1.29-1.36l1.78-13.83h-7.35l1.78,13.83
				C284.51,384.9,285.08,385.47,285.7,385.47z"/>
			<path class="st16" d="M285.7,385.47l1.21,0c0.62,0,1.19-0.57,1.29-1.36l1.78-13.83h-7.35l1.78,13.83
				C284.51,384.9,285.08,385.47,285.7,385.47z"/>
		</g>
		<g>
			<path class="st12" d="M323.31,385.47l1.21,0c0.62,0,1.19-0.57,1.29-1.36l1.78-13.83h-7.35l1.78,13.83
				C322.12,384.9,322.7,385.47,323.31,385.47z"/>
			<path class="st15" d="M323.31,385.47l1.21,0c0.62,0,1.19-0.57,1.29-1.36l1.78-13.83h-7.35l1.78,13.83
				C322.12,384.9,322.7,385.47,323.31,385.47z"/>
		</g>
		<g>
			<path class="st12" d="M375.85,385.47l1.33,0c0.68,0,1.31-0.57,1.42-1.36l1.97-13.83h-8.11l1.97,13.83
				C374.54,384.9,375.17,385.47,375.85,385.47z"/>
			<path class="st16" d="M375.85,385.47l1.33,0c0.68,0,1.31-0.57,1.42-1.36l1.97-13.83h-8.11l1.97,13.83
				C374.54,384.9,375.17,385.47,375.85,385.47z"/>
		</g>
		<g>
			<g>
				<path class="st12" d="M331.82,336.96h-35.56l-2.36-34.28l-0.5-7.36v-0.01l-0.23-3.39c-0.07-0.91-0.18-1.79-0.35-2.65
					c-0.04-0.19-0.09-0.39-0.13-0.59c-0.02-0.15-0.06-0.29-0.11-0.43c-1.01-3.6-2.91-6.77-5.42-9.2c-3-2.91-6.85-4.75-11.1-5.01
					h33.44c0.37-0.02,0.73-0.03,1.1-0.03c4.64,0,8.88,1.91,12.12,5.04c2.51,2.43,4.4,5.6,5.42,9.2c0.05,0.14,0.09,0.28,0.11,0.43
					c0.23,1.04,0.4,2.12,0.47,3.24l0.23,3.39v0.01L331.82,336.96z"/>
				<path class="st14" d="M331.82,336.96h-35.56l-2.36-34.28l-0.5-7.36v-0.01l-0.23-3.39c-0.07-0.91-0.18-1.79-0.35-2.65
					c-0.04-0.19-0.09-0.39-0.13-0.59c-0.02-0.15-0.06-0.29-0.11-0.43c-1.01-3.6-2.91-6.77-5.42-9.2c-3-2.91-6.85-4.75-11.1-5.01
					h33.44c0.37-0.02,0.73-0.03,1.1-0.03c4.64,0,8.88,1.91,12.12,5.04c2.51,2.43,4.4,5.6,5.42,9.2c0.05,0.14,0.09,0.28,0.11,0.43
					c0.23,1.04,0.4,2.12,0.47,3.24l0.23,3.39v0.01L331.82,336.96z"/>
			</g>
		</g>
		<g class="st14">
			<path d="M360,318.7h14.28c3.47,0,6.29,2.2,6.29,4.91v8.45c0,2.71-2.81,4.91-6.29,4.91H360V318.7z"/>
		</g>
		<g>
			<path class="st12" d="M301.69,336.96h62.89c3,0,5.42-2.43,5.42-5.42v-7.42c0-3-2.43-5.42-5.42-5.42h-62.89
				c-3,0-5.42,2.43-5.42,5.42v7.42C296.26,334.54,298.69,336.96,301.69,336.96z"/>
		</g>
		<path class="st12" d="M450.03,294.27c0,10.01-7.26,18.34-16.81,19.97l-3.68,48.72c-0.32,4.14-3.32,7.32-6.92,7.32h-39.22
			c3.6,0,6.6-3.17,6.92-7.32l1.97-26.01l1.71-22.72c6.35-1.09,11.68-5.12,14.54-10.66c0.19-0.35,0.36-0.72,0.52-1.1
			c1.13-2.51,1.75-5.28,1.75-8.21c0-1.42-0.15-2.8-0.43-4.13c-0.11-0.54-0.24-1.09-0.39-1.61c-0.72-2.42-1.87-4.64-3.37-6.59
			l-0.01-0.01c-1.86-2.43-4.26-4.4-7.01-5.77c-2.73-1.37-5.8-2.14-9.05-2.14h39.22c2.08,0,4.09,0.32,5.99,0.91
			c1.07,0.33,2.09,0.75,3.07,1.24c2.75,1.37,5.14,3.34,7.01,5.77l0.01,0.01C448.46,285.36,450.03,289.63,450.03,294.27z"/>
		<path class="st14" d="M450.03,294.27c0,10.01-7.26,18.34-16.81,19.97l-3.68,48.72c-0.32,4.14-3.32,7.32-6.92,7.32h-39.22
			c3.6,0,6.6-3.17,6.92-7.32l1.97-26.01l1.71-22.72c6.35-1.09,11.68-5.12,14.54-10.66c0.19-0.35,0.36-0.72,0.52-1.1
			c1.13-2.51,1.75-5.28,1.75-8.21c0-1.42-0.15-2.8-0.43-4.13c-0.11-0.54-0.24-1.09-0.39-1.61c-0.72-2.42-1.87-4.64-3.37-6.59
			l-0.01-0.01c-1.86-2.43-4.26-4.4-7.01-5.77c-2.73-1.37-5.8-2.14-9.05-2.14h39.22c2.08,0,4.09,0.32,5.99,0.91
			c1.07,0.33,2.09,0.75,3.07,1.24c2.75,1.37,5.14,3.34,7.01,5.77l0.01,0.01C448.46,285.36,450.03,289.63,450.03,294.27z"/>
		<path class="st12" d="M410.81,294.28c0,10.01-6.59,18.34-15.24,19.96l-3.34,48.72c-0.29,4.15-3.01,7.32-6.28,7.32H281.21
			c-3.26,0-5.98-3.18-6.28-7.32l-3.35-48.8c-8.48-1.78-14.89-10.01-14.89-19.89c0-4.37,1.26-8.41,3.38-11.71
			c1.74-2.7,4.07-4.92,6.78-6.41c2.47-1.38,5.26-2.15,8.21-2.15c4.64,0,8.88,1.91,12.12,5.04c2.51,2.42,4.4,5.6,5.42,9.2
			c0.04,0.14,0.09,0.28,0.1,0.43c0.24,1.04,0.39,2.12,0.47,3.23l0.24,3.39v0.01l2.85,41.64h74.64l3.09-45.04
			c0.44-6.36,3.54-11.66,7.84-14.17c2.71-2.14,5.98-3.46,9.51-3.69c0.37-0.04,0.73-0.05,1.1-0.05c2.86,0,5.57,0.72,7.98,2.03
			c0.08,0.03,0.15,0.08,0.23,0.12c2.49,1.38,4.67,3.35,6.36,5.77l0.01,0.01C409.38,285.36,410.81,289.63,410.81,294.28z"/>
		<g>
			<path class="st4" d="M369.17,370.29h-87.96c-3.26,0-5.98-3.18-6.28-7.32l-3.35-48.8c-8.48-1.78-14.89-10.01-14.89-19.89
				c0-4.37,1.26-8.41,3.38-11.71c1.74-2.7,4.07-4.92,6.78-6.41c2.47-1.38,5.26-2.15,8.21-2.15c4.64,0,8.88,1.91,12.12,5.04
				c2.51,2.42,4.4,5.6,5.42,9.2c0.04,0.14,0.09,0.28,0.1,0.43c0.24,1.04,0.39,2.12,0.47,3.23l0.24,3.39v0.01l2.85,41.64h74.64
				L369.17,370.29z"/>
		</g>
		<g>
			<g>
				<g>
					<path class="st17" d="M357.76,231.72c-1.74,0.96-3.33,1.83-4.97,2.67c-1.64,0.84-3.31,1.64-4.97,2.41
						c-3.36,1.54-6.76,2.99-10.27,4.27c-3.53,1.32-7.12,2.45-10.76,3.41c-3.79,1.02-7.65,1.71-11.56,2.07l-0.82,0.08l-0.4-0.03
						c-3.53-0.41-6.66-1.05-9.8-1.7c-3.14-0.65-6.25-1.39-9.33-2.17c-3.08-0.78-6.14-1.6-9.19-2.48c-3.05-0.88-6.1-1.79-9.12-2.82
						l1.39-6.94c6.29,0.41,12.57,1.04,18.79,1.65l9.29,0.93c3.06,0.29,6.19,0.56,8.93,0.66l-1.21,0.03
						c3.14-0.56,6.23-1.34,9.26-2.34c3.14-1.03,6.27-2.14,9.39-3.49c3.12-1.35,6.23-2.72,9.32-4.18c1.57-0.72,3.11-1.49,4.61-2.23
						c1.5-0.75,3.1-1.54,4.47-2.26L357.76,231.72z"/>
					<path class="st14" d="M357.76,231.72c-1.74,0.96-3.33,1.83-4.97,2.67c-1.64,0.84-3.31,1.64-4.97,2.41
						c-3.36,1.54-6.76,2.99-10.27,4.27c-3.53,1.32-7.12,2.45-10.76,3.41c-3.79,1.02-7.65,1.71-11.56,2.07l-0.82,0.08l-0.4-0.03
						c-3.53-0.41-6.66-1.05-9.8-1.7c-3.14-0.65-6.25-1.39-9.33-2.17c-3.08-0.78-6.14-1.6-9.19-2.48c-3.05-0.88-6.1-1.79-9.12-2.82
						l1.39-6.94c6.29,0.41,12.57,1.04,18.79,1.65l9.29,0.93c3.06,0.29,6.19,0.56,8.93,0.66l-1.21,0.03
						c3.14-0.56,6.23-1.34,9.26-2.34c3.14-1.03,6.27-2.14,9.39-3.49c3.12-1.35,6.23-2.72,9.32-4.18c1.57-0.72,3.11-1.49,4.61-2.23
						c1.5-0.75,3.1-1.54,4.47-2.26L357.76,231.72z"/>
				</g>
				<path class="st18" d="M276.63,226.7c-2.34-1.68-4.84-2.36-4.84-2.36l-2.59,10.11l7.76,3.26l0.88-1.08
					C280.33,233.58,279.83,229,276.63,226.7z"/>
				<polygon class="st18" points="269.2,234.45 271.79,224.34 264.55,220.39 262.37,227.51 				"/>
				<path class="st19" d="M333.41,241.95l0.28-0.01l0.12,0.02c3.82-0.41,15.04-2.3,23.17-10.31c-1.22-2.34-2.88-4.15-4.91-4.56
					C346.48,226.07,339.62,230.08,333.41,241.95z"/>
				<path class="st12" d="M339.98,294.27c9.58-25.87,3.28-49.66,4.48-62.82c0.62-6.66,5.56-12.12,12.13-13.38
					c6.55-1.27,14.63-2.68,22.35-3.72c0.74-0.1,1.49-0.15,2.23-0.13c8.35,0.11,15.02,6.97,14.91,15.32
					c-0.68,39.03-13.18,64.74-13.18,64.74l-20.19-0.09L339.98,294.27z"/>
				<path class="st9" d="M339.98,294.27c9.58-25.87,3.28-49.66,4.48-62.82c0.62-6.66,5.56-12.12,12.13-13.38
					c6.55-1.27,14.63-2.68,22.35-3.72c0.74-0.1,1.49-0.15,2.23-0.13c8.35,0.11,15.02,6.97,14.91,15.32
					c-0.68,39.03-13.18,64.74-13.18,64.74l-20.19-0.09L339.98,294.27z"/>
				<g id="character-2--inject-102">
					<polygon class="st18" points="263.36,382.54 260.8,399.37 268.93,399.37 274.28,382.54 					"/>
					<path class="st17" d="M259.76,395.62l10.87-0.25c0.38-0.02,0.68,0.24,0.68,0.6l0.02,7.98c-0.05,0.87-0.85,1.6-1.79,1.63
						c-3.78,0.03-5.58-0.14-10.36-0.03c-5.12-0.02-10.2-0.35-15.21-1c-3.87-0.66-2.83-4.3-1.07-4.36
						c7.91-0.29,12.32-1.94,15.16-3.98C258.55,395.84,259.15,395.63,259.76,395.62z"/>
					<polygon class="st20" points="262.33,389.29 263.36,382.54 274.28,382.54 271.65,390.96 					"/>
					<g>
						<path class="st12" d="M334.97,288.21c0,0-66.15,0.66-67.17,21.61c-1.46,30.12-6.55,76.04-6.55,76.04l12.48,3.43
							c0,0,17.79-45.53,18.49-69.06c18.6-3.71,66.44,0,72.06-12.22c2.75-6.36,3.48-13.16,2.12-19.8H334.97z"/>
						<path class="st21" d="M334.97,288.21c0,0-66.15,0.66-67.17,21.61c-1.46,30.12-6.55,76.04-6.55,76.04l12.48,3.43
							c0,0,17.79-45.53,18.49-69.06c18.6-3.71,66.44,0,72.06-12.22c2.75-6.36,3.48-13.16,2.12-19.8H334.97z"/>
					</g>
					<polygon class="st18" points="321.56,389.05 325.97,400.47 334.89,400.47 331.82,388.46 					"/>
					<polygon class="st20" points="332.65,391.7 330.92,382.91 319.65,384.31 322.54,391.95 					"/>
					<path class="st17" d="M323.55,396.69h11.38c0.4-0.02,0.73,0.27,0.75,0.65c0,0,0,0.01,0,0.01l0.56,8.53
						c0,0.93-0.79,1.7-1.78,1.71c-3.96-0.06-5.86-0.29-10.87-0.29c-3.07,0-9.29,0.3-13.54,0.3c-4.26,0-4.13-3.98-2.33-4.31
						c8.09-1.62,11.22-3.85,14.08-5.99C322.3,396.92,322.92,396.7,323.55,396.69z"/>
					<path class="st12" d="M352.79,288.21c0,0-59.99,4.07-58.52,25.01c1.61,22.92,25.64,76.07,25.64,76.07h12.13
						c0,0-8.06-48.24-11.72-71.59c16.92,0,56.14,2.55,61.77-9.7c2.75-6.36,3.48-13.17,2.11-19.8L352.79,288.21z"/>
					<path class="st22" d="M352.79,288.21c0,0-59.99,4.07-58.52,25.01c1.61,22.92,25.64,76.07,25.64,76.07h12.13
						c0,0-8.06-48.24-11.72-71.59c16.92,0,56.14,2.55,61.77-9.7c2.75-6.36,3.48-13.17,2.11-19.8L352.79,288.21z"/>
				</g>
				<path class="st18" d="M361.88,203.42c1.38,5.34,1.82,11.98-5.64,14.75c-2.07,3.3-3.08,6.77,4.89,5.54
					c6.34-0.82,12.12-4.09,16.09-9.1c-4.77-4.17-3.9-16.99-2.69-24.22L361.88,203.42z"/>
				<g>
					<path class="st17" d="M361.03,213.14c-6.84,1.18-12.48,6.47-15.5,12.72c-3.02,6.25-3.75,13.37-3.69,20.32
						c0.06,6.94,0.85,13.88,0.67,20.82c-0.21,8.02-2.15,13.67-4.91,21.21c0,1.79,2.71,2.8,5.01,3.27
						c4.78-10.43,7.92-20.4,7.58-31.87c-0.24-8.32-0.36-17.8,1-26.01c1.34-8.09,11.17-18.91,10.7-20.39L361.03,213.14z"/>
				</g>
				<path class="st23" d="M367.7,207.34c-1.62,1.06-3.54,1.63-5.06,1.23c0.01-1.3-0.08-2.6-0.28-3.88l8.28-6.8
					c0.18,0.88,0.3,1.78,0.35,2.68C371.14,203.23,369.94,205.86,367.7,207.34z"/>
				<g>
					<g>
						<path class="st18" d="M355.32,171.84c-8.76,4.94-8.85,18.94-6.15,27.02c0.77,2.39,2.26,4.48,4.26,5.98
							c5.35,4.02,12.95,2.94,16.97-2.42c4.28-5.41,3.66-10.87,3.45-20.27C373.64,172.78,364.08,166.9,355.32,171.84z"/>
						<path class="st19" d="M358.14,196.98c-2.82,1.21-5.91,2.78-8.76,2.44c0.81,2.15,2.21,4.04,4.06,5.43
							c5.35,4.02,12.95,2.94,16.97-2.42c3.5-4.43,4.6-7.43,3.57-15.51C368.52,193.34,364.17,194.4,358.14,196.98z"/>
						<path class="st17" d="M366.6,174.96c-1.89,2.9-1.5,7.07,0.89,9.57c0.79,0.83,1.76,1.47,2.52,2.33
							c1.17,1.31,1.81,3.1,1.72,4.86c0.3-2.29,2.44-4.2,4.75-4.23c-1.19,3.67-2.37,7.33-3.56,11c4.71-2.13,8.13-6.86,8.69-12
							C382.36,179.42,373.6,164.21,366.6,174.96z"/>
						<path class="st17" d="M346.18,175.49c-0.63,0.77-1.22,1.62-1.39,2.6c-0.18,0.98,0.18,2.12,1.05,2.59
							c0.71,0.38,1.58,0.25,2.38,0.11c2.66-0.46,5.32-0.93,7.98-1.39c4.58-0.8,9.16-1.59,13.68-2.68c2.03-0.49,4.31-1.25,5.11-3.18
							c2.59-6.25-8.48-7.06-12.17-6.88C356.49,166.98,350.12,170.62,346.18,175.49z"/>
						<path class="st18" d="M375.28,185.92c-2.63,0.59-3.74,4.36-3.67,6.78c0.02,2.74,2.03,4.53,4.31,2.88
							c1.72-1.28,2.9-3.17,3.28-5.28C379.68,187.71,377.91,185.33,375.28,185.92z"/>
						<path class="st24" d="M356.77,195.47c0,0-1.5,0.98-2.72,0.41c1.01-2.26,0.88-1.75,1.19-5.6L356.77,195.47z"/>
						<path class="st17" d="M361.38,182.95c-0.75-0.84-2.8-1.16-3.91-1l0,0c-0.01,0-0.02,0-0.03,0c-0.23,0.04-0.45-0.12-0.49-0.36
							c-0.03-0.25,0.13-0.48,0.38-0.53c1.4-0.21,3.73,0.21,4.68,1.26c0,0,0.01,0.01,0.01,0.01c0.16,0.19,0.15,0.47-0.04,0.63
							c-0.06,0.05-0.12,0.1-0.2,0.13C361.63,183.12,361.48,183.07,361.38,182.95z"/>
						<path class="st17" d="M348.44,184.87c-0.01-0.01-0.02-0.01-0.03-0.02c-0.2-0.13-0.25-0.4-0.12-0.59
							c0.71-1.28,1.98-2.15,3.43-2.35c0.01,0,0.02,0,0.03,0c0.23,0,0.42,0.19,0.42,0.42c0.01,0.25-0.18,0.46-0.43,0.48
							c-1.14,0.18-2.14,0.88-2.7,1.9c-0.08,0.13-0.21,0.21-0.36,0.23C348.6,184.94,348.51,184.92,348.44,184.87z"/>
					</g>
					<g>
						<path class="st25" d="M355.98,199.54c1.09,1.28,2.65,3.85,2.65,3.85c0.21-0.08,0.42-0.17,0.62-0.26
							c2.82-1.22,3.62-2.92,3.65-4.43c0.02-0.83-0.21-1.61-0.45-2.21c-0.28-0.7-0.61-1.16-0.61-1.16c-1.01,1.73-3.52,3.11-4.9,3.78
							C356.36,199.39,355.98,199.54,355.98,199.54z"/>
						<path class="st6" d="M356.93,199.1l0.4,0.56c0.23,0.32,0.67,0.44,1.03,0.27c2.08-0.98,3.46-2.02,3.96-3.13
							c0.1-0.21,0.07-0.46-0.03-0.68c-0.24-0.5-0.46-0.81-0.46-0.81C360.83,197.05,358.31,198.43,356.93,199.1z"/>
						<path class="st26" d="M359.25,203.12c2.82-1.22,3.62-2.92,3.65-4.43c-0.94,0.46-2.01,1.14-2.79,2.11
							C359.52,201.53,359.3,202.36,359.25,203.12z"/>
					</g>
					<g>
						<path class="st17" d="M351.65,188.04c-0.49,0.09-0.77,0.79-0.62,1.54c0.15,0.75,0.67,1.29,1.16,1.19
							c0.49-0.1,0.77-0.79,0.62-1.54C352.68,188.5,352.14,187.95,351.65,188.04z"/>
					</g>
					<g>
						<path class="st17" d="M360.23,186.62c-0.49,0.09-0.77,0.79-0.62,1.54c0.15,0.75,0.67,1.29,1.16,1.19
							c0.49-0.1,0.77-0.79,0.62-1.54C361.26,187.08,360.72,186.53,360.23,186.62z"/>
					</g>
					<g>
						<polygon class="st13" points="347.87,192.06 354.18,190.64 354.28,193.32 348.42,194.73 						"/>
						<g class="st27">
							<polygon class="st13" points="356.1,190.22 356.85,192.68 364.95,190.94 364.47,188.1 							"/>
						</g>
						<g>
							<polygon class="st17" points="354.22,191.63 354.18,190.64 356.1,190.22 356.39,191.15 							"/>
						</g>
					</g>
				</g>
				<path class="st17" d="M351.92,293.12c0,0,11.39,4.41,13.99,5.28c3.07,1.02,6.18,2.05,9.38,2.15c3.2,0.1,6.55-0.85,8.87-3.31
					c2.72-2.9,3.56-7.3,4.27-11.43c2.09-12.13,4.18-24.26,6.26-36.39c1.03-5.98,3.63-14.97,3.41-18.39
					c-0.41-6.3-4.42-13.73-14.63-17.83c-3.97-1.59-7.88-0.98-11.23,3.02c-2,2.39-7.82,8.12-9.25,18.23
					c-1.15,8.1-2.92,18.59-2.81,26.82C360.32,272.07,356.02,285.71,351.92,293.12z"/>
				<g>
					<path class="st17" d="M397.55,227.7c1.16,10.54-4.67,37.11-5.79,38.71c-4.78,15.42-17.9,7.11-19.81,6.4
						c-3.31-1.22-6.68-3.61-9.83-5.2c-6.11-3.03-11.9-5.48-17.58-9.26l3.2-6.32c6.22,2.13,23.86,6.68,26.76,7.39
						c1.26,0.33,6.17,2.91,6.12-0.49c0.7-1.13,1.66-23.14,3.77-30.91c0.24-0.88,0.66-1.68,1.23-2.39l0.19-0.24
						C389.22,221.11,396.02,222.46,397.55,227.7L397.55,227.7z"/>
					<path class="st4" d="M397.55,227.7c1.16,10.54-4.67,37.11-5.79,38.71c-4.78,15.42-17.9,7.11-19.81,6.4
						c-3.31-1.22-6.68-3.61-9.83-5.2c-6.11-3.03-11.9-5.48-17.58-9.26l3.2-6.32c6.22,2.13,23.86,6.68,26.76,7.39
						c1.26,0.33,6.17,2.91,6.12-0.49c0.7-1.13,1.66-23.14,3.77-30.91c0.24-0.88,0.66-1.68,1.23-2.39l0.19-0.24
						C389.22,221.11,396.02,222.46,397.55,227.7L397.55,227.7z"/>
				</g>
				<g>
					<g>
						<g>
							<polygon class="st17" points="345.23,267.5 315.64,267.5 312.26,228.88 341.86,228.88 							"/>
							<polygon class="st16" points="345.23,267.5 315.64,267.5 312.26,228.88 341.86,228.88 							"/>
						</g>
						<polygon class="st12" points="344.19,267.31 314.59,267.31 311.21,228.69 340.81,228.69 						"/>
						<polygon class="st9" points="344.19,267.31 314.59,267.31 311.21,228.69 340.81,228.69 						"/>
						<polygon class="st12" points="332.45,231.1 320,231.1 319.58,226.27 332.03,226.27 						"/>
					</g>
					<g>
						<polygon class="st12" points="319.58,226.27 320.8,225.85 333.69,225.85 333.87,227.9 332.91,229.02 332.85,230.69 
							332.45,231.1 332.03,226.27 						"/>
						<polygon class="st22" points="319.58,226.27 320.8,225.85 333.69,225.85 333.87,227.9 332.91,229.02 332.85,230.69 
							332.45,231.1 332.03,226.27 						"/>
					</g>
				</g>
				<path class="st18" d="M350.1,254.12l0.68,3.61c-1.6,4.16-10.78,3.06-10.78,3.06l-0.02-10.67l8.09,1.88
					C349.1,252.25,349.9,253.08,350.1,254.12z"/>
				<polygon class="st18" points="339.98,250.13 340.03,260.82 331.9,261.02 330.04,251.62 				"/>
			</g>
		</g>
		<g>
			<path class="st12" d="M370.9,336.96l3.09-45.04c0.44-6.36,3.54-11.66,7.84-14.17c2.71-2.14,5.98-3.46,9.51-3.69
				c0.37-0.04,0.73-0.05,1.1-0.05c2.86,0,5.57,0.72,7.98,2.03c0.08,0.03,0.15,0.08,0.23,0.12c2.49,1.38,4.67,3.35,6.36,5.77
				l0.01,0.01c2.37,3.42,3.79,7.69,3.79,12.34c0,10.01-6.59,18.34-15.24,19.96l-3.34,48.72c-0.29,4.15-3.01,7.32-6.28,7.32h-16.77
				L370.9,336.96z"/>
			<path class="st4" d="M370.9,336.96l3.09-45.04c0.44-6.36,3.54-11.66,7.84-14.17c2.71-2.14,5.98-3.46,9.51-3.69
				c0.37-0.04,0.73-0.05,1.1-0.05c2.86,0,5.57,0.72,7.98,2.03c0.08,0.03,0.15,0.08,0.23,0.12c2.49,1.38,4.67,3.35,6.36,5.77
				l0.01,0.01c2.37,3.42,3.79,7.69,3.79,12.34c0,10.01-6.59,18.34-15.24,19.96l-3.34,48.72c-0.29,4.15-3.01,7.32-6.28,7.32h-16.77
				L370.9,336.96z"/>
		</g>
	</g>
</g>
<g id="Text_Balloon">
	<g>
		<g>
			<path class="st28" d="M218.3,127.6v41.81c0,2.18-1.77,3.95-3.95,3.95h-42.87l-15.3,11.83c-0.5,0.38-1.12,0.59-1.75,0.59
				c-1.62,0-2.93-1.31-2.93-2.93v-9.49h-2.39c-2.18,0-3.95-1.77-3.95-3.95v-41.82c0.01-2.17,1.78-3.93,3.95-3.92h65.26
				C216.54,123.67,218.3,125.43,218.3,127.6z"/>
		</g>
		<g>
			<rect x="170.03" y="117.78" class="st12" width="8.17" height="1"/>
			<path class="st12" d="M139.98,129.56h-1v-4.93c0.01-3.79,3.08-6.86,6.87-6.86h18.23v1h-18.23c-3.24,0-5.86,2.62-5.87,5.86V129.56
				z"/>
		</g>
		<g>
			<path class="st12" d="M197.77,154.3c-1.84,0-3.32-1.55-3.16-3.38c0-0.01,0-0.03,0-0.04c1.07-12.19,10.73-13.31,11.94-27.18
				c0.35-3.98-1.11-5.5-3.9-5.5c-2.79,0-4.52,1.51-4.86,5.5l-0.2,2.29c-0.19,2.13-1.97,3.77-4.11,3.77l0,0
				c-2.42,0-4.32-2.08-4.11-4.49l0.09-1.01c0.78-8.93,5.61-14.03,14.14-14.03c8.53,0,12.46,5.1,11.68,14.03
				c-1.27,14.51-11.82,16.74-12.72,26.94c0,0.05-0.01,0.1-0.01,0.15c-0.13,1.66-1.49,2.96-3.16,2.96H197.77z M202.1,162.78l0,0.03
				c-0.19,2.17-2.01,3.84-4.19,3.84l0,0c-2.47,0-4.41-2.12-4.19-4.57l0-0.03c0.19-2.17,2.01-3.84,4.19-3.84h0
				C200.37,158.21,202.31,160.32,202.1,162.78z"/>
		</g>
		<g>
			<g>
				<path class="st12" d="M186.5,144.51h-22.96c-1.1,0-2-0.9-2-2c0-1.1,0.9-2,2-2h22.96c1.1,0,2,0.9,2,2
					C188.5,143.62,187.61,144.51,186.5,144.51z"/>
			</g>
			<g>
				<path class="st12" d="M183.32,152.43h-19.78c-1.1,0-2-0.9-2-2c0-1.1,0.9-2,2-2h19.78c1.1,0,2,0.9,2,2
					C185.32,151.53,184.42,152.43,183.32,152.43z"/>
			</g>
			<g>
				<path class="st12" d="M180.14,160.34h-16.6c-1.1,0-2-0.9-2-2c0-1.1,0.9-2,2-2h16.6c1.1,0,2,0.9,2,2
					C182.14,159.44,181.24,160.34,180.14,160.34z"/>
			</g>
		</g>
	</g>
</g>
<g id="Character_1">
	<g>
		<path class="st12" d="M133.08,323.51h-14.62c-3.55,0-6.43,2.25-6.43,5.02v8.64c0,2.77,2.88,5.02,6.43,5.02h14.62V323.51z"/>
	</g>
	<g>
		<g>
			<g>
				<path class="st12" d="M65.18,364.2l-5.08-80.86c-1.89-30.03,21.96-55.43,52.06-55.43h0c27.66,0,50.52,21.6,52.07,49.22
					l5.33,94.44H73.03C68.88,371.58,65.44,368.35,65.18,364.2z"/>
				<path class="st14" d="M64.99,361.27l-4.89-77.93c-1.89-30.03,21.96-55.43,52.06-55.43h0c27.66,0,50.52,21.6,52.07,49.22
					l5.33,94.44H75.97C70.16,371.58,65.36,367.06,64.99,361.27z"/>
			</g>
			<path class="st12" d="M80.84,371.58l-5.54-88.23c-1.89-30.03,21.96-55.43,52.06-55.43h0c27.66,0,50.52,21.6,52.07,49.22
				l5.33,94.44H80.84z"/>
		</g>
		<g>
			<path class="st12" d="M79.18,386.77l-1.33,0c-0.68,0-1.31-0.57-1.42-1.36l-1.97-13.83h8.11l-1.97,13.83
				C80.49,386.19,79.86,386.77,79.18,386.77z"/>
			<path class="st15" d="M79.18,386.77l-1.33,0c-0.68,0-1.31-0.57-1.42-1.36l-1.97-13.83h8.11l-1.97,13.83
				C80.49,386.19,79.86,386.77,79.18,386.77z"/>
		</g>
		<g>
			<path class="st12" d="M209.83,386.77l-1.21,0c-0.62,0-1.19-0.57-1.29-1.36l-1.78-13.83h7.35l-1.78,13.83
				C211.02,386.19,210.45,386.77,209.83,386.77z"/>
			<path class="st16" d="M209.83,386.77l-1.21,0c-0.62,0-1.19-0.57-1.29-1.36l-1.78-13.83h7.35l-1.78,13.83
				C211.02,386.19,210.45,386.77,209.83,386.77z"/>
		</g>
		<g>
			<path class="st12" d="M172.22,386.77l-1.21,0c-0.62,0-1.19-0.57-1.29-1.36l-1.78-13.83h7.35l-1.78,13.83
				C173.4,386.19,172.83,386.77,172.22,386.77z"/>
			<path class="st15" d="M172.22,386.77l-1.21,0c-0.62,0-1.19-0.57-1.29-1.36l-1.78-13.83h7.35l-1.78,13.83
				C173.4,386.19,172.83,386.77,172.22,386.77z"/>
		</g>
		<g>
			<path class="st12" d="M119.68,386.77l-1.33,0c-0.68,0-1.31-0.57-1.42-1.36l-1.97-13.83h8.11l-1.97,13.83
				C120.99,386.19,120.36,386.77,119.68,386.77z"/>
			<path class="st16" d="M119.68,386.77l-1.33,0c-0.68,0-1.31-0.57-1.42-1.36l-1.97-13.83h8.11l-1.97,13.83
				C120.99,386.19,120.36,386.77,119.68,386.77z"/>
		</g>
		<g>
			<g>
				<path class="st12" d="M163.71,338.25h35.56l2.36-34.28l0.5-7.36v-0.01l0.23-3.39c0.07-0.91,0.18-1.79,0.35-2.65
					c0.04-0.19,0.09-0.39,0.13-0.59c0.02-0.15,0.06-0.29,0.11-0.43c1.01-3.6,2.91-6.77,5.42-9.2c3-2.91,6.85-4.75,11.1-5.01h-33.44
					c-0.37-0.02-0.73-0.03-1.1-0.03c-4.64,0-8.88,1.91-12.12,5.04c-2.51,2.43-4.4,5.6-5.42,9.2c-0.05,0.14-0.09,0.28-0.11,0.43
					c-0.23,1.04-0.4,2.12-0.47,3.24l-0.23,3.39v0.01L163.71,338.25z"/>
				<path class="st14" d="M163.71,338.25h35.56l2.36-34.28l0.5-7.36v-0.01l0.23-3.39c0.07-0.91,0.18-1.79,0.35-2.65
					c0.04-0.19,0.09-0.39,0.13-0.59c0.02-0.15,0.06-0.29,0.11-0.43c1.01-3.6,2.91-6.77,5.42-9.2c3-2.91,6.85-4.75,11.1-5.01h-33.44
					c-0.37-0.02-0.73-0.03-1.1-0.03c-4.64,0-8.88,1.91-12.12,5.04c-2.51,2.43-4.4,5.6-5.42,9.2c-0.05,0.14-0.09,0.28-0.11,0.43
					c-0.23,1.04-0.4,2.12-0.47,3.24l-0.23,3.39v0.01L163.71,338.25z"/>
			</g>
		</g>
		<g class="st14">
			<path d="M135.53,319.99h-14.28c-3.47,0-6.29,2.2-6.29,4.91v8.45c0,2.71,2.81,4.91,6.29,4.91h14.28V319.99z"/>
		</g>
		<g>
			<path class="st12" d="M193.84,338.26h-62.89c-3,0-5.42-2.43-5.42-5.42v-7.42c0-3,2.43-5.42,5.42-5.42h62.89
				c3,0,5.42,2.43,5.42,5.42v7.42C199.26,335.83,196.83,338.26,193.84,338.26z"/>
		</g>
		<path class="st12" d="M45.5,295.57c0,10.01,7.26,18.34,16.81,19.97l3.68,48.72c0.32,4.14,3.32,7.32,6.92,7.32h39.22
			c-3.6,0-6.6-3.17-6.92-7.32l-1.97-26.01l-1.71-22.72c-6.35-1.09-11.68-5.12-14.54-10.66c-0.19-0.35-0.36-0.72-0.52-1.1
			c-1.13-2.51-1.75-5.28-1.75-8.21c0-1.42,0.15-2.8,0.43-4.13c0.11-0.54,0.25-1.09,0.39-1.61c0.72-2.42,1.87-4.64,3.37-6.59
			l0.01-0.01c1.86-2.43,4.26-4.4,7.01-5.77c2.73-1.37,5.8-2.14,9.05-2.14H65.76c-2.08,0-4.09,0.32-5.99,0.91
			c-1.06,0.33-2.09,0.75-3.07,1.24c-2.75,1.37-5.14,3.34-7.01,5.77l-0.01,0.01C47.07,286.65,45.5,290.92,45.5,295.57z"/>
		<path class="st14" d="M45.5,295.57c0,10.01,7.26,18.34,16.81,19.97l3.68,48.72c0.32,4.14,3.32,7.32,6.92,7.32h39.22
			c-3.6,0-6.6-3.17-6.92-7.32l-1.97-26.01l-1.71-22.72c-6.35-1.09-11.68-5.12-14.54-10.66c-0.19-0.35-0.36-0.72-0.52-1.1
			c-1.13-2.51-1.75-5.28-1.75-8.21c0-1.42,0.15-2.8,0.43-4.13c0.11-0.54,0.25-1.09,0.39-1.61c0.72-2.42,1.87-4.64,3.37-6.59
			l0.01-0.01c1.86-2.43,4.26-4.4,7.01-5.77c2.73-1.37,5.8-2.14,9.05-2.14H65.76c-2.08,0-4.09,0.32-5.99,0.91
			c-1.06,0.33-2.09,0.75-3.07,1.24c-2.75,1.37-5.14,3.34-7.01,5.77l-0.01,0.01C47.07,286.65,45.5,290.92,45.5,295.57z"/>
		<path class="st12" d="M84.72,295.57c0,10.01,6.59,18.34,15.24,19.96l3.34,48.72c0.29,4.15,3.01,7.32,6.28,7.32h104.74
			c3.26,0,5.98-3.18,6.28-7.32l3.35-48.8c8.48-1.78,14.89-10.01,14.89-19.89c0-4.37-1.26-8.41-3.38-11.71
			c-1.74-2.7-4.07-4.92-6.78-6.41c-2.47-1.38-5.26-2.15-8.21-2.15c-4.64,0-8.88,1.91-12.12,5.04c-2.51,2.42-4.4,5.6-5.42,9.2
			c-0.04,0.14-0.09,0.28-0.1,0.43c-0.24,1.04-0.39,2.12-0.47,3.23l-0.24,3.39v0.01l-2.85,41.64h-74.64l-3.09-45.04
			c-0.44-6.36-3.54-11.66-7.84-14.17c-2.71-2.14-5.98-3.46-9.51-3.69c-0.37-0.04-0.73-0.05-1.1-0.05c-2.86,0-5.57,0.72-7.98,2.03
			c-0.08,0.03-0.15,0.08-0.23,0.12c-2.49,1.38-4.67,3.35-6.36,5.77l-0.01,0.01C86.14,286.65,84.72,290.92,84.72,295.57z"/>
		<g>
			<path class="st4" d="M126.35,371.58h87.96c3.26,0,5.98-3.18,6.28-7.32l3.35-48.8c8.48-1.78,14.89-10.01,14.89-19.89
				c0-4.37-1.26-8.41-3.38-11.71c-1.74-2.7-4.07-4.92-6.78-6.41c-2.47-1.38-5.26-2.15-8.21-2.15c-4.64,0-8.88,1.91-12.12,5.04
				c-2.51,2.42-4.4,5.6-5.42,9.2c-0.04,0.14-0.09,0.28-0.1,0.43c-0.24,1.04-0.39,2.12-0.47,3.23l-0.24,3.39v0.01l-2.85,41.64h-74.64
				L126.35,371.58z"/>
		</g>
		<g>
			<g>
				<g>
					<g>
						<g>
							<polygon class="st18" points="153.13,388.79 161.66,391.15 169.32,371.1 160.79,368.73 							"/>
							<path class="st17" d="M165.48,388.49c-0.66-0.88-1.65-1.45-2.73-1.66l-8.79-1.71c-0.41-0.1-0.82,0.14-0.95,0.54l-2.72,8.01
								c-0.32,0.91,0.16,1.92,1.07,2.24c0.02,0.01,0.04,0.01,0.06,0.02c3.24,1.28,5.43,0.84,10.5,1.82
								c3.12,0.61,9.68,2.68,14.06,2.51c4.38-0.18,4.37-4.51,2.53-4.83C171.97,394.39,166.97,390.47,165.48,388.49z"/>
							<g class="st20">
								<polygon points="169.32,371.11 165.37,381.45 156.84,379.07 160.78,368.74 								"/>
							</g>
							<g>
								<path class="st12" d="M140.85,295.04c0,0,51.36-0.28,49.75,16.92c-1.08,11.61-6.66,23.83-11.01,35.62
									c-6.31,17.09-11.77,31.97-11.77,31.97l-11.7-4.05c0,0,10.51-49.42,17.59-54.48h-43.42c-14.37,0-20.58-15.78-6.59-34.18
									C132.25,286.86,140.85,295.04,140.85,295.04z"/>
								<path class="st21" d="M140.85,295.04c0,0,51.36-0.28,49.75,16.92c0.8,10.68-22.78,67.6-22.78,67.6l-11.7-4.05
									c0,0,10.51-49.42,17.59-54.48h-43.42c-14.37,0-20.58-15.78-6.59-34.18C132.25,286.86,140.85,295.04,140.85,295.04z"/>
							</g>
						</g>
						<g>
							<g>
								<path class="st17" d="M177.07,263.77c-6.32,5.78-18.73-7.89-20.73-9.51c-4.28-3.49-16.87-15.24-16.2-19.32
									c1.96-12.01,21.68,5,27.36,16.72L177.07,263.77z"/>
							</g>
							<path class="st12" d="M121.76,227.66c-3.17,0.67-6.6-0.47-8.82,1.88c-2.23,2.35-3.16,5.65-3.49,8.88
								c-0.45,4.48,0.12,8.99,0.7,13.46c0.7,5.41,1.39,10.83,2.09,16.24c0.48,3.7,0.25,9.72-0.51,13.37l-0.01,0.03
								c-0.19,0.93,0.35,1.95,1.23,2.33c0,0,24.59,0.85,31.74,0.58c3.8-0.14,1.19-10.14,2.36-15.97c0.26-1.29,2.8-6.64,3.18-8.01
								c1.77-6.45,0.6-10.89-1.04-17.37c-1.19-4.71-1.68-11.5-4.08-12.02C140.83,230.13,130.58,225.78,121.76,227.66z"/>
							<path class="st9" d="M121.76,227.66c-3.17,0.67-6.6-0.47-8.82,1.88c-2.23,2.35-3.16,5.65-3.49,8.88
								c-0.45,4.48,0.12,8.99,0.7,13.46c0.7,5.41,1.39,10.83,2.09,16.24c0.48,3.7,0.25,9.72-0.51,13.37l-0.01,0.03
								c-0.19,0.93,0.35,1.95,1.23,2.33c0,0,24.59,0.85,31.74,0.58c3.8-0.14,1.19-10.14,2.36-15.97c0.26-1.29,2.8-6.64,3.18-8.01
								c1.77-6.45,0.6-10.89-1.04-17.37c-1.19-4.71-1.68-11.5-4.08-12.02C140.83,230.13,130.58,225.78,121.76,227.66z"/>
							<path class="st17" d="M118.25,232.28c-0.33-0.5-8.97-7.78-10.55,0.63c-2.19,11.71,2.34,23.23,2.34,23.23
								s1.04,12.67,4.72,13.94c3.68,1.26,7.18,1.58,8.42-0.59c1.24-2.17,1.24-5.41,1.24-5.41S123.98,241.02,118.25,232.28z"/>
							<path class="st29" d="M124.24,211.59c0.9,5.39,1.65,15.24-2.21,18.71c0,0,9.42,4.93,15.59,13.53c3.57-2.82,3.59-6.4,2.86-9.1
								c-0.57-2.09-2.07-3.75-3.97-4.79c-3.66-2.01-3.31-5.78-2.3-9.32L124.24,211.59z"/>
							<path class="st19" d="M125.47,220.74l3.51,1.35c1.5,0.58,3.11,0.84,4.72,0.76l0,0c-0.09,0.78-0.4,2.41,0,3.33
								c-2.17,0.79-5.61-0.25-6.98-2.24C126.15,223.17,125.73,221.67,125.47,220.74z"/>
							<polygon class="st18" points="212.6,371.55 222.16,371.55 212.15,347.58 205.67,358.58 							"/>
							<path class="st17" d="M221.37,369.28l-11.21-2.55c-0.4-0.11-0.81,0.11-0.94,0.5l-3.13,8.62c-0.27,0.91,0.26,1.87,1.17,2.13
								c0.02,0.01,0.04,0.01,0.05,0.01c3.93,0.82,5.86,1.02,10.79,2.14c3.04,0.69,10.72,2.71,14.9,3.66
								c4.19,0.95,5.29-3.15,3.62-3.93c-7.48-3.46-11.53-6.77-13.7-9.59C222.55,369.77,222,369.42,221.37,369.28z"/>
							<g class="st20">
								<polygon points="212.15,347.58 216.41,357.79 207.81,362.59 205.67,358.59 								"/>
							</g>
							<path class="st17" d="M111.54,283.93l-1.03,3.26c-0.14,0.25,0.15,0.52,0.58,0.53l37.04,1.12c0.33,0,0.61-0.14,0.64-0.36
								l0.43-3.27c0-0.23-0.25-0.43-0.61-0.44l-36.4-1.1C111.94,283.63,111.69,283.73,111.54,283.93z"/>
							<g>
								<g>
									<path class="st12" d="M157.82,310.68c-12.17,5.19-25.38,10.37-32.55,10.37c-14.38,0-27.15-10.38-13.53-33.99
										c8.55-0.03,23.42,0.24,23.42,0.24s28.04-7.96,48.38-5.64c9.92,1.13,17.94,8.58,19.89,18.37
										c5.16,25.98,13.11,54.12,13.11,54.12l-10.23,6.96c0,0-15.95-33.54-25.13-60.15C176.32,302.53,167.39,306.6,157.82,310.68z"
										/>
								</g>
								<path class="st22" d="M203.43,300.04c-1.95-9.79-9.97-17.24-19.89-18.37c-20.34-2.32-48.38,5.64-48.38,5.64
									s-14.87-0.27-23.42-0.24c-13.84,23.53-0.84,33.99,13.53,33.99c7.18,0,20.38-5.19,32.55-10.37
									c9.57-4.08,18.5-8.15,23.35-9.71c9.18,26.61,25.13,60.15,25.13,60.15l10.23-6.96C216.54,354.16,208.59,326.02,203.43,300.04
									z"/>
							</g>
							<g>
								<path class="st12" d="M190.61,311.97c-0.3,3.2-0.82,6.54-1.5,9.95c-0.05-0.11-0.09-0.21-0.13-0.31
									c-0.02-0.03-0.02-0.05-0.04-0.08c-0.05-0.11-0.08-0.22-0.13-0.32c-2.73-6.76-5.38-13.69-7.63-20.22
									c0.02,0,0.04,0.02,0.07,0.02V301C187.11,303.48,191.08,306.99,190.61,311.97z"/>
								<path class="st21" d="M190.61,311.97c-0.3,3.2-0.82,6.54-1.5,9.95c-0.05-0.11-0.09-0.21-0.13-0.31
									c-0.02-0.03-0.02-0.05-0.04-0.08c-0.05-0.11-0.08-0.22-0.13-0.32c-2.73-6.76-5.38-13.69-7.63-20.22
									c0.02,0,0.04,0.02,0.07,0.02V301C187.11,303.48,191.08,306.99,190.61,311.97z"/>
							</g>
							<g>
								<g>
									<path class="st29" d="M117.68,206.41c3,8.45,4.09,12.09,9.71,15.26c8.47,4.78,18.17-0.78,17.75-9.96
										c-0.38-8.26-5.23-20.7-14.63-21.7c-6.72-0.75-12.77,4.09-13.52,10.8C116.79,202.71,117.02,204.62,117.68,206.41z"/>
									<path class="st17" d="M132.87,205.31c0.21,0.74,0.74,1.17,1.2,1.03s0.64-0.8,0.46-1.51c-0.18-0.71-0.73-1.16-1.2-1.03
										C132.87,203.93,132.67,204.61,132.87,205.31z"/>
									<path class="st17" d="M140.72,202.83c0.2,0.74,0.74,1.17,1.19,1.03c0.45-0.14,0.64-0.8,0.46-1.51
										c-0.18-0.71-0.73-1.16-1.19-1.03C140.73,201.46,140.52,202.14,140.72,202.83z"/>
									<path class="st17" d="M140.98,201.43l1.54-0.97C142.52,200.46,142.05,202.02,140.98,201.43z"/>
									<path class="st24" d="M137.91,204.43c1.08,1.42,2.35,2.68,3.78,3.76c-0.67,1.12-2.37,1.15-2.37,1.15L137.91,204.43z"/>
									<path class="st17" d="M112.16,212.04c0.47,1.57,1.24,3.07,1.39,4.71c0.29,3.22-2.33,6.43-5.54,6.8
										c2.76,0.82,6.01-0.65,7.22-3.26c-0.76,2.01-2.33,3.7-4.28,4.62c2.78,0.05,5.55-1.28,7.25-3.49
										c-0.47,1.22-0.95,2.43-1.42,3.65c2.36-1.42,4.34-3.49,5.65-5.92c0.54-0.99,0.94-2.3,0.24-3.18
										c-0.63-0.8-1.82-0.82-2.84-0.84c-1.02-0.02-2.24-0.26-2.62-1.21c-0.36-0.91,0.31-1.9,1.05-2.55
										c0.74-0.65,1.63-1.25,1.9-2.19c0.19-0.67,0.03-1.38-0.14-2.06c-0.45-1.84-0.9-3.69-1.35-5.53
										c-0.16-0.65-0.32-1.3-0.69-1.86c-2.01-2.99-4.23,1.4-4.97,2.89C111.58,205.5,111.23,208.94,112.16,212.04z"/>
									<path class="st29" d="M117.09,214.69c1.13,1.48,2.8,2.45,4.65,2.69c2.45,0.3,3.31-1.98,2.33-4.09
										c-0.89-1.91-3.23-4.36-5.54-3.72C116.21,210.21,115.71,212.85,117.09,214.69z"/>
									<path class="st17" d="M133,199.27c-0.03,0.19-0.18,0.34-0.37,0.37c-2.03,0.38-3.16,2.8-3.17,2.82
										c-0.1,0.22-0.37,0.32-0.59,0.22c-0.22-0.1-0.32-0.37-0.22-0.59c0.09-0.09,1.33-2.86,3.81-3.33
										c0.24-0.04,0.47,0.12,0.52,0.36C133,199.17,133.01,199.22,133,199.27z"/>
									<g>
										<path class="st17" d="M138.34,197.27c-0.16-0.02-0.3,0.02-0.38,0.1c-0.11,0.12-0.47,0.33-0.27,0.43
											c1.22,0.63,2.91,1.64,4.21,1.44c0.22-0.04,0.74-0.23,0.63-0.39c-0.11-0.15-0.38-0.24-0.6-0.2
											c-1.03,0.15-2.41-0.82-3.37-1.32C138.49,197.3,138.41,197.28,138.34,197.27z"/>
									</g>
									<path class="st17" d="M133.14,203.9l1.54-0.97C134.69,202.94,134.2,204.49,133.14,203.9z"/>
								</g>
								<g>
									<path class="st17" d="M133,186.28c-3.42-0.62-3.85-0.85-7.32-0.63c-3.47,0.21-6.96,1.21-9.69,3.36
										c-2.66,2.1-4.44,5.18-5.29,8.46c-0.85,3.28-0.81,6.74-0.26,10.08c0.26,1.56,0.7,3.23,1.94,4.21
										c0.18-1.79,0.37-3.6,0.92-5.31c0.55-1.71,1.5-3.35,2.96-4.41c0.58-0.42,1.27-0.78,1.6-1.42c0.29-0.55,0.26-1.2,0.36-1.82
										c0.24-1.4,1.19-2.59,2.33-3.43c1.14-0.84,2.47-1.38,3.77-1.94c4.21-1.82,8.8-2.85,12.68-5.29
										C136.06,187.33,133,186.28,133,186.28z"/>
								</g>
								<path class="st17" d="M115.55,199.66c0.91,1.1,2.18,1.9,3.57,2.22c1.66,0.38,5.81,0.29,6.06-0.15
									c0.3-0.52-1.22-5.09-2.9-5.37c1.23,1.03,2.51,2.09,4.06,2.52c1.55,0.43,4.16,0.22,5.2-0.02c0.87-0.2-1.09-3.84-2.52-4.88
									c4.31,0.9,8.86,1.93,12.04,4.98c3.27,3.14,4.47,7.94,4.31,12.46c1.48-1.16,2.36-3.04,2.31-4.92
									c1.54,4.66,1.07,9.95-1.27,14.27c4.59-3.76,6.3-10.33,5.09-16.14c-1.21-5.81-4.98-10.84-9.61-14.55
									c-3.96-3.17-8.76-5.54-13.83-5.66C121.37,184.27,109.05,191.83,115.55,199.66z"/>
							</g>
							<g>
								<g>
									<path class="st29" d="M120.94,226.4c0.04-0.33,0.08-0.76,0.12-1.23c0.18-2.19-1.32-4.16-3.47-4.55
										c-0.02,0-0.04-0.01-0.05-0.01c-0.63-0.12-1.15-0.56-1.36-1.16c-0.78-2.24-1.07-2.92-1.82-5.12
										c-2.02-0.49-4.4,0.26-6.5,0.48c-0.58,2.5-0.62,5.12-0.11,7.64c0.11,0.56,0.26,1.14,0.64,1.57
										c0.38,0.43,4.46,3.31,6.24,3.84C116.47,228.4,119.01,226.57,120.94,226.4z"/>
								</g>
								<g>
									<path class="st29" d="M114.88,227.9c0,0-5.51,35.55,0.17,40.96c3.34,3.18,6.21,1.43,8.02-0.56
										c1.34-1.48,1.95-3.49,1.74-5.48l-3.87-36.43C120.94,226.4,117.12,224.18,114.88,227.9z"/>
								</g>
							</g>
							<g>
								<path class="st29" d="M174.08,259.98c2.21-1.7,4.17-5.23,4.66-7.47c0.16-0.72,0.22-1.8,0.2-3.11
									c-0.05-6.44-1.87-18.25-1.87-18.25l-5.23-1.73c0,0-1.63,8.98-1.99,13.92c-0.07,0.97-0.18,2.11-0.3,3.32
									c-0.23,2.2-0.52,4.62-0.77,6.63L174.08,259.98z"/>
								<g>
									<path class="st17" d="M177.07,263.77c1.6-1.47,1.88-3.25,2.71-7.04c0.79-3.58-0.1-7.96-0.84-7.33
										c-0.07,0.05-0.14,0.16-0.2,0.31c-1.27,3-6.21,0.37-7.61-1.13c-0.55-0.59-1.2-1.24-1.57-1.92
										c-0.34-0.61-0.45-1.23-0.04-1.82c-1.52-0.63-2.74,5.35-2.01,6.82l0.37,1.11c0.6,1.8,1.54,3.48,2.75,4.94l2.75,3.31
										L177.07,263.77z"/>
								</g>
								<path class="st29" d="M171.7,230.19l-0.63-9.13c0,0,1.07,0.59,5.05,1.94c2.55,0.87,5.97-0.66,5.21,0.99
									c-1.24,2.69-4.26,7.16-4.26,7.16L171.7,230.19z"/>
								<path class="st29" d="M171.08,221.05l3.9-9.15l5.12,3.13c1.41,3.06,1.24,8.95,1.24,8.95S174.24,224.31,171.08,221.05z"/>
							</g>
						</g>
					</g>
				</g>
			</g>
			<path class="st17" d="M137.31,214.01c0.13,0.65,0.6,1.11,1.02,1.02c0.43-0.09,0.65-0.69,0.51-1.35c-0.14-0.65-0.6-1.1-1.02-1.01
				C137.4,212.76,137.17,213.39,137.31,214.01z"/>
		</g>
		<g>
			<g>
				<path class="st12" d="M124.63,338.25l-3.09-45.04c-0.44-6.36-3.54-11.66-7.84-14.17c-2.71-2.14-5.98-3.46-9.51-3.69
					c-0.37-0.04-0.73-0.05-1.1-0.05c-2.86,0-5.57,0.72-7.98,2.03c-0.08,0.03-0.15,0.08-0.23,0.12c-2.49,1.38-4.67,3.35-6.36,5.77
					l-0.01,0.01c-2.37,3.42-3.79,7.69-3.79,12.34c0,10.01,6.59,18.34,15.24,19.96l3.34,48.72c0.29,4.15,3.01,7.32,6.28,7.32h16.77
					L124.63,338.25z"/>
			</g>
			<path class="st4" d="M124.63,338.25l-3.09-45.04c-0.44-6.36-3.54-11.66-7.84-14.17c-2.71-2.14-5.98-3.46-9.51-3.69
				c-0.37-0.04-0.73-0.05-1.1-0.05c-2.86,0-5.57,0.72-7.98,2.03c-0.08,0.03-0.15,0.08-0.23,0.12c-2.49,1.38-4.67,3.35-6.36,5.77
				l-0.01,0.01c-2.37,3.42-3.79,7.69-3.79,12.34c0,10.01,6.59,18.34,15.24,19.96l3.34,48.72c0.29,4.15,3.01,7.32,6.28,7.32h16.77
				L124.63,338.25z"/>
		</g>
	</g>
</g>
<g id="Table">
	<g>
		<g>
			<g>
				<ellipse class="st17" cx="244.16" cy="411.89" rx="33.54" ry="8.58"/>
				<ellipse class="st30" cx="244.16" cy="410.46" rx="33.54" ry="7.15"/>
			</g>
			<g>
				<polygon class="st17" points="246.93,410.45 241.39,410.45 234.99,341.43 253.33,341.43 				"/>
				<path class="st17" d="M253.33,341.43c0,2.01-4.11,3.64-9.17,3.64c-5.07,0-9.17-1.63-9.17-3.64c0-2.01,4.11-3.64,9.17-3.64
					C249.23,337.79,253.33,339.42,253.33,341.43z"/>
				<path class="st15" d="M253.33,341.43c0,2.01-4.11,3.64-9.17,3.64c-5.07,0-9.17-1.63-9.17-3.64c0-2.01,4.11-3.64,9.17-3.64
					C249.23,337.79,253.33,339.42,253.33,341.43z"/>
			</g>
			<g>
				<path class="st15" d="M132.04,342.51c0-0.73,0.36-1.45,1.07-2.16c7.75,7.8,56.92,13.81,116.42,13.81s108.67-6.01,116.43-13.81
					c0.71,0.71,1.07,1.43,1.07,2.16c0,8.81-52.61,15.96-117.5,15.96C184.64,358.47,132.04,351.32,132.04,342.51z"/>
				<g>
					<path class="st15" d="M133.11,344.5c7.75-7.8,56.92-13.8,116.42-13.8s108.67,6,116.43,13.8c-7.76,7.8-56.93,13.81-116.43,13.81
						S140.86,352.3,133.11,344.5z"/>
					<path class="st15" d="M132.04,342.2c0-8.82,52.6-15.96,117.49-15.96c64.89,0,117.5,7.14,117.5,15.96
						c0,0.73-0.36,1.45-1.07,2.15c-7.76-7.8-56.93-13.8-116.43-13.8s-108.67,6-116.42,13.8C132.4,343.65,132.04,342.93,132.04,342.2
						z"/>
				</g>
			</g>
		</g>
		<g>
			<g>
				<g>
					<g>
						<g>
							<path class="st17" d="M294.85,334.43l-49.16-0.93c-0.51-0.01-0.91-0.51-0.9-1.12l0,0c0.01-0.6,0.44-1.09,0.95-1.08
								l49.16,0.93c0.51,0.01,0.91,0.51,0.9,1.12l0,0C295.78,333.95,295.36,334.44,294.85,334.43z"/>
							<path class="st31" d="M294.85,334.43l-49.16-0.93c-0.51-0.01-0.91-0.51-0.9-1.12l0,0c0.01-0.6,0.44-1.09,0.95-1.08
								l49.16,0.93c0.51,0.01,0.91,0.51,0.9,1.12l0,0C295.78,333.95,295.36,334.44,294.85,334.43z"/>
							<path class="st17" d="M318.72,330.84l-23.5,3.55c-0.51,0.08-0.97-0.35-1.02-0.95l0,0c-0.06-0.6,0.31-1.15,0.81-1.23
								l23.5-3.55c0.5-0.08,0.97,0.35,1.02,0.95l0,0C319.6,330.21,319.23,330.76,318.72,330.84z"/>
							<g>
								<polygon class="st17" points="318.51,328.66 268.83,328.66 245.74,331.3 293.56,332.2 								"/>
								<polygon class="st32" points="318.51,328.66 268.83,328.66 245.74,331.3 293.56,332.2 								"/>
							</g>
							<path class="st16" d="M318.72,330.84l-23.5,3.55c-0.51,0.08-0.97-0.35-1.02-0.95l0,0c-0.06-0.6,0.31-1.15,0.81-1.23
								l23.5-3.55c0.5-0.08,0.97,0.35,1.02,0.95l0,0C319.6,330.21,319.23,330.76,318.72,330.84z"/>
						</g>
						<g>
							<path class="st12" d="M293.56,332.2l-45.84-0.86c-1.62-0.03-3.02-1.63-3.12-3.56l-1.38-27.67c-0.1-1.93,1.15-3.48,2.77-3.45
								l45.84,0.86c1.62,0.03,3.02,1.63,3.12,3.56l1.38,27.67C296.42,330.68,295.18,332.23,293.56,332.2z"/>
							<path class="st31" d="M293.56,332.2l-45.84-0.86c-1.62-0.03-3.02-1.63-3.12-3.56l-1.38-27.67c-0.1-1.93,1.15-3.48,2.77-3.45
								l45.84,0.86c1.62,0.03,3.02,1.63,3.12,3.56l1.38,27.67C296.42,330.68,295.18,332.23,293.56,332.2z"/>
						</g>
						<g>
							<path class="st12" d="M292.22,332.06l-45.84-0.86c-1.62-0.03-3.02-1.63-3.12-3.56l-1.38-27.67c-0.1-1.93,1.15-3.48,2.77-3.45
								l45.84,0.86c1.62,0.03,3.02,1.63,3.12,3.56l1.38,27.67C295.08,330.54,293.83,332.09,292.22,332.06z"/>
							<path class="st32" d="M292.22,332.06l-45.84-0.86c-1.62-0.03-3.02-1.63-3.12-3.56l-1.38-27.67c-0.1-1.93,1.15-3.48,2.77-3.45
								l45.84,0.86c1.62,0.03,3.02,1.63,3.12,3.56l1.38,27.67C295.08,330.54,293.83,332.09,292.22,332.06z"/>
						</g>
					</g>
				</g>
				<path class="st6" d="M262.36,313.83c0.23,2.69,2.6,4.86,5.29,4.86c2.69,0,4.67-2.18,4.44-4.86c-0.23-2.69-2.6-4.86-5.29-4.86
					C264.11,308.96,262.12,311.14,262.36,313.83z"/>
			</g>
		</g>
	</g>
</g>
</svg>
