<svg width="1158" height="496" viewBox="0 0 1158 496" fill="none" xmlns="http://www.w3.org/2000/svg">
<g clip-path="url(#clip0_96_43)">
<path d="M254.109 276.645C254.119 275.123 253.816 273.615 253.218 272.215C252.619 270.816 251.739 269.555 250.631 268.511C249.524 267.467 248.213 266.662 246.781 266.147C245.348 265.633 243.825 265.419 242.307 265.519C240.788 265.619 239.306 266.032 237.954 266.73C236.602 267.429 235.408 268.399 234.448 269.58C233.487 270.76 232.78 272.126 232.371 273.592C231.962 275.058 231.86 276.593 232.07 278.1L200.259 319.761C198.901 322.475 198.375 325.531 198.745 328.543C199.116 331.556 200.368 334.392 202.343 336.697L204.839 339.608L216.288 337.318L229.266 325.867L227.739 312.89L243.769 287.699L243.748 287.681C246.554 287.503 249.187 286.262 251.111 284.212C253.036 282.162 254.107 279.456 254.109 276.645V276.645Z" fill="#FFB9B9"/>
<path d="M34.1141 480.317L28.9211 461.03L100.84 431.823L108.504 460.288L34.1141 480.317Z" fill="#FFB8B8"/>
<path d="M16.7432 490.265L0 428.081L0.786553 427.87C7.20598 426.142 14.049 427.034 19.8104 430.351C25.5718 433.667 29.7797 439.137 31.5086 445.556L31.5091 445.557L41.7351 483.537L16.7432 490.265Z" fill="#2F2E41"/>
<path d="M133.179 477.234L117.027 465.488L154.65 397.592L178.49 414.929L133.179 477.234Z" fill="#FFB8B8"/>
<path d="M125.912 495.889L73.8275 458.011L74.3065 457.352C78.2167 451.976 84.1023 448.373 90.6687 447.336C97.2352 446.299 103.945 447.912 109.322 451.822L109.323 451.823L141.134 474.957L125.912 495.889Z" fill="#2F2E41"/>
<path d="M270.488 382.356L229.839 342.869C226.292 339.423 221.619 337.373 216.681 337.097C211.743 336.822 206.871 338.338 202.962 341.368L126.212 426.632L133.083 437.319L206.365 387.7L255.983 452.586L303.312 428.922L270.488 382.356Z" fill="#2F2E41"/>
<path d="M252.931 390.753L223.16 388.463L201.599 383.236C200.381 381.337 198.612 379.854 196.529 378.987C194.445 378.121 192.146 377.911 189.94 378.387C187.734 378.863 185.726 380.001 184.185 381.65C182.644 383.298 181.643 385.378 181.317 387.611C180.99 389.844 181.354 392.123 182.358 394.144C183.363 396.165 184.961 397.83 186.939 398.917C188.916 400.005 191.179 400.462 193.424 400.228C195.668 399.994 197.788 399.08 199.498 397.608L199.495 397.624L212.473 402.967L268.199 422.051L275.069 416.708L252.931 390.753Z" fill="#FFB9B9"/>
<path d="M324.686 473.198L307.892 483.885H288.045L195.678 449.533L60.5632 473.961L56.7465 444.952L180.412 390.754L288.809 426.632L324.686 473.198Z" fill="#2F2E41"/>
<path d="M288.808 287.699C305.25 287.699 318.579 274.37 318.579 257.928C318.579 241.486 305.25 228.157 288.808 228.157C272.365 228.157 259.036 241.486 259.036 257.928C259.036 274.37 272.365 287.699 288.808 287.699Z" fill="#FFB9B9"/>
<path d="M365.839 376.791C365.839 394.759 363.008 412.614 357.45 429.7L355.221 436.555L344.534 485.41L333.083 488.464L324.686 477.777L307.892 465.563L295.679 445.716L285.205 428.265L281.938 422.815L270.487 365.562L226.976 341.135L212.472 338.845L215.525 330.448L228.503 312.89L241.48 311.364L245.297 308.31L248.35 309.837L265.182 316.321L319.755 293.264L327.74 294.57L355.221 317.471C362.246 336.459 365.841 356.545 365.839 376.791V376.791Z" fill="#CCCCCC"/>
<path opacity="0.1" d="M357.51 370.143L328.503 389.226L285.206 428.264L281.939 422.815L272.778 377.013H275.068L298.733 333.502L357.51 370.143Z" fill="black"/>
<path d="M298.732 328.921L275.067 372.432L261.327 387.7L249.113 390.753L281.938 426.631L328.503 384.646L357.51 365.562L298.732 328.921Z" fill="#CCCCCC"/>
<path d="M265.651 235.792L262.426 237.033C261.936 236.702 261.517 236.277 261.191 235.783C260.865 235.289 260.64 234.737 260.529 234.156C260.417 233.575 260.42 232.978 260.539 232.399C260.658 231.82 260.89 231.27 261.222 230.78C261.239 230.754 261.257 230.729 261.275 230.703L255.314 230.424C259.14 225.328 264.005 221.103 269.587 218.027C275.169 214.952 281.34 213.097 287.693 212.585C294.045 212.073 300.434 212.915 306.436 215.057C312.438 217.199 317.918 220.591 322.511 225.008C322.782 224.074 325.741 225.892 326.949 227.736C327.355 226.215 330.129 233.567 331.11 238.765C331.564 237.034 333.31 239.828 331.78 242.508C332.75 242.367 333.188 244.847 332.437 246.229C333.498 245.731 333.319 248.691 332.169 250.67C333.682 250.536 332.04 281.707 309.328 279.436C307.747 272.171 308.192 272.622 306.33 263.281C305.464 262.361 304.515 261.523 303.567 260.687L298.443 256.163C292.484 250.903 287.063 244.412 279.125 242.446C273.67 241.095 270.22 240.79 273.193 234.643C270.507 235.764 267.999 237.431 265.289 238.472C265.325 237.613 265.704 236.651 265.651 235.792Z" fill="#2F2E41"/>
<path d="M303.694 266.707C306.645 266.707 309.037 264.315 309.037 261.363C309.037 258.412 306.645 256.02 303.694 256.02C300.743 256.02 298.35 258.412 298.35 261.363C298.35 264.315 300.743 266.707 303.694 266.707Z" fill="#FFB9B9"/>
<path d="M54.5053 135.16L52.8746 159.646L77.3605 161.277L78.9912 136.791L54.5053 135.16Z" fill="#DA251D"/>
<path d="M38.7071 148.162L68.4404 150.142L66.4603 179.875L36.727 177.895L38.7071 148.162ZM67.0616 151.349L39.9138 149.541L38.1058 176.688L65.2536 178.496L67.0616 151.349Z" fill="#DA251D"/>
<path d="M192.879 62.5523L168.886 67.7076L174.042 91.7L198.034 86.5448L192.879 62.5523Z" fill="#F8C300"/>
<path d="M176.039 50.9312L182.299 80.0649L153.165 86.3249L146.905 57.1912L176.039 50.9312ZM180.76 79.0704L175.044 52.4701L148.444 58.1857L154.16 84.786L180.76 79.0704Z" fill="#F8C300"/>
<path d="M167.668 177.773L149.758 194.549L166.534 212.459L184.445 195.683L167.668 177.773Z" fill="#1DA838"/>
<path d="M185.732 175.263L163.984 195.634L143.613 173.886L165.361 153.515L185.732 175.263ZM164.044 193.803L183.901 175.203L165.301 155.346L145.444 173.946L164.044 193.803Z" fill="#1DA838"/>
<path d="M1093.88 0H367.809C365.185 -2.98254e-06 362.586 0.516912 360.161 1.52123C357.737 2.52555 355.534 3.9976 353.678 5.85334C351.822 7.70908 350.35 9.91218 349.346 12.3368C348.342 14.7615 347.825 17.3602 347.825 19.9846V424.54C347.825 427.164 348.342 429.763 349.346 432.188C350.35 434.612 351.822 436.815 353.678 438.671C355.534 440.527 357.737 441.999 360.161 443.003C362.586 444.008 365.185 444.525 367.809 444.525H1093.88C1099.18 444.525 1104.26 442.419 1108.01 438.671C1111.76 434.923 1113.87 429.84 1113.87 424.54V19.9846C1113.87 14.6844 1111.76 9.6012 1108.01 5.85336C1104.26 2.10552 1099.18 3.01176e-06 1093.88 0V0Z" fill="#3F3D56"/>
<path d="M1087.08 35.3183H374.618V437.217H1087.08V35.3183Z" fill="white"/>
<g clip-path="url(#clip1_96_43)">
<path opacity="0.1" d="M642.589 150.717C619.022 149.898 596.559 142.289 575.141 133.967C553.723 125.644 532.495 116.421 509.479 112.011C494.682 109.172 477.759 108.772 465.838 116.706C454.364 124.338 450.658 137.514 448.665 149.739C447.165 158.938 446.295 168.618 450.394 177.231C453.247 183.209 458.311 188.235 461.814 193.961C473.998 213.886 465.385 238.458 452.178 257.929C445.984 267.067 438.798 275.762 434.019 285.479C429.24 295.196 427.027 306.328 431.21 316.238C435.356 326.053 445.233 333.438 455.935 338.627C477.671 349.156 503.282 352.168 528.257 353.895C583.542 357.675 639.124 356.037 694.553 354.399C715.068 353.79 735.673 353.177 755.852 349.999C767.059 348.236 778.631 345.44 786.767 338.691C797.094 330.122 799.656 315.615 792.734 304.869C781.125 286.85 749.029 282.372 740.913 263.033C736.448 252.389 741.034 240.529 747.526 230.656C761.447 209.479 784.787 190.898 786.016 166.689C786.862 150.06 775.642 133.412 758.293 125.543C740.11 117.288 714.895 118.33 701.482 131.973C687.669 146.029 663.395 151.438 642.589 150.717Z" fill="#00B0FF"/>
<path d="M510.992 349.395C510.992 349.395 492.377 335.322 488.86 317.421C487.434 309.903 483.609 303.05 477.958 297.889C475.255 295.461 472.336 293.286 469.236 291.391" stroke="#535461" stroke-width="2" stroke-miterlimit="10"/>
<path d="M466.958 280.113C468.59 282.319 469.328 291.671 469.328 291.671C469.328 291.671 460.605 288.236 458.971 286.032C458.186 284.973 457.854 283.645 458.047 282.341C458.241 281.037 458.945 279.864 460.005 279.079C461.064 278.294 462.392 277.962 463.696 278.156C465 278.35 466.173 279.054 466.958 280.113V280.113Z" fill="#00B0FF"/>
<path d="M482.602 287.45C482.771 290.189 478.314 298.44 478.314 298.44C478.314 298.44 472.854 290.811 472.682 288.073C472.616 286.768 473.067 285.489 473.938 284.514C474.808 283.539 476.028 282.947 477.333 282.865C478.637 282.783 479.921 283.218 480.907 284.077C481.893 284.935 482.5 286.147 482.599 287.45H482.602Z" fill="#00B0FF"/>
<path d="M497.765 308.542C496.533 310.993 488.515 315.867 488.515 315.867C488.515 315.867 487.659 306.525 488.891 304.075C489.497 302.922 490.532 302.054 491.772 301.657C493.012 301.259 494.359 301.365 495.522 301.951C496.685 302.536 497.572 303.555 497.991 304.788C498.411 306.021 498.33 307.369 497.765 308.542V308.542Z" fill="#00B0FF"/>
<path d="M505.648 327.077C504.846 329.7 497.768 335.856 497.768 335.856C497.768 335.856 495.342 326.796 496.144 324.169C496.529 322.909 497.4 321.854 498.564 321.235C499.727 320.617 501.089 320.486 502.35 320.871C503.61 321.257 504.665 322.127 505.284 323.291C505.903 324.455 506.033 325.817 505.648 327.077V327.077Z" fill="#00B0FF"/>
<path d="M470.245 305.074C472.952 305.439 481.512 301.574 481.512 301.574C481.512 301.574 474.289 295.59 471.568 295.224C470.262 295.048 468.94 295.399 467.892 296.198C466.844 296.998 466.157 298.181 465.982 299.487C465.806 300.793 466.157 302.116 466.956 303.163C467.756 304.211 468.939 304.898 470.245 305.074V305.074Z" fill="#00B0FF"/>
<path d="M479.739 326.637C482.446 326.173 489.442 319.928 489.442 319.928C489.442 319.928 480.757 316.381 478.053 316.845C477.406 316.951 476.785 317.184 476.229 317.531C475.672 317.878 475.189 318.332 474.809 318.867C474.428 319.401 474.158 320.006 474.012 320.646C473.866 321.286 473.849 321.948 473.961 322.594C474.072 323.241 474.311 323.859 474.663 324.413C475.015 324.967 475.473 325.445 476.011 325.821C476.548 326.197 477.155 326.463 477.796 326.603C478.437 326.743 479.1 326.755 479.745 326.637H479.739Z" fill="#00B0FF"/>
<path d="M491.839 346.332C494.583 346.332 502.537 341.361 502.537 341.361C502.537 341.361 494.58 336.396 491.835 336.396C490.517 336.396 489.254 336.92 488.322 337.851C487.39 338.783 486.867 340.047 486.867 341.364C486.867 342.682 487.39 343.946 488.322 344.877C489.254 345.809 490.517 346.332 491.835 346.332H491.839Z" fill="#00B0FF"/>
<path d="M691.832 227.675C691.832 227.675 703.305 207.351 720.6 201.496C727.862 199.084 734.147 194.382 738.511 188.096C740.558 185.091 742.324 181.904 743.787 178.576" stroke="#535461" stroke-width="2" stroke-miterlimit="10"/>
<path d="M754.645 174.853C752.675 176.761 743.506 178.738 743.506 178.738C743.506 178.738 745.757 169.634 747.727 167.721C748.678 166.831 749.94 166.35 751.242 166.381C752.544 166.412 753.782 166.954 754.689 167.889C755.596 168.824 756.1 170.077 756.091 171.38C756.083 172.682 755.564 173.929 754.645 174.853Z" fill="#00B0FF"/>
<path d="M749.46 191.312C746.753 191.846 737.997 188.523 737.997 188.523C737.997 188.523 744.834 182.092 747.524 181.568C748.17 181.424 748.839 181.411 749.49 181.53C750.141 181.648 750.762 181.895 751.316 182.257C751.87 182.619 752.347 183.087 752.717 183.636C753.088 184.184 753.345 184.801 753.474 185.45C753.603 186.099 753.601 186.767 753.468 187.415C753.335 188.064 753.074 188.679 752.7 189.225C752.326 189.771 751.847 190.237 751.291 190.595C750.735 190.954 750.112 191.197 749.46 191.312V191.312Z" fill="#00B0FF"/>
<path d="M730.588 209.142C727.996 208.245 722.103 200.947 722.103 200.947C722.103 200.947 731.241 198.856 733.84 199.753C734.465 199.96 735.042 200.289 735.538 200.721C736.035 201.153 736.44 201.679 736.731 202.27C737.023 202.86 737.194 203.502 737.235 204.158C737.276 204.815 737.186 205.473 736.971 206.095C736.755 206.717 736.419 207.29 735.98 207.78C735.542 208.271 735.01 208.67 734.416 208.953C733.822 209.236 733.178 209.399 732.521 209.432C731.864 209.464 731.207 209.366 730.588 209.142V209.142Z" fill="#00B0FF"/>
<path d="M713.245 219.417C710.538 218.971 703.511 212.76 703.511 212.76C703.511 212.76 712.172 209.152 714.877 209.598C716.178 209.812 717.342 210.535 718.111 211.607C718.88 212.678 719.191 214.012 718.977 215.313C718.763 216.615 718.041 217.778 716.969 218.547C715.897 219.316 714.564 219.628 713.262 219.414L713.245 219.417Z" fill="#00B0FF"/>
<path d="M730.351 181.405C730.347 184.15 735.326 192.114 735.326 192.114C735.326 192.114 740.299 184.16 740.299 181.419C740.316 180.755 740.2 180.095 739.959 179.478C739.717 178.86 739.354 178.297 738.891 177.822C738.428 177.347 737.874 176.969 737.263 176.711C736.652 176.453 735.995 176.32 735.332 176.32C734.668 176.32 734.011 176.453 733.4 176.711C732.789 176.969 732.235 177.347 731.772 177.822C731.31 178.297 730.946 178.86 730.705 179.478C730.463 180.095 730.347 180.755 730.364 181.419L730.351 181.405Z" fill="#00B0FF"/>
<path d="M710.238 193.677C711.056 196.297 718.177 202.406 718.177 202.406C718.177 202.406 720.545 193.329 719.72 190.709C719.292 189.495 718.409 188.495 717.258 187.919C716.108 187.343 714.778 187.236 713.55 187.621C712.322 188.006 711.291 188.852 710.675 189.982C710.058 191.111 709.904 192.436 710.244 193.677H710.238Z" fill="#00B0FF"/>
<path d="M692.342 208.288C692.708 210.996 698.692 218.229 698.692 218.229C698.692 218.229 702.553 209.683 702.188 206.965C702.115 206.307 701.912 205.669 701.589 205.09C701.267 204.512 700.832 204.003 700.31 203.595C699.788 203.187 699.19 202.887 698.551 202.714C697.912 202.54 697.244 202.496 696.587 202.585C695.931 202.673 695.298 202.891 694.728 203.228C694.157 203.564 693.659 204.011 693.263 204.542C692.868 205.074 692.583 205.679 692.424 206.322C692.266 206.966 692.238 207.634 692.342 208.288V208.288Z" fill="#00B0FF"/>
<path opacity="0.25" d="M754.645 174.853C752.675 176.761 743.506 178.738 743.506 178.738C743.506 178.738 745.757 169.634 747.727 167.721C748.678 166.831 749.94 166.35 751.242 166.381C752.544 166.412 753.782 166.954 754.689 167.889C755.596 168.824 756.1 170.077 756.091 171.38C756.083 172.682 755.564 173.929 754.645 174.853Z" fill="black"/>
<path opacity="0.25" d="M749.46 191.312C746.753 191.846 737.997 188.523 737.997 188.523C737.997 188.523 744.834 182.092 747.524 181.568C748.17 181.424 748.839 181.411 749.49 181.53C750.141 181.648 750.762 181.895 751.316 182.257C751.87 182.619 752.347 183.087 752.717 183.636C753.088 184.184 753.345 184.801 753.474 185.45C753.603 186.099 753.601 186.767 753.468 187.415C753.335 188.064 753.074 188.679 752.7 189.225C752.326 189.771 751.847 190.237 751.291 190.595C750.735 190.954 750.112 191.197 749.46 191.312V191.312Z" fill="black"/>
<path opacity="0.25" d="M730.588 209.142C727.996 208.245 722.103 200.947 722.103 200.947C722.103 200.947 731.241 198.856 733.84 199.753C734.465 199.96 735.042 200.289 735.538 200.721C736.035 201.153 736.44 201.679 736.731 202.27C737.023 202.86 737.194 203.502 737.235 204.158C737.276 204.815 737.186 205.473 736.971 206.095C736.755 206.717 736.419 207.29 735.98 207.78C735.542 208.271 735.01 208.67 734.416 208.953C733.822 209.236 733.178 209.399 732.521 209.432C731.864 209.464 731.207 209.366 730.588 209.142V209.142Z" fill="black"/>
<path opacity="0.25" d="M713.245 219.417C710.538 218.971 703.511 212.76 703.511 212.76C703.511 212.76 712.172 209.152 714.877 209.598C716.178 209.812 717.342 210.535 718.111 211.607C718.88 212.678 719.191 214.012 718.977 215.313C718.763 216.615 718.041 217.778 716.969 218.547C715.897 219.316 714.564 219.628 713.262 219.414L713.245 219.417Z" fill="black"/>
<path opacity="0.25" d="M730.351 181.405C730.347 184.15 735.326 192.114 735.326 192.114C735.326 192.114 740.299 184.16 740.299 181.419C740.316 180.755 740.2 180.095 739.959 179.478C739.717 178.86 739.354 178.297 738.891 177.822C738.428 177.347 737.874 176.969 737.263 176.711C736.652 176.453 735.995 176.32 735.332 176.32C734.668 176.32 734.011 176.453 733.4 176.711C732.789 176.969 732.235 177.347 731.772 177.822C731.31 178.297 730.946 178.86 730.705 179.478C730.463 180.095 730.347 180.755 730.364 181.419L730.351 181.405Z" fill="black"/>
<path opacity="0.25" d="M710.238 193.677C711.056 196.297 718.177 202.406 718.177 202.406C718.177 202.406 720.545 193.329 719.72 190.709C719.292 189.495 718.409 188.495 717.258 187.919C716.108 187.343 714.778 187.236 713.55 187.621C712.322 188.006 711.291 188.852 710.675 189.982C710.058 191.111 709.904 192.436 710.244 193.677H710.238Z" fill="black"/>
<path opacity="0.25" d="M692.342 208.288C692.708 210.996 698.692 218.229 698.692 218.229C698.692 218.229 702.553 209.683 702.188 206.965C702.115 206.307 701.912 205.669 701.589 205.09C701.267 204.512 700.832 204.003 700.31 203.595C699.788 203.187 699.19 202.887 698.551 202.714C697.912 202.54 697.244 202.496 696.587 202.585C695.931 202.673 695.298 202.891 694.728 203.228C694.157 203.564 693.659 204.011 693.263 204.542C692.868 205.074 692.583 205.679 692.424 206.322C692.266 206.966 692.238 207.634 692.342 208.288V208.288Z" fill="black"/>
<path d="M692.491 227.272C692.491 227.272 694.745 204.041 708.168 191.687C713.83 186.539 717.67 179.694 719.114 172.179C719.771 168.606 720.098 164.98 720.092 161.348" stroke="#535461" stroke-width="2" stroke-miterlimit="10"/>
<path d="M728.506 153.509C727.491 156.055 719.896 161.578 719.896 161.578C719.896 161.578 718.264 152.342 719.29 149.797C719.784 148.574 720.743 147.598 721.956 147.083C723.169 146.568 724.538 146.556 725.76 147.05C726.982 147.544 727.958 148.503 728.473 149.716C728.988 150.929 729 152.297 728.506 153.52V153.509Z" fill="#00B0FF"/>
<path d="M730.44 170.676C728.196 172.253 718.83 172.771 718.83 172.771C718.83 172.771 722.479 164.127 724.723 162.55C725.255 162.152 725.862 161.864 726.507 161.704C727.152 161.545 727.823 161.516 728.48 161.621C729.136 161.725 729.765 161.96 730.329 162.312C730.893 162.663 731.381 163.125 731.763 163.668C732.146 164.212 732.415 164.827 732.556 165.476C732.697 166.126 732.706 166.797 732.582 167.45C732.459 168.103 732.206 168.725 731.837 169.279C731.469 169.832 730.994 170.306 730.44 170.673V170.676Z" fill="#00B0FF"/>
<path d="M720.401 194.632C717.666 194.862 709.32 190.571 709.32 190.571C709.32 190.571 716.833 184.952 719.568 184.722C720.881 184.612 722.185 185.027 723.191 185.878C724.198 186.728 724.826 187.944 724.936 189.257C725.047 190.571 724.631 191.874 723.78 192.881C722.93 193.887 721.714 194.515 720.401 194.625V194.632Z" fill="#00B0FF"/>
<path d="M708.72 211.044C706.063 211.721 697.114 208.922 697.114 208.922C697.114 208.922 703.568 202.115 706.225 201.425C707.501 201.094 708.856 201.284 709.992 201.952C711.128 202.62 711.952 203.712 712.282 204.987C712.613 206.263 712.424 207.617 711.756 208.753C711.087 209.889 709.996 210.713 708.72 211.044V211.044Z" fill="#00B0FF"/>
<path d="M708.958 169.363C710.068 171.871 717.832 177.147 717.832 177.147C717.832 177.147 719.152 167.86 718.042 165.352C717.488 164.179 716.498 163.268 715.283 162.815C714.067 162.362 712.723 162.402 711.537 162.927C710.351 163.452 709.417 164.421 708.935 165.625C708.453 166.829 708.461 168.175 708.958 169.373V169.363Z" fill="#00B0FF"/>
<path d="M695.541 188.729C697.352 190.791 706.334 193.492 706.334 193.492C706.334 193.492 704.818 184.235 703.007 182.173C702.58 181.673 702.057 181.262 701.47 180.965C700.882 180.668 700.241 180.491 699.585 180.443C698.928 180.396 698.269 180.48 697.645 180.69C697.021 180.899 696.445 181.231 695.95 181.665C695.455 182.1 695.052 182.628 694.763 183.22C694.474 183.812 694.306 184.455 694.268 185.112C694.23 185.769 694.323 186.427 694.541 187.048C694.76 187.669 695.1 188.241 695.541 188.729V188.729Z" fill="#00B0FF"/>
<path d="M685.086 209.348C686.521 211.683 694.918 215.863 694.918 215.863C694.918 215.863 694.989 206.484 693.564 204.146C692.855 203.066 691.753 202.305 690.492 202.024C689.231 201.743 687.91 201.964 686.809 202.641C685.708 203.318 684.915 204.396 684.596 205.648C684.277 206.9 684.459 208.227 685.103 209.348H685.086Z" fill="#00B0FF"/>
<path d="M675.23 136.292C675.792 134.231 676.469 132.16 676.943 130.071C676.374 132.16 675.694 134.238 675.23 136.292Z" fill="url(#paint0_linear_96_43)"/>
<path d="M672.712 156.146C672.665 156.065 672.631 155.984 672.594 155.909C672.594 155.875 672.56 155.848 672.546 155.814C672.473 155.849 672.397 155.88 672.32 155.906C672.171 155.963 672.018 156.017 671.863 156.061C671.707 156.105 671.643 156.129 671.524 156.156C671.426 156.19 671.325 156.216 671.223 156.234L671.25 156.295C671.375 156.268 671.497 156.244 671.622 156.21L671.656 156.63C671.798 156.63 671.93 156.61 672.059 156.61C672.12 156.606 672.181 156.606 672.242 156.61C672.506 156.61 672.736 156.61 672.919 156.61C672.848 156.457 672.773 156.298 672.712 156.146ZM741.42 265.512C739.829 263.369 736.654 240.374 736.654 240.374C736.654 240.374 730.41 224.024 732.112 217.498C733.815 210.973 727.462 194.277 727.462 194.277C727.462 194.277 723.265 192.452 723.038 189.745C723.038 189.745 705.902 184.329 705.099 180.268C704.45 176.938 693.822 174.548 690.004 173.793C688.84 169.095 687.669 164.712 686.806 162.32C686.572 161.575 686.352 160.932 686.149 160.424C684.69 156.701 680.182 156.363 676.912 156.661C676.771 156.026 676.508 155.425 676.137 154.89C676.083 154.707 675.976 154.543 675.829 154.42C675.759 154.36 675.684 154.306 675.606 154.257C675.547 154.148 675.469 154.049 675.376 153.966C675.283 153.883 675.181 153.81 675.071 153.75C674.993 153.707 674.911 153.67 674.828 153.638C674.631 153.563 674.428 153.508 674.222 153.472C673.981 153.423 673.736 153.391 673.491 153.378C674.088 153.116 674.621 152.727 675.051 152.237C675.344 151.893 675.561 151.492 675.691 151.059C675.798 150.699 675.846 150.324 675.833 149.949C675.745 150.104 675.643 150.25 675.528 150.386C675.67 148.886 674.878 147.363 674.425 145.871C673.875 143.927 673.773 141.885 674.127 139.897C674.58 136.898 675.704 133.865 676.466 130.813C676.468 130.796 676.468 130.779 676.466 130.762C676.865 129.246 677.112 127.694 677.204 126.128C677.336 122.971 676.527 119.819 675.227 116.943C674.073 114.394 672.37 111.886 669.764 110.85C667.828 110.069 665.659 110.194 663.574 110.065C658.896 109.774 654.435 108.129 649.988 106.633C645.54 105.137 640.964 103.777 636.284 104.037C631.603 104.298 626.786 106.555 624.651 110.698C623.974 111.991 623.585 113.429 622.776 114.644C621.259 116.936 618.545 118.083 616.281 119.664C614.016 121.244 612.023 123.488 611.204 126.166C610.756 127.608 610.693 129.142 611.021 130.616V130.616C611.095 130.949 611.189 131.277 611.305 131.598C611.626 132.492 612.127 133.311 612.777 134.004C613.268 134.517 613.831 134.953 614.449 135.301V135.301C615.226 135.731 616.057 136.054 616.92 136.262C616.89 136.363 616.859 136.472 616.825 136.577C616.771 136.749 616.724 136.915 616.673 137.101C616.561 137.517 616.457 137.94 616.369 138.367C616.365 138.397 616.365 138.428 616.369 138.458C615.953 140.383 615.744 142.348 615.746 144.317C615.745 145.248 615.793 146.179 615.888 147.106V147.106C617.242 160.84 628.58 171.674 642.589 172.378C643.07 172.402 643.554 172.416 644.044 172.416C644.268 172.416 644.488 172.416 644.721 172.416C644.941 172.707 645.158 173.005 645.364 173.296C645.571 173.587 645.76 173.885 645.94 174.176L645.449 173.668L644.958 173.218C644.825 173.4 644.677 173.571 644.515 173.729C644.195 173.616 643.868 173.524 643.537 173.451V173.451C642.132 173.14 639.993 173.025 637.177 173.874C634.588 174.65 631.423 176.244 627.721 179.273L609.677 190.103L599.916 196.04L596.399 204.637C596.399 204.637 593.756 214.851 590.815 226.555C590.7 226.589 590.588 226.623 590.476 226.664C590.238 226.636 589.998 226.623 589.759 226.623C588.052 226.619 586.411 227.276 585.179 228.457C583.947 229.638 583.22 231.25 583.152 232.956C577.303 240.063 576.972 247.171 578.346 250.433C578.47 250.739 578.627 251.031 578.813 251.303C579.713 252.603 581.395 255.954 583.101 259.524C583.057 259.819 583.03 260.066 583.017 260.252C583.013 260.313 583.013 260.374 583.017 260.435C583.017 260.435 584.032 275.77 580.647 280.167C579.906 281.125 580.018 282.384 580.647 283.778C582.915 288.794 591.881 295.492 591.881 295.492C591.881 295.492 602.634 295.435 608.625 294.781C608.608 295.384 608.594 295.983 608.581 296.569C608.445 302.485 608.445 307.443 608.445 307.443L608.222 313.647C608.222 313.647 606.191 326.722 605.176 330.326C604.536 332.587 605.274 353.521 605.917 368.91H711.862C713.107 359.806 711.351 332.144 711.351 332.144C711.351 332.144 709.682 324.992 709.621 318.758C709.618 318.751 709.616 318.743 709.616 318.736C709.616 318.728 709.618 318.721 709.621 318.714C709.621 318.169 709.621 317.637 709.642 317.116L710.41 317.089L711.791 317.042H711.916C711.916 317.042 711.95 316.913 712.028 316.703C712.21 316.181 712.46 315.684 712.769 315.224C713.358 314.354 714.279 313.502 715.663 313.444C716.428 313.414 717.612 312.794 718.949 311.88C718.958 311.882 718.967 311.882 718.976 311.88C722.574 309.447 727.33 304.955 728.484 304.218C730.071 303.202 737.673 296.433 737.673 296.433C737.673 296.433 738.807 294.998 740.015 293.269L740.059 293.208C741.562 291.042 743.159 288.452 742.767 287.637C742.09 286.174 743.22 282.678 743.22 282.678C746.75 276.217 743.01 267.654 741.42 265.512ZM675.972 161.409C676.004 161.51 676.024 161.615 676.032 161.72C675.948 161.609 675.863 161.49 675.779 161.382L675.697 161.274L675.64 161.192L675.768 161.016C675.768 161.016 675.768 161.016 675.768 161.04C675.858 161.15 675.927 161.275 675.972 161.409V161.409ZM674.834 158.41C674.465 158.485 674.174 158.553 673.985 158.603C673.744 158.177 673.514 157.75 673.308 157.317C673.85 157.632 674.362 157.998 674.834 158.41V158.41ZM674.198 158.945C674.197 158.938 674.197 158.932 674.198 158.925L674.225 158.945C674.364 159.037 674.499 159.125 674.624 159.216C674.736 159.297 674.838 159.375 674.939 159.456C674.872 159.575 674.797 159.696 674.723 159.795C674.604 159.609 674.492 159.429 674.384 159.243C674.316 159.169 674.256 159.067 674.198 158.945ZM672.167 154.769C672.821 154.704 673.48 154.704 674.134 154.769V154.769C674.225 154.769 674.306 154.785 674.388 154.799C674.571 154.827 674.751 154.874 674.926 154.938C675.326 155.497 675.572 156.152 675.64 156.837L675.457 156.864L675.278 156.897C674.939 156.955 674.601 157.013 674.337 157.067L673.998 157.138C673.548 157.236 673.288 157.31 673.277 157.314C673.233 157.222 673.189 157.138 673.142 157.05C673.068 156.904 672.99 156.755 672.922 156.61C672.854 156.464 672.766 156.298 672.695 156.146C672.648 156.065 672.614 155.984 672.577 155.909C672.577 155.875 672.543 155.848 672.529 155.814C672.51 155.778 672.493 155.741 672.479 155.703C672.272 155.283 672.083 154.863 671.9 154.45C671.88 154.41 671.863 154.366 671.846 154.325L672.103 154.308V154.396L672.167 154.769ZM591.414 364.727C591.387 359.687 591.021 354.235 590.006 349.117C589.573 346.941 589.126 344.765 588.672 342.626C588.557 342.091 588.445 341.563 588.334 341.035L587.291 341.174H587.197C584.353 327.767 581.382 315.955 581.382 315.955C581.382 315.955 575.479 293.417 576.163 291.62C576.251 291.387 576.139 290.757 575.889 289.833C574.46 284.709 568.497 270.589 566.412 265.762C566.412 265.742 566.395 265.718 566.388 265.701C566.05 264.892 565.806 264.347 565.731 264.188L566.222 256.986L566.249 256.553L566.314 255.632L566.286 255.608L566.314 255.182C566.314 255.182 561.162 250.958 552.437 247.909C552.098 247.787 551.739 247.668 551.384 247.553C551.821 244.639 552.399 241.349 553.154 238.144C553.225 237.823 553.303 237.511 553.384 237.196C553.455 236.882 553.537 236.577 553.618 236.269C553.746 235.768 553.885 235.274 554.027 234.787C554.498 234.638 554.962 234.472 555.418 234.296L555.594 234.228C561.223 232.038 565.868 227.882 568.668 222.531C571.469 217.179 572.235 210.994 570.825 205.121V205.121C570.021 201.79 568.537 198.661 566.466 195.932C566.31 195.722 566.144 195.512 565.978 195.306C565.813 195.099 565.613 194.869 565.427 194.659C566.405 192.435 567.559 190.32 567.654 188.157C567.671 187.883 567.671 187.609 567.654 187.335V187.301C567.529 185.91 566.913 184.502 565.478 183.023C563.382 180.853 560.401 179.753 557.419 179.225C554.437 178.697 551.398 178.684 548.399 178.329C543.427 177.733 538.583 176.2 533.611 175.729C527.487 175.162 521.321 176.212 515.731 178.775C512.031 180.468 508.284 183.426 508.061 187.484C507.878 190.838 510.214 194.053 509.625 197.367C509.039 200.623 505.722 203.185 506.013 206.478C506.125 207.764 506.785 208.915 507.611 209.94C507.895 210.279 508.196 210.617 508.508 210.956C509.713 212.232 511.039 213.457 511.713 215.065C511.74 215.132 511.767 215.2 511.791 215.268C512.363 216.855 512.106 218.862 510.691 219.773C510.699 219.779 510.705 219.787 510.708 219.796V219.796C510.728 219.823 510.748 219.844 510.765 219.871C510.767 219.865 510.767 219.859 510.765 219.854C511.267 220.449 511.943 220.87 512.698 221.059L512.986 221.147C512.752 221.401 512.532 221.665 512.309 221.942L512.163 222.135C511.79 222.637 511.451 223.162 511.148 223.709C510.975 224.013 510.809 224.318 510.671 224.623C510.207 225.551 509.871 226.538 509.672 227.557C509.31 229.798 509.821 232.133 509.273 234.326C508.596 237.034 506.453 239.112 505.245 241.627C502.957 246.365 504.253 251.926 504.714 257.159C505.34 264.266 504.324 271.404 503.312 278.464C502.775 282.219 502.238 285.977 501.701 289.738C500.347 299.179 498.994 308.62 497.64 318.061C497.146 321.52 496.56 325.168 494.255 327.839H494.279C494.279 327.839 494.279 327.859 494.255 327.866C494.947 328.168 495.683 328.358 496.435 328.427V328.427C499.444 328.729 502.632 327.273 505.34 325.683C507.484 324.444 509.515 323.018 511.408 321.421C511.131 322.437 510.833 323.544 510.515 324.735C510.516 324.746 510.516 324.758 510.515 324.769V324.769C506.694 339.322 500.547 366.003 500.547 366.003C500.547 366.003 499.989 367.164 499.264 368.893H594.71C593.593 367.54 592.554 366.243 591.742 365.197L591.414 364.727ZM520.743 230.156C520.767 230.116 520.784 230.079 520.807 230.041C520.807 230.15 520.807 230.255 520.807 230.356C520.807 230.458 520.807 230.549 520.807 230.644C520.807 230.739 520.807 230.728 520.807 230.776C520.807 230.823 520.807 230.776 520.807 230.776C520.807 230.915 520.777 231.053 520.753 231.192C520.753 231.192 520.753 231.209 520.753 231.223L521.092 231.348L521.484 231.51C523.804 232.426 526.153 233.256 528.531 233.998C528.775 234.076 529.022 234.15 529.269 234.221L529.32 234.641C529.381 235.071 529.438 235.507 529.492 235.944C529.492 235.944 529.492 235.964 529.492 235.978C529.645 237.186 529.794 238.391 529.926 239.569C529.926 239.569 523.711 237.2 523.789 240.798C523.786 240.862 523.786 240.926 523.789 240.99C523.782 241.076 523.782 241.162 523.789 241.248C523.847 244.05 524.723 245.712 524.899 246.565C524.889 246.6 524.87 246.633 524.845 246.66C524.695 246.986 524.643 247.35 524.696 247.705C524.69 248.311 524.738 248.916 524.838 249.513C524.656 249.625 524.476 249.736 524.297 249.851C524.162 249.936 524.033 250.031 523.901 250.125C523.071 247.245 521.984 244.445 520.655 241.759C519.724 239.843 518.679 237.846 518.689 235.744C518.689 235.609 518.689 235.47 518.706 235.331C518.743 234.722 518.859 234.121 519.051 233.541C519.129 233.321 519.213 233.104 519.308 232.891C519.529 232.385 519.777 231.89 520.049 231.409C520.225 231.091 520.411 230.776 520.591 230.458C520.648 230.363 520.703 230.265 520.757 230.17L520.743 230.156ZM672.712 156.146C672.665 156.065 672.631 155.984 672.594 155.909C672.594 155.875 672.56 155.848 672.546 155.814C672.473 155.849 672.397 155.88 672.32 155.906C672.171 155.963 672.018 156.017 671.863 156.061C671.707 156.105 671.643 156.129 671.524 156.156L671.223 156.234L671.25 156.295C671.375 156.268 671.497 156.244 671.622 156.21L671.656 156.63C671.798 156.63 671.93 156.61 672.059 156.61H672.242C672.506 156.61 672.736 156.61 672.919 156.61C672.848 156.457 672.773 156.298 672.712 156.146Z" fill="url(#paint1_linear_96_43)"/>
<path d="M598.758 205.858L596.727 206.755C596.727 206.755 583.49 258.18 583.49 262.337C583.49 266.493 611.559 289.62 611.559 289.62L615.938 260.059C615.938 260.059 609.65 192.269 598.758 205.858Z" fill="#E8F5FF"/>
<path d="M660.327 189.501L648.6 183.382C647.943 180.581 646.777 177.926 645.161 175.546C643.445 173.069 641.164 170.635 638.321 169.366C631.135 166.144 668.714 149.231 668.714 149.231C669.306 151.263 670.003 153.263 670.803 155.222C672.739 160.001 675.951 166.181 680.09 167.941C687.126 170.937 660.327 189.501 660.327 189.501Z" fill="#FFC1C7"/>
<path opacity="0.1" d="M670.802 155.222C669.197 160.869 665.858 165.869 661.257 169.516C656.656 173.163 651.025 175.272 645.161 175.546C643.445 173.069 641.164 170.635 638.321 169.366C631.135 166.144 668.714 149.231 668.714 149.231C669.306 151.263 670.003 153.263 670.802 155.222V155.222Z" fill="black"/>
<path d="M671.858 146.683C671.859 152.221 670.218 157.636 667.142 162.241C664.066 166.847 659.693 170.437 654.577 172.557C649.46 174.677 643.83 175.233 638.398 174.153C632.966 173.073 627.976 170.406 624.059 166.49C620.143 162.574 617.476 157.585 616.395 152.153C615.315 146.721 615.869 141.09 617.989 135.973C620.108 130.857 623.698 126.483 628.303 123.407C632.908 120.33 638.323 118.688 643.861 118.689C647.542 118.672 651.19 119.384 654.594 120.785C657.999 122.186 661.092 124.247 663.695 126.85C666.298 129.453 668.359 132.546 669.761 135.95C671.162 139.354 671.875 143.002 671.858 146.683V146.683Z" fill="#FFC1C7"/>
<path d="M675.899 185.907L668.264 203.723L661.529 215.549H639.969L633.68 199.381L636.229 182.613H652.695L663.326 182.014L666.917 180.816L669.232 182.129L675.899 185.907Z" fill="#575A89"/>
<path opacity="0.1" d="M673.27 162.157C673.27 162.157 678.032 163.172 673.768 166.669C669.503 170.165 654.79 181.283 654.79 181.283C654.79 181.283 659.958 185.886 658.889 191.278L676.012 181.733L679.058 166.462C679.058 166.462 679.4 161.873 673.27 162.157Z" fill="black"/>
<path opacity="0.1" d="M658.158 181.283L647.266 183.08C647.266 183.08 649.513 191.39 648.39 193.749C648.356 193.822 648.327 193.898 648.305 193.975L643.861 205.987L647.192 215.42L658.72 199.699L654.79 193.749C654.79 193.749 658.943 188.245 661.414 186.336C663.885 184.427 658.158 181.283 658.158 181.283Z" fill="black"/>
<path d="M658.158 180.82L647.266 182.613C647.266 182.613 649.513 190.922 648.39 193.281C648.356 193.355 648.327 193.43 648.305 193.508L643.861 205.52L647.192 214.953L658.72 199.221L654.79 193.271C654.79 193.271 658.943 187.768 661.414 185.859C663.885 183.95 658.158 180.82 658.158 180.82Z" fill="#DCE6F2"/>
<path d="M673.727 161.26C673.727 161.26 678.489 162.276 674.221 165.772C669.953 169.268 654.79 181.283 654.79 181.283C654.79 181.283 660.405 184.989 659.339 190.378L676.461 180.837L679.508 165.565C679.508 165.565 679.846 160.976 673.727 161.26Z" fill="#575A89"/>
<path opacity="0.1" d="M645.909 176.606C645.909 176.606 646.948 178.549 651.534 182.052C651.534 182.052 643.898 186.113 646.819 191.823L635.139 188.777L633.342 183.162L645.909 176.606Z" fill="black"/>
<path d="M645.459 176.159C645.459 176.159 646.498 178.102 651.084 181.605C651.084 181.605 643.448 185.646 646.369 191.373L634.692 188.326L632.895 182.715L645.459 176.159Z" fill="#575A89"/>
<path opacity="0.1" d="M675.899 185.907L668.264 203.723L661.542 215.549H639.969L633.68 199.381L636.225 182.613H640.805C640.73 186.526 642.159 191.122 642.067 192.831C641.912 195.641 646.257 210.797 646.257 210.797C646.257 210.797 655.352 196.087 658.943 194.777C661.2 193.955 665.983 187.111 669.228 182.129L675.899 185.907Z" fill="black"/>
<path d="M705.979 279.662L705.204 280.637C705.204 280.637 710.819 308.82 709.265 315.221C709.001 316.374 708.85 317.551 708.815 318.734V318.785C708.541 325.296 710.507 333.748 710.507 333.748C710.507 333.748 712.078 358.658 711.184 368.903H606.052C605.436 353.754 604.773 334.127 605.375 331.95C606.39 328.359 608.421 315.332 608.421 315.332L608.645 309.159C608.645 309.159 608.645 303.192 608.827 296.545C608.905 293.556 609.02 290.418 609.186 287.636C609.399 284.137 609.697 281.189 610.107 279.74C610.359 278.642 610.504 277.522 610.54 276.396C610.54 276.291 610.54 276.183 610.56 276.075C610.56 275.736 610.594 275.371 610.608 274.995C610.608 274.89 610.608 274.785 610.608 274.657C610.672 272.477 610.648 269.891 610.577 267.211C610.577 267.065 610.577 266.916 610.577 266.767C610.52 264.757 610.435 262.706 610.34 260.756C610.046 254.664 609.663 249.513 609.663 249.513L596.751 206.732L600.231 198.162L609.887 192.246L627.741 181.466C636.449 174.308 642.183 175.167 644.369 175.952C644.581 176.025 644.789 176.11 644.992 176.206C645.059 176.24 645.114 176.267 645.164 176.298C645.234 176.331 645.301 176.369 645.364 176.413V176.413C644.765 176.701 644.245 177.129 643.848 177.662C643.4 178.268 643.081 178.959 642.91 179.692C642.796 180.147 642.716 180.61 642.67 181.077C642.626 181.567 642.609 182.075 642.609 182.586C642.633 183.707 642.729 184.825 642.897 185.934C642.897 185.954 642.897 185.981 642.897 186.008C643.008 186.8 643.147 187.575 643.283 188.303C643.281 188.315 643.281 188.328 643.283 188.34C643.438 189.19 643.594 189.975 643.699 190.652C643.719 190.774 643.736 190.885 643.753 190.99C643.828 191.437 643.863 191.89 643.858 192.344C643.896 193.439 644.043 194.527 644.298 195.593C644.386 196.04 644.487 196.517 644.599 197.015C644.751 197.692 644.917 198.429 645.097 199.181C645.195 199.594 645.3 200.02 645.408 200.443C645.449 200.612 645.493 200.782 645.533 200.954L645.601 201.222C646.322 204.088 647.104 206.942 647.584 208.668C647.869 209.683 648.048 210.309 648.048 210.309C648.048 210.309 653.145 202.068 657.214 197.377C657.274 197.309 657.329 197.245 657.386 197.184C657.789 196.72 658.185 196.297 658.564 195.925C659.393 195.099 660.138 194.51 660.737 194.293C660.865 194.247 660.988 194.189 661.106 194.121C662.771 193.177 665.458 189.748 667.973 186.157C668.22 185.818 668.461 185.45 668.704 185.101C669.263 184.295 669.804 183.487 670.315 182.711C670.708 182.119 671.084 181.544 671.439 180.995C673.131 178.362 674.323 176.399 674.323 176.399L676.672 176.294L677.081 176.274H677.355L688.02 175.78C688.02 175.78 688.48 175.858 689.239 176.01C689.279 176.01 689.32 176.01 689.364 176.037C693.148 176.788 703.66 179.168 704.303 182.468C705.089 186.509 722.045 191.901 722.045 191.901C722.269 194.608 726.422 196.392 726.422 196.392C726.422 196.392 732.71 213.01 731.028 219.522C729.366 225.953 735.354 241.86 735.513 242.307L734.365 243.755L705.979 279.662Z" fill="#E8F5FF"/>
<path opacity="0.1" d="M673.267 160.976C673.267 160.976 683.648 158.031 686.007 164.093C688.366 170.155 693.642 194.636 693.642 194.636C693.642 194.636 679.941 197.218 676.35 194.636C674.244 193.103 671.637 192.421 669.05 192.727L661.302 198.003L659.014 197.326C659.014 197.326 671.409 178.901 674.103 172.639C676.797 166.377 677.708 163.578 673.267 160.976Z" fill="black"/>
<path d="M672.816 159.622C672.816 159.622 683.204 156.677 685.573 162.739C687.942 168.801 693.208 193.281 693.208 193.281C693.208 193.281 679.511 195.864 675.917 193.281C673.812 191.749 671.205 191.067 668.619 191.372L660.865 196.649L658.577 195.972C658.577 195.972 670.972 177.547 673.666 171.285C676.36 165.024 677.257 162.231 672.816 159.622Z" fill="#E8F5FF"/>
<path opacity="0.1" d="M603.138 257.284C603.138 257.284 610.885 259.193 612.347 263.572C613.809 267.952 606.621 268.063 606.621 268.063C606.621 268.063 602.241 260.316 603.138 257.284Z" fill="black"/>
<path opacity="0.1" d="M631.995 289.62C631.995 289.62 613.021 328.471 617.4 332.177C621.78 335.883 631.995 289.62 631.995 289.62Z" fill="black"/>
<path opacity="0.1" d="M658.157 260.99C658.157 260.99 673.318 298.729 670.285 304.557C667.252 310.385 676.797 304.557 676.797 304.557L658.157 260.99Z" fill="black"/>
<path d="M679.267 298.268C679.267 298.268 628.065 300.738 643.001 316.683C657.938 332.627 688.589 317.36 688.589 317.36L679.267 298.268Z" fill="#FFC1C7"/>
<path opacity="0.1" d="M671.858 146.683C671.863 150.355 671.142 153.992 669.736 157.385C669.266 157.439 668.795 157.473 668.342 157.493C667.665 156.007 668.027 154.291 668.04 152.657C668.054 151.022 667.451 149.099 665.878 148.659C662.74 147.776 660.574 153.641 657.481 152.582C655.111 151.777 655.731 148.182 654.367 146.107C653.287 144.466 651.124 144.002 649.442 142.973C645.865 140.777 645.973 137.264 644.311 133.94C642.571 130.457 638.896 131.486 635.704 133.541C633.281 135.104 631.189 137.199 628.597 138.445C626.353 139.528 623.831 139.92 621.343 139.978C619.812 140.037 618.28 139.875 616.794 139.497C618.542 132.929 622.618 127.221 628.263 123.437C633.909 119.652 640.738 118.051 647.478 118.93C654.217 119.81 660.406 123.11 664.892 128.217C669.377 133.323 671.852 139.886 671.855 146.683H671.858Z" fill="black"/>
<path d="M635.715 132.644C633.288 134.207 631.2 136.299 628.608 137.551C626.364 138.631 623.842 139.024 621.355 139.081C618.308 139.149 615.029 138.614 612.947 136.414C611.035 134.383 610.578 131.259 611.387 128.596C612.196 125.932 614.135 123.722 616.413 122.121C618.691 120.52 621.334 119.413 622.844 117.122C623.642 115.91 624.028 114.482 624.692 113.193C626.814 109.067 631.586 106.833 636.199 106.555C640.812 106.278 645.385 107.652 649.778 109.141C654.171 110.63 658.598 112.269 663.234 112.577C665.299 112.705 667.445 112.577 669.36 113.358C671.936 114.404 673.625 116.905 674.776 119.451C676.065 122.321 676.867 125.455 676.732 128.589C676.448 135.28 672.027 141.846 673.97 148.257C674.485 149.966 675.449 151.719 674.935 153.428C674.183 155.923 670.965 156.491 668.362 156.61C667.685 155.124 668.047 153.405 668.061 151.773C668.074 150.142 667.472 148.216 665.901 147.776C662.761 146.899 660.595 152.755 657.508 151.699C655.156 150.89 655.765 147.299 654.397 145.224C653.318 143.579 651.152 143.119 649.473 142.09C645.896 139.893 646.004 136.38 644.342 133.057C642.589 129.557 638.91 130.586 635.715 132.644Z" fill="#99607E"/>
<path d="M586.066 261.437L583.483 262.337C583.483 262.337 584.499 277.608 581.114 281.988C577.729 286.367 592.229 297.256 592.229 297.256C592.229 297.256 612.104 297.144 612.666 295.563C613.228 293.983 611.651 267.268 611.651 267.268C611.651 267.268 600.982 263.112 601.879 256.488C601.879 256.488 598.623 272.095 593.797 271.421C588.97 270.748 583.49 266.717 586.066 261.437Z" fill="#E8F5FF"/>
<path opacity="0.1" d="M594.68 276.146C598.443 276.146 601.493 273.356 601.493 269.915C601.493 266.474 598.443 263.684 594.68 263.684C590.917 263.684 587.867 266.474 587.867 269.915C587.867 273.356 590.917 276.146 594.68 276.146Z" fill="black"/>
<path d="M602.13 261.887C602.13 261.887 600.776 220.568 588.991 229.774C577.205 238.98 577.09 249.99 579.334 253.243C581.578 256.495 588.774 272.778 588.774 272.778C589.899 273.431 591.164 273.807 592.463 273.877C593.762 273.946 595.059 273.707 596.248 273.179C597.436 272.65 598.483 271.848 599.302 270.837C600.121 269.826 600.688 268.636 600.958 267.363L602.13 261.887Z" fill="#FFC1C7"/>
<path opacity="0.1" d="M675.646 157.226C675.591 157.044 675.485 156.882 675.341 156.759C674.759 156.227 673.507 156.041 671.618 156.204L671.696 157.097C674.214 156.881 674.712 157.382 674.776 157.466V157.551L674.854 157.662C675.168 158.084 675.39 158.567 675.507 159.08C675.623 159.593 675.632 160.125 675.531 160.641C674.979 163.399 671.591 165.596 671.557 165.62L671.476 165.667L671.425 165.745C669.963 167.914 661.695 174.037 659.532 175.621L659.342 175.404C658.374 176.244 649.865 183.693 649.405 186.546C649.107 188.337 647.09 189.031 646.359 189.224C645.587 188.638 643.083 186.645 641.78 184.411C640.558 182.309 645.476 178.207 645.909 176.606L645.232 175.912C645.161 176.169 638.845 182.072 640.602 185.088C642.01 187.508 644.582 189.579 645.482 190.263C645.195 192.876 643.404 208.218 640.653 211.853C637.234 216.371 634.361 239.143 634.679 247.093C634.96 254.157 633.115 267.499 626.955 273.229C625.889 274.264 624.602 275.046 623.191 275.514C621.781 275.983 620.283 276.128 618.808 275.936H618.734H618.659C618.571 275.936 609.636 276.85 602.129 270.521C595.986 265.353 592.507 256.918 591.782 245.445H591.634L591.573 242.104C593.238 241.844 594.738 240.949 595.757 239.606C596.777 238.263 597.236 236.578 597.038 234.904C596.841 233.23 596.002 231.697 594.699 230.628C593.395 229.56 591.728 229.038 590.047 229.172C588.367 229.307 586.804 230.088 585.687 231.35C584.571 232.613 583.987 234.26 584.058 235.944C584.13 237.628 584.852 239.219 586.072 240.382C587.292 241.546 588.915 242.191 590.601 242.182H590.676L590.737 245.502L590.439 245.523C591.183 257.369 594.839 266.131 601.269 271.543C606.157 275.594 612.401 277.637 618.737 277.26C619.187 277.309 619.639 277.334 620.091 277.334C622.996 277.349 625.79 276.225 627.876 274.204C634.364 268.162 636.337 254.329 636.029 247.025C635.691 238.601 638.706 216.649 641.732 212.652C644.697 208.729 646.494 193.444 646.809 190.483C647.882 190.181 650.309 189.23 650.722 186.76C651.02 184.973 656.702 179.466 660.199 176.416L660.094 176.295C661.976 174.92 667.828 170.588 670.728 167.806C671.628 166.943 672.522 166.08 673.456 165.257C674.58 164.262 676.008 162.682 676.384 160.813C676.512 160.197 676.512 159.56 676.386 158.943C676.259 158.326 676.007 157.742 675.646 157.226V157.226Z" fill="black"/>
<path d="M645.367 190.049C645.225 189.951 641.854 187.538 640.165 184.634C638.412 181.618 644.728 175.719 644.795 175.462L645.472 176.156C645.043 177.753 640.124 181.859 641.346 183.957C642.886 186.607 646.129 188.926 646.163 188.949L645.367 190.049Z" fill="#353146"/>
<path d="M659.092 176.277L658.564 175.55C658.672 175.472 669.303 167.782 670.978 165.295L671.033 165.22L671.11 165.169C671.144 165.146 674.532 162.953 675.084 160.191C675.186 159.675 675.178 159.144 675.061 158.631C674.945 158.119 674.722 157.637 674.407 157.216L674.329 157.101V157.019C674.261 156.931 673.764 156.434 671.246 156.651L671.168 155.754C673.06 155.591 674.309 155.777 674.891 156.309C675.036 156.433 675.143 156.596 675.199 156.779C675.565 157.294 675.822 157.878 675.953 158.495C676.085 159.113 676.088 159.751 675.964 160.37C675.588 162.242 674.163 163.822 673.036 164.814C672.105 165.636 671.209 166.506 670.312 167.363C666.91 170.622 659.464 176.01 659.092 176.277Z" fill="#E8F5FF"/>
<path d="M591.136 240.926L590.239 240.942L590.339 246.394L591.235 246.377L591.136 240.926Z" fill="#E8F5FF"/>
<path d="M590.164 241.752C593.781 241.752 596.713 238.82 596.713 235.203C596.713 231.586 593.781 228.654 590.164 228.654C586.548 228.654 583.615 231.586 583.615 235.203C583.615 238.82 586.548 241.752 590.164 241.752Z" fill="#00B0FF"/>
<path d="M590.164 240.642C593.168 240.642 595.604 238.207 595.604 235.203C595.604 232.199 593.168 229.764 590.164 229.764C587.16 229.764 584.725 232.199 584.725 235.203C584.725 238.207 587.16 240.642 590.164 240.642Z" fill="#E8F5FF"/>
<path d="M619.665 276.898C619.212 276.898 618.76 276.875 618.311 276.826C611.975 277.2 605.732 275.157 600.843 271.11C594.412 265.695 590.763 256.942 590.012 245.086L591.366 245.001C592.09 256.475 595.57 264.913 601.716 270.078C609.223 276.39 618.155 275.493 618.243 275.493H618.318H618.392C619.867 275.683 621.365 275.538 622.776 275.07C624.187 274.601 625.474 273.82 626.542 272.785C632.699 267.055 634.543 253.713 634.263 246.65C633.924 238.692 636.798 215.921 640.219 211.406C643.215 207.449 645.073 189.616 645.093 189.437L645.144 188.929L645.645 188.841C645.675 188.841 648.6 188.286 648.965 186.099C649.439 183.25 657.935 175.8 658.899 174.957L659.783 175.973C656.273 179.019 650.59 184.529 650.306 186.319C649.893 188.797 647.466 189.745 646.396 190.043C646.058 193.007 644.274 208.289 641.319 212.212C638.294 216.209 635.278 238.161 635.616 246.585C635.907 253.889 633.955 267.725 627.466 273.763C625.377 275.79 622.575 276.916 619.665 276.898Z" fill="#353146"/>
<g opacity="0.1">
<path opacity="0.1" d="M674.742 138.682C675.297 136.631 675.967 134.566 676.434 132.488C675.876 134.576 675.202 136.631 674.742 138.682Z" fill="black"/>
<path opacity="0.1" d="M669.08 154.799C668.403 153.313 668.765 151.594 668.779 149.962C668.792 148.331 668.19 146.422 666.619 145.965C663.478 145.089 661.312 150.947 658.225 149.888C655.856 149.079 656.482 145.488 655.115 143.413C654.035 141.768 651.872 141.308 650.193 140.279C646.612 138.083 646.721 134.569 645.062 131.246C643.319 127.76 639.647 128.789 636.452 130.846C634.025 132.41 631.937 134.505 629.344 135.754C627.1 136.834 624.579 137.226 622.091 137.284C619.062 137.355 615.765 136.817 613.683 134.617C612.079 132.925 611.5 130.444 611.832 128.118C611.774 128.277 611.724 128.437 611.673 128.596C610.861 131.259 611.334 134.39 613.233 136.414C615.315 138.614 618.611 139.149 621.641 139.081C624.132 139.024 626.65 138.631 628.897 137.551C631.497 136.299 633.585 134.207 636.005 132.644C639.2 130.586 642.876 129.557 644.616 133.043C646.274 136.367 646.169 139.88 649.747 142.076C651.439 143.092 653.588 143.566 654.671 145.211C656.025 147.292 655.426 150.876 657.782 151.685C660.865 152.741 663.031 146.886 666.172 147.762C667.743 148.202 668.349 150.132 668.332 151.76C668.315 153.388 667.963 155.11 668.633 156.596C671.236 156.478 674.455 155.919 675.209 153.415C675.313 153.055 675.361 152.682 675.351 152.308C674.251 154.207 671.422 154.694 669.08 154.799Z" fill="black"/>
</g>
<path opacity="0.1" d="M730.25 238.195L734.18 242.351C734.18 242.351 737.324 265.255 738.894 267.397C740.465 269.54 744.174 278.062 740.692 284.462C740.692 284.462 739.568 287.945 740.241 289.404C740.915 290.863 735.192 298.163 735.192 298.163C735.192 298.163 727.667 304.899 726.094 305.911C724.52 306.923 716.214 315.005 713.408 315.117C710.602 315.228 709.685 318.711 709.685 318.711L693.852 319.273C693.852 319.273 685.106 318.816 683.204 320.051C683.204 320.051 684.219 306.689 674.448 297.93L686.91 293.438C686.91 293.438 691.628 291.408 693.087 289.286C694.004 287.985 695.306 287.003 696.81 286.48C696.81 286.48 700.289 284.009 700.401 282.662C700.513 281.315 704.655 279.663 704.655 279.663L702.31 259.643L703.545 226.407C703.545 226.407 707.475 198.558 715.784 200.132C724.093 201.706 730.25 238.195 730.25 238.195Z" fill="black"/>
<path d="M731.603 238.195L735.533 242.351C735.533 242.351 738.677 265.255 740.247 267.397C741.818 269.54 745.527 278.062 742.045 284.462C742.045 284.462 740.924 287.945 741.598 289.404C742.271 290.863 736.545 298.163 736.545 298.163C736.545 298.163 729.021 304.899 727.447 305.911C725.873 306.923 717.567 315.005 714.761 315.117C711.956 315.228 711.038 318.711 711.038 318.711L695.205 319.273C695.205 319.273 686.453 318.816 684.557 320.051C684.557 320.051 685.573 306.689 675.801 297.93L688.263 293.438C688.263 293.438 692.982 291.408 694.44 289.286C695.358 287.985 696.66 287.003 698.163 286.48C698.163 286.48 701.643 284.009 701.754 282.662C701.866 281.315 706.009 279.663 706.009 279.663L703.663 259.643L704.899 226.407C704.899 226.407 708.828 198.558 717.137 200.132C725.447 201.706 731.603 238.195 731.603 238.195Z" fill="#E8F5FF"/>
<path opacity="0.1" d="M716.995 271.77C716.995 271.77 728.56 268.724 731.593 272.447C734.626 276.17 716.995 271.77 716.995 271.77Z" fill="black"/>
<path opacity="0.1" d="M714.301 276.877C718.23 279.629 730.358 279.74 730.358 279.74L714.301 276.877Z" fill="black"/>
<path opacity="0.1" d="M720.25 290.632C720.589 290.744 728.588 299.28 731.946 296.697C735.304 294.115 720.25 290.632 720.25 290.632Z" fill="black"/>
<path opacity="0.1" d="M612.54 218.994C612.54 218.994 614.889 235.165 613.731 241.752C612.574 248.338 616.798 256.498 616.798 256.498L612.54 218.994Z" fill="black"/>
<path d="M560.539 225.57C557.832 227.692 555.855 232.715 554.423 238.235C551.925 247.864 551.11 259.03 551.11 259.03C551.11 259.03 529.55 254.089 531.12 251.845C532.108 250.433 530.782 239.799 529.675 232.088C529.015 227.533 528.426 223.996 528.426 223.996C528.426 223.996 567.952 219.728 560.539 225.57Z" fill="#FFCCD0"/>
<path opacity="0.1" d="M560.539 225.12C557.832 227.245 555.855 232.265 554.423 237.785C550.128 239.09 545.559 239.207 541.202 238.126C536.845 237.044 532.862 234.804 529.675 231.642C529.015 227.083 528.426 223.546 528.426 223.546C528.426 223.546 567.952 219.281 560.539 225.12Z" fill="black"/>
<path d="M572.127 213.024C572.13 218.911 570.049 224.608 566.254 229.109C562.459 233.609 557.195 236.622 551.392 237.614C545.59 238.606 539.623 237.513 534.549 234.529C529.474 231.545 525.619 226.862 523.666 221.309C521.712 215.755 521.786 209.69 523.875 204.186C525.963 198.682 529.931 194.094 535.077 191.235C540.223 188.376 546.214 187.429 551.991 188.562C557.768 189.695 562.957 192.836 566.641 197.428C570.191 201.851 572.126 207.352 572.127 213.024V213.024Z" fill="#FFCCD0"/>
<path opacity="0.1" d="M591.786 368.903H584.678L584.079 356.351L583.453 343.358C583.453 343.358 585.067 343.117 587.639 342.759L588.679 342.62H588.763C589.325 345.256 589.88 347.964 590.415 350.668C591.305 355.469 591.768 360.339 591.799 365.221C591.799 365.56 591.799 365.898 591.799 366.216C591.819 367.12 591.799 368.023 591.786 368.903Z" fill="black"/>
<path d="M590.422 368.903H501.285C501.671 368.027 501.928 367.495 501.928 367.495C501.928 367.495 509.059 336.296 512.684 323.097C512.685 323.085 512.685 323.074 512.684 323.063C513.137 321.27 513.684 319.502 514.322 317.766V317.766C514.364 317.648 514.417 317.535 514.482 317.427C516.275 314.51 518.523 311.366 515.378 306.874C512.234 302.383 513.348 282.621 513.348 282.621C513.348 282.621 517.166 265.776 521.207 256.793C521.82 255.402 522.69 254.138 523.772 253.07C524.124 252.726 524.499 252.407 524.896 252.115V252.115C525.197 251.889 525.512 251.68 525.837 251.489L525.901 251.449C527.599 250.486 529.484 249.901 531.428 249.733C532.809 249.588 534.203 249.627 535.574 249.848C542.127 250.809 547.373 252.417 551.543 254.248C562.844 259.213 566.266 265.867 566.333 266.006L566.361 266.063C566.814 267.123 573.448 282.61 575.837 289.836C576.457 291.718 576.795 293.042 576.66 293.404C575.983 295.198 581.825 317.654 581.825 317.654C581.825 317.654 584.532 328.485 587.24 341.18C587.359 341.708 587.47 342.236 587.579 342.771C588.063 345.076 588.543 347.425 589.007 349.77C589.905 354.604 590.369 359.509 590.391 364.426C590.441 365.958 590.451 367.45 590.422 368.903Z" fill="#FF748E"/>
<path opacity="0.1" d="M530.897 242.009C530.897 242.009 524.747 239.64 524.821 243.234C524.896 246.829 526.321 248.548 525.871 249.073C525.42 249.597 526.094 252.742 526.094 252.742C526.094 252.742 534.403 252.742 538.221 254.461C542.039 256.18 556.112 259.626 557.909 260.675C559.706 261.724 566.37 266.429 566.37 266.429L566.97 257.521C566.97 257.521 560.082 251.831 548.781 248.914C537.48 245.996 530.897 242.009 530.897 242.009Z" fill="black"/>
<path d="M530.897 241.559C530.897 241.559 524.747 239.19 524.821 242.784C524.896 246.379 526.321 248.098 525.871 248.623C525.42 249.147 526.094 252.292 526.094 252.292C526.094 252.292 534.403 252.292 538.221 254.014C542.039 255.737 556.112 259.179 557.909 260.225C559.706 261.271 566.371 265.979 566.371 265.979L566.977 257.098C566.977 257.098 560.089 251.408 548.788 248.491C537.487 245.573 530.897 241.559 530.897 241.559Z" fill="#FF748E"/>
<path opacity="0.1" d="M549.461 262.997C549.461 262.997 561.213 275.719 560.614 279.242C560.014 282.766 549.461 262.997 549.461 262.997Z" fill="black"/>
<path opacity="0.1" d="M530.372 308.955C530.372 308.955 521.759 316.893 519.22 317.343C516.682 317.793 521.167 319.289 524.084 318.094C527.001 316.899 533.222 313.755 533.222 313.755L530.372 308.955Z" fill="black"/>
<path d="M593.922 368.903H573.834C571.025 366.466 568.368 364.209 566.675 362.852C563.968 360.679 562.015 357.48 560.769 354.908C560.488 354.323 560.244 353.774 560.038 353.277C559.668 352.42 559.343 351.544 559.063 350.654L573.939 341.82C574.761 342.519 575.533 343.275 576.25 344.081L576.43 344.287C577.256 345.262 577.983 346.369 578.048 347.276C578.122 348.332 581.06 352.417 584.062 356.34C587.108 360.33 590.229 364.145 590.435 364.402C590.435 364.402 590.95 365.102 591.789 366.179C592.382 366.957 593.113 367.891 593.922 368.903Z" fill="#FFCCD0"/>
<path opacity="0.1" d="M566.642 197.428C565.928 199.039 565.288 200.711 565.193 202.504C564.926 207.683 565.359 219.261 559.626 221.861C556.786 223.14 553.747 220.331 550.633 220.263C548.392 220.216 546.338 221.637 544.97 223.414C543.603 225.191 542.753 227.3 541.762 229.31C540.859 231.135 539.819 232.888 538.651 234.556C538.302 235.066 537.917 235.552 537.5 236.008C534.004 234.533 530.891 232.279 528.398 229.418C525.905 226.558 524.097 223.166 523.114 219.501C522.13 215.836 521.996 211.995 522.722 208.271C523.447 204.546 525.014 201.037 527.301 198.009C529.589 194.982 532.537 192.516 535.922 190.801C539.307 189.085 543.039 188.165 546.833 188.111C550.627 188.056 554.384 188.868 557.817 190.485C561.249 192.102 564.268 194.481 566.642 197.441V197.428Z" fill="black"/>
<path d="M564.743 201.591C564.472 206.769 564.909 218.347 559.172 220.943C556.332 222.223 553.293 219.417 550.179 219.349C547.938 219.298 545.887 220.723 544.516 222.497C543.146 224.27 542.303 226.382 541.308 228.396C540.405 230.221 539.365 231.974 538.197 233.642C537.5 234.63 536.728 235.622 535.656 236.177C533.787 237.152 531.523 236.604 529.519 235.978C526.92 235.158 524.359 234.236 521.836 233.209C521.894 232.828 521.924 232.443 521.924 232.058C521.85 232.2 521.769 232.332 521.687 232.475L521.528 232.752C521.241 233.26 520.96 233.767 520.702 234.289C520.604 234.488 520.509 234.695 520.425 234.901C520.084 235.67 519.871 236.488 519.792 237.325C519.619 239.582 520.733 241.724 521.721 243.755C525.522 251.611 527.871 260.796 525.011 269.038C523.772 272.622 521.626 275.807 520.059 279.269C517.32 285.402 516.514 292.223 517.748 298.825C518.529 302.927 520.097 306.989 519.711 311.148C519.034 318.307 512.86 323.634 506.677 327.296C503.336 329.266 499.247 331.019 495.7 329.462C497.961 326.822 498.543 323.17 499.031 319.725C500.364 310.327 501.701 300.925 503.042 291.518C503.576 287.775 504.11 284.031 504.642 280.288C505.638 273.255 506.646 266.144 506.023 259.067C505.57 253.851 504.29 248.314 506.551 243.593C507.746 241.092 509.875 239.02 510.538 236.326C511.083 234.136 510.576 231.808 510.934 229.577C511.131 228.563 511.463 227.579 511.923 226.653C512.508 225.397 513.272 224.232 514.19 223.194C513.283 222.93 512.437 222.568 511.923 221.81C513.378 220.862 513.598 218.726 512.938 217.122C512.278 215.518 510.958 214.296 509.77 213.03C508.582 211.764 507.438 210.289 507.289 208.563C507.002 205.276 510.285 202.731 510.863 199.489C511.449 196.189 509.134 192.98 509.32 189.64C509.537 185.602 513.246 182.668 516.908 180.965C522.435 178.407 528.539 177.356 534.603 177.919C539.538 178.386 544.313 179.913 549.235 180.505C552.203 180.843 555.212 180.877 558.16 181.398C561.108 181.92 564.062 183.02 566.137 185.182C571.607 190.885 565.054 195.58 564.743 201.591Z" fill="#FFE0D0"/>
<path opacity="0.1" d="M560.167 354.912C558.441 354.164 555.3 354.611 549.908 352.969C544.517 351.328 543.478 343.909 543.478 343.909V343.885C543.413 343.716 542.912 342.612 539.521 338.747C535.774 334.479 527.675 312.923 527.675 312.923C527.675 312.923 520.493 305.209 520.719 302.366C520.946 299.523 519.443 291.959 519.592 283.497C519.741 275.036 535.761 269.424 535.761 269.424C566.605 263.958 559.341 299.517 558.519 302.211C557.696 304.905 561.964 312.182 561.964 312.182C561.362 315.35 564.435 320.254 564.435 320.254C564.435 320.254 565.18 324.593 565.332 326.241C565.341 326.317 565.358 326.392 565.383 326.465C565.877 328.018 569.905 329.426 571.543 330.282C573.266 331.183 578.806 339.042 578.806 339.042C580.001 344.812 561.887 355.67 560.167 354.912Z" fill="black"/>
<path d="M561.063 353.557C559.341 352.805 556.196 353.255 550.808 351.61C545.42 349.966 544.377 342.554 544.377 342.554V342.53C544.316 342.357 543.812 341.257 540.421 337.392C536.674 333.124 528.575 311.565 528.575 311.565C528.575 311.565 521.393 303.855 521.616 301.012C521.839 298.169 520.343 290.604 520.492 282.15C520.641 273.695 536.65 268.087 536.65 268.087C567.494 262.621 560.231 298.179 559.408 300.873C558.586 303.567 562.854 310.844 562.854 310.844C562.251 314.012 565.325 318.916 565.325 318.916C565.325 318.916 566.069 323.255 566.225 324.903C566.231 324.979 566.246 325.055 566.272 325.127C566.766 326.68 570.794 328.088 572.436 328.944C574.155 329.841 579.699 337.703 579.699 337.703C580.9 343.464 562.786 354.322 561.063 353.557Z" fill="#FF748E"/>
<path opacity="0.1" d="M537.26 286.651C537.26 286.651 550.734 300.868 554.25 300.868C557.767 300.868 537.26 286.651 537.26 286.651Z" fill="black"/>
<path d="M561.064 353.557C559.341 352.805 556.197 353.255 550.808 351.611C545.42 349.966 544.378 342.554 544.378 342.554V342.53C547.948 340.161 556.992 333.47 560.556 331.023C563.064 329.307 565.112 326.786 566.31 325.114C566.804 326.667 570.832 328.075 572.473 328.931C574.193 329.828 579.737 337.69 579.737 337.69C580.901 343.464 562.787 354.321 561.064 353.557Z" fill="#FF748E"/>
<g opacity="0.1">
<path opacity="0.1" d="M511.943 221.887C511.962 221.918 511.989 221.945 512.012 221.976C512.127 221.83 512.246 221.684 512.369 221.546C512.238 221.673 512.096 221.787 511.943 221.887V221.887Z" fill="black"/>
<path opacity="0.1" d="M519.795 237.362C519.937 235.483 520.943 233.828 521.884 232.177C521.268 231.94 520.652 231.7 520.042 231.449C520.1 231.069 520.13 230.686 520.13 230.302C519.179 231.994 518.144 233.659 517.998 235.565C517.825 237.826 518.939 239.965 519.927 241.995C523.732 249.847 526.077 259.033 523.217 267.278C521.975 270.859 519.833 274.047 518.265 277.509C515.527 283.641 514.722 290.461 515.957 297.062C516.732 301.167 518.303 305.225 517.917 309.385C517.24 316.543 511.07 321.871 504.883 325.529C502.354 327.025 499.4 328.396 496.574 328.298C496.312 328.719 496.02 329.121 495.7 329.499C499.251 331.066 503.336 329.303 506.677 327.327C512.867 323.671 519.051 318.357 519.728 311.186C520.113 307.026 518.543 302.968 517.765 298.863C516.529 292.262 517.332 285.443 520.066 279.31C521.623 275.851 523.789 272.659 525.018 269.078C527.878 260.834 525.529 251.648 521.728 243.796C520.743 241.752 519.623 239.623 519.795 237.362Z" fill="black"/>
<path opacity="0.1" d="M566.131 185.223C565.798 184.881 565.44 184.565 565.061 184.275C569.163 189.596 563.24 194.118 562.946 199.844C562.682 205.023 563.115 216.605 557.378 219.197C554.542 220.48 551.499 217.671 548.388 217.603C546.144 217.556 544.093 218.981 542.723 220.754C541.352 222.528 540.509 224.64 539.517 226.65C538.613 228.474 537.572 230.228 536.404 231.896C535.727 232.888 534.935 233.876 533.858 234.435C531.997 235.406 529.732 234.861 527.725 234.231C525.774 233.618 523.84 232.941 521.924 232.201C521.92 232.553 521.891 232.905 521.836 233.253C524.361 234.282 526.923 235.205 529.523 236.022C531.526 236.651 533.791 237.196 535.656 236.225C536.728 235.666 537.507 234.675 538.201 233.683C539.37 232.018 540.41 230.265 541.311 228.44C542.306 226.43 543.146 224.315 544.52 222.541C545.894 220.768 547.942 219.346 550.182 219.393C553.296 219.461 556.339 222.27 559.175 220.988C564.912 218.395 564.476 206.813 564.743 201.635C565.054 195.614 571.607 190.923 566.131 185.223Z" fill="black"/>
</g>
<path opacity="0.1" d="M521.532 232.755C521.244 233.263 520.963 233.771 520.706 234.292C520.608 234.492 520.513 234.698 520.428 234.905C518.655 233.118 514.336 228.87 511.926 227.554C512.512 226.298 513.276 225.133 514.194 224.095C514.194 224.095 519.937 227.131 521.532 232.755Z" fill="black"/>
<path d="M521.691 232.478C520.361 226.457 514.194 223.198 514.194 223.198C513.275 224.235 512.511 225.4 511.926 226.657C514.468 228.048 519.152 232.712 520.706 234.292L521.691 232.478Z" fill="#FF748E"/>
</g>
<rect x="429.5" y="104.5" width="366.612" height="263.9" rx="4.5" stroke="black"/>
<path d="M730.237 24.3574C734.272 24.3574 737.544 21.0859 737.544 17.0502C737.544 13.0145 734.272 9.743 730.237 9.743C726.201 9.743 722.929 13.0145 722.929 17.0502C722.929 21.0859 726.201 24.3574 730.237 24.3574Z" fill="white"/>
<path d="M986.988 413.403C1016.08 413.403 1039.66 389.82 1039.66 360.728C1039.66 331.637 1016.08 308.054 986.988 308.054C957.897 308.054 934.315 331.637 934.315 360.728C934.315 389.82 957.897 413.403 986.988 413.403Z" fill="#00B0FF"/>
<path d="M1009.02 386.04C998.141 386.04 987.503 382.813 978.454 376.767C969.406 370.722 962.353 362.129 958.188 352.075C954.024 342.022 952.934 330.959 955.057 320.286C957.18 309.613 962.421 299.81 970.116 292.115C977.811 284.42 987.616 279.18 998.289 277.057C1008.96 274.934 1020.03 276.024 1030.08 280.188C1040.14 284.353 1048.73 291.405 1054.77 300.453C1060.82 309.501 1064.05 320.138 1064.05 331.02C1064.05 338.245 1062.62 345.4 1059.86 352.075C1057.09 358.751 1053.04 364.816 1047.93 369.925C1042.82 375.034 1036.76 379.087 1030.08 381.852C1023.41 384.617 1016.25 386.04 1009.02 386.04V386.04ZM1009.02 276.719C998.284 276.719 987.784 279.904 978.854 285.871C969.924 291.837 962.963 300.318 958.853 310.24C954.743 320.162 953.667 331.08 955.763 341.613C957.858 352.147 963.03 361.822 970.625 369.416C978.219 377.01 987.896 382.182 998.43 384.277C1008.96 386.373 1019.88 385.297 1029.81 381.187C1039.73 377.077 1048.21 370.118 1054.18 361.188C1060.14 352.258 1063.33 341.76 1063.33 331.02C1063.33 323.889 1061.92 316.828 1059.2 310.24C1056.47 303.652 1052.47 297.666 1047.42 292.624C1042.38 287.581 1036.39 283.582 1029.81 280.853C1023.22 278.124 1016.16 276.719 1009.02 276.719L1009.02 276.719Z" fill="#1783C1"/>
<path opacity="0.6" d="M973.533 246.614H906.983V260.52H973.533V246.614Z" fill="#3F3D56"/>
<path opacity="0.6" d="M1036.5 171.276H844.022V177.236H1036.5V171.276Z" fill="#3F3D56"/>
<path opacity="0.6" d="M1036.5 194.691H844.022V200.651H1036.5V194.691Z" fill="#3F3D56"/>
<path opacity="0.6" d="M1036.5 218.105H844.022V224.066H1036.5V218.105Z" fill="#3F3D56"/>
<path d="M1036.68 59.3698H1008.85V87.1826H1036.68V59.3698Z" fill="#00B0FF"/>
<path d="M1049.58 100.096H1015.81V66.3233H1049.58V100.096ZM1017.28 98.6273H1048.11V67.7917H1017.28L1017.28 98.6273Z" fill="#1783C1"/>
<path d="M1133.87 429.91H1064.34V424.901C1064.34 424.77 1064.31 424.641 1064.26 424.521C1064.21 424.4 1064.14 424.291 1064.05 424.198C1063.96 424.106 1063.85 424.033 1063.73 423.983C1063.61 423.933 1063.48 423.907 1063.35 423.907H1039.51C1039.38 423.907 1039.25 423.933 1039.13 423.983C1039.01 424.033 1038.9 424.106 1038.8 424.198C1038.71 424.29 1038.64 424.4 1038.59 424.52C1038.54 424.641 1038.51 424.77 1038.51 424.901V429.91H1023.61V424.901C1023.61 424.77 1023.59 424.641 1023.54 424.521C1023.49 424.4 1023.42 424.29 1023.32 424.198C1023.23 424.106 1023.12 424.033 1023 423.983C1022.88 423.933 1022.75 423.907 1022.62 423.907H998.782C998.651 423.907 998.522 423.933 998.402 423.983C998.281 424.033 998.172 424.106 998.079 424.198C997.987 424.291 997.914 424.4 997.864 424.521C997.814 424.641 997.789 424.77 997.789 424.901V424.901V429.91H982.889V424.901C982.889 424.77 982.863 424.641 982.813 424.521C982.764 424.4 982.69 424.291 982.598 424.198C982.506 424.106 982.396 424.033 982.276 423.983C982.155 423.933 982.026 423.907 981.896 423.907H958.056C957.926 423.907 957.797 423.933 957.676 423.983C957.556 424.033 957.446 424.106 957.354 424.198C957.262 424.29 957.189 424.4 957.139 424.521C957.089 424.641 957.063 424.77 957.063 424.901V424.901V429.91H942.164V424.901C942.164 424.77 942.138 424.641 942.088 424.521C942.038 424.4 941.965 424.29 941.873 424.198C941.781 424.106 941.671 424.033 941.551 423.983C941.43 423.933 941.301 423.907 941.17 423.907H917.331C917.201 423.907 917.072 423.933 916.951 423.983C916.831 424.033 916.721 424.106 916.629 424.198C916.537 424.29 916.463 424.4 916.414 424.52C916.364 424.641 916.338 424.77 916.338 424.901V429.91H901.438V424.901C901.438 424.77 901.413 424.641 901.363 424.521C901.313 424.4 901.24 424.29 901.147 424.198C901.055 424.106 900.946 424.033 900.825 423.983C900.705 423.933 900.576 423.907 900.445 423.907H876.606C876.476 423.907 876.346 423.933 876.226 423.983C876.105 424.033 875.996 424.106 875.904 424.198C875.811 424.291 875.738 424.4 875.688 424.521C875.638 424.641 875.613 424.77 875.613 424.901V424.901V429.91H860.713V424.901C860.713 424.77 860.687 424.641 860.637 424.521C860.588 424.4 860.514 424.291 860.422 424.198C860.33 424.106 860.22 424.033 860.1 423.983C859.979 423.933 859.85 423.907 859.72 423.907H835.881C835.75 423.907 835.621 423.933 835.5 423.983C835.38 424.033 835.27 424.106 835.178 424.198C835.086 424.29 835.013 424.4 834.963 424.521C834.913 424.641 834.887 424.77 834.887 424.901V424.901V429.91H819.988V424.901C819.988 424.77 819.962 424.641 819.912 424.521C819.862 424.4 819.789 424.29 819.697 424.198C819.605 424.106 819.495 424.033 819.375 423.983C819.254 423.933 819.125 423.907 818.995 423.907H632.254C632.124 423.907 631.994 423.933 631.874 423.983C631.753 424.033 631.644 424.106 631.552 424.198C631.459 424.291 631.386 424.4 631.336 424.521C631.286 424.641 631.261 424.77 631.261 424.901V424.901V429.91H616.361V424.901C616.361 424.77 616.336 424.641 616.286 424.521C616.236 424.4 616.162 424.291 616.07 424.198C615.978 424.106 615.869 424.033 615.748 423.983C615.628 423.933 615.498 423.907 615.368 423.907H591.529C591.398 423.907 591.269 423.933 591.149 423.983C591.028 424.033 590.919 424.106 590.826 424.198C590.734 424.29 590.661 424.4 590.611 424.521C590.561 424.641 590.535 424.77 590.535 424.901V424.901V429.91H575.636V424.901C575.636 424.77 575.61 424.641 575.56 424.521C575.51 424.4 575.437 424.291 575.345 424.198C575.253 424.106 575.143 424.033 575.023 423.983C574.902 423.933 574.773 423.907 574.643 423.907H550.803C550.673 423.907 550.544 423.933 550.423 423.983C550.303 424.033 550.193 424.106 550.101 424.198C550.009 424.291 549.936 424.4 549.886 424.521C549.836 424.641 549.81 424.77 549.81 424.901V424.901V429.91H534.911V424.901C534.911 424.77 534.885 424.641 534.835 424.521C534.785 424.4 534.712 424.291 534.62 424.198C534.527 424.106 534.418 424.033 534.297 423.983C534.177 423.933 534.048 423.907 533.917 423.907H510.078C509.948 423.907 509.818 423.933 509.698 423.983C509.577 424.033 509.468 424.106 509.376 424.198C509.283 424.29 509.21 424.4 509.16 424.521C509.11 424.641 509.085 424.77 509.085 424.901V424.901V429.91H494.185V424.901C494.185 424.77 494.16 424.641 494.11 424.521C494.06 424.4 493.987 424.291 493.894 424.198C493.802 424.106 493.693 424.033 493.572 423.983C493.452 423.933 493.322 423.907 493.192 423.907H469.353C469.222 423.907 469.093 423.933 468.973 423.983C468.852 424.033 468.743 424.106 468.65 424.198C468.558 424.29 468.485 424.4 468.435 424.521C468.385 424.641 468.359 424.77 468.359 424.901V424.901V429.91H453.46V424.901C453.46 424.77 453.434 424.641 453.384 424.521C453.334 424.4 453.261 424.29 453.169 424.198C453.077 424.106 452.967 424.033 452.847 423.983C452.726 423.933 452.597 423.907 452.467 423.907H428.627C428.364 423.907 428.111 424.012 427.925 424.198C427.739 424.385 427.634 424.637 427.634 424.901V429.91H412.735V424.901C412.735 424.77 412.709 424.641 412.659 424.521C412.609 424.4 412.536 424.291 412.444 424.198C412.351 424.106 412.242 424.033 412.122 423.983C412.001 423.933 411.872 423.907 411.741 423.907H387.902C387.639 423.907 387.386 424.012 387.2 424.198C387.014 424.385 386.909 424.637 386.909 424.901V429.91H341.217C334.894 429.911 328.831 432.422 324.36 436.893C319.889 441.364 317.378 447.428 317.378 453.75V464.53C317.378 470.853 319.889 476.917 324.36 481.387C328.831 485.858 334.894 488.37 341.217 488.37H1133.87C1140.19 488.37 1146.26 485.858 1150.73 481.387C1155.2 476.917 1157.71 470.853 1157.71 464.53V453.75C1157.71 450.62 1157.09 447.52 1155.9 444.627C1154.7 441.735 1152.94 439.107 1150.73 436.893C1148.51 434.679 1145.89 432.923 1142.99 431.725C1140.1 430.527 1137 429.91 1133.87 429.91V429.91Z" fill="#3F3D56"/>
</g>
<defs>
<linearGradient id="paint0_linear_96_43" x1="676.086" y1="136.292" x2="676.086" y2="130.071" gradientUnits="userSpaceOnUse">
<stop stop-color="#808080" stop-opacity="0.25"/>
<stop offset="0.54" stop-color="#808080" stop-opacity="0.12"/>
<stop offset="1" stop-color="#808080" stop-opacity="0.1"/>
</linearGradient>
<linearGradient id="paint1_linear_96_43" x1="155706" y1="222979" x2="155706" y2="15643.3" gradientUnits="userSpaceOnUse">
<stop stop-color="#808080" stop-opacity="0.25"/>
<stop offset="0.54" stop-color="#808080" stop-opacity="0.12"/>
<stop offset="1" stop-color="#808080" stop-opacity="0.1"/>
</linearGradient>
<clipPath id="clip0_96_43">
<rect width="1157.71" height="495.889" fill="white"/>
</clipPath>
<clipPath id="clip1_96_43">
<rect x="429" y="104" width="367.612" height="264.9" rx="5" fill="white"/>
</clipPath>
</defs>
</svg>
