<svg width="1568" height="1638" viewBox="0 0 1568 1638" fill="none" xmlns="http://www.w3.org/2000/svg">
<g id="path">
<g id="path_2" style="mix-blend-mode:soft-light">
<path d="M910.635 2.98369L915.916 2.52904L917.817 23.4959L912.536 23.9505L910.635 2.98369ZM914.391 44.9714L919.672 44.5167L921.553 65.5355L916.229 65.9311L914.391 44.9714ZM918.15 86.984L923.431 86.5293L925.282 107.5L920.001 107.955L918.15 86.984ZM713.112 359.456C717.237 354.533 721.765 349.963 726.65 345.792L730.165 349.869C724.946 354.32 720.156 359.248 715.855 364.59L711.716 361.257L713.112 359.456ZM699.798 379.135L704.468 381.669C701.219 387.701 698.545 394.027 696.481 400.563L691.429 398.953C693.584 392.095 696.386 385.459 699.798 379.135V379.135ZM744.196 333.441C750.434 329.871 756.99 326.887 763.782 324.527L765.548 329.532C759.065 331.784 752.807 334.633 746.855 338.043L744.196 333.441ZM921.906 128.972L927.188 128.517L929.066 149.511L923.785 149.965L921.906 128.972ZM686.859 419.975L692.125 420.613C691.31 427.434 691.131 434.317 691.592 441.175L686.3 441.505C685.821 434.324 686.008 427.117 686.859 419.975V419.975ZM784.663 319.279C787.573 318.84 790.556 318.508 793.5 318.305C797.565 318.005 801.614 317.531 805.575 316.914L806.387 322.202C802.265 322.845 798.055 323.346 793.863 323.631C791.046 323.849 788.199 324.157 785.425 324.571L784.663 319.279ZM925.382 170.77L930.663 170.592C930.96 177.746 930.737 184.911 929.996 192.03L924.723 191.455C925.471 184.616 925.723 177.729 925.477 170.85L925.382 170.77ZM689.713 462.818L694.843 461.523C696.533 468.17 698.84 474.646 701.733 480.869L696.911 483.091C693.885 476.57 691.475 469.783 689.713 462.818V462.818ZM825.812 312.323C832.397 310.273 838.824 307.748 845.042 304.77L847.352 309.54C840.905 312.64 834.24 315.265 827.407 317.393L825.812 312.323ZM921.204 211.885L926.355 213.211C924.582 220.14 922.303 226.929 919.537 233.523L914.633 231.461C917.289 225.095 919.472 218.54 921.163 211.851L921.204 211.885ZM862.937 294.484C868.647 290.624 874.071 286.358 879.166 281.719L882.795 285.66C877.509 290.475 871.882 294.902 865.956 298.904L862.937 294.484ZM905.284 249.857L909.877 252.649C906.185 258.769 902.056 264.614 897.522 270.138L893.451 266.724C897.796 261.394 901.75 255.757 905.284 249.857V249.857ZM707.884 501.783L712.202 498.701C716.182 504.267 720.668 509.455 725.601 514.199L721.927 518.028C716.728 513.035 712 507.574 707.803 501.715L707.884 501.783ZM741.722 527.027C747.47 530.805 753.558 534.037 759.907 536.679L757.873 541.585C751.225 538.8 744.846 535.409 738.817 531.456L741.722 527.027ZM779.548 542.831C786.27 544.247 793.105 545.044 799.969 545.214L799.866 550.518C792.673 550.344 785.509 549.504 778.467 548.006L779.548 542.831ZM561.282 819.39C563.55 816.685 566.029 813.95 568.56 811.373L572.37 815.098C567.557 820.024 563.125 825.309 559.112 830.907L554.791 827.791C556.831 824.918 559.014 822.095 561.282 819.39V819.39ZM543.663 846.078L548.385 848.494C545.273 854.63 542.633 860.994 540.486 867.532L535.444 865.883C537.667 859.084 540.411 852.467 543.651 846.091L543.663 846.078ZM584.651 797.201C590.382 792.918 596.427 789.071 602.737 785.694L605.239 790.372C599.171 793.624 593.356 797.325 587.842 801.444L584.651 797.201ZM530.38 886.721L535.616 887.588C534.509 894.388 533.92 901.263 533.854 908.155L528.539 908.098C528.602 900.936 529.209 893.79 530.355 886.724L530.38 886.721ZM622.429 777.123C629.197 774.772 636.138 772.945 643.19 771.659L644.183 776.868C637.408 778.124 630.739 779.893 624.236 782.162L622.429 777.123ZM820.823 544.297L841.861 542.912L842.222 548.214L821.182 549.574L820.823 544.297ZM529.722 929.453L535.003 928.86C535.771 935.709 537.032 942.494 538.778 949.164L533.652 950.509C531.834 943.592 530.512 936.557 529.697 929.455L529.722 929.453ZM664.359 769.209L685.383 767.675L685.794 772.972L664.756 774.495L664.359 769.209ZM862.876 541.555L871.495 540.951C875.698 540.588 879.92 540.467 884.139 540.59L884.012 545.896C879.976 545.777 875.938 545.89 871.917 546.235L863.194 546.797L862.876 541.555ZM706.421 766.153L727.491 764.565L727.889 769.851L706.864 771.384L706.421 766.153ZM540.68 970.846L545.551 968.758C548.286 975.1 551.486 981.233 555.126 987.106L550.604 989.88C546.833 983.786 543.516 977.424 540.68 970.846ZM905.59 543.399C912.61 545.036 919.453 547.364 926.018 550.348L923.826 555.167C917.576 552.323 911.062 550.102 904.38 548.534L905.59 543.399ZM748.506 763.069L769.542 761.522L769.94 766.808L748.904 768.355L748.506 763.069ZM563.243 1007.27L567.281 1003.87C571.755 1009.15 576.611 1014.1 581.81 1018.68L578.313 1022.65C572.92 1017.9 567.884 1012.76 563.243 1007.27V1007.27ZM944.672 561.177C946.819 562.724 948.924 564.375 951 566.116C954.473 569.031 957.766 572.155 960.862 575.468L956.957 579.104C954.016 575.947 950.882 572.973 947.575 570.2C945.621 568.561 943.597 566.979 941.557 565.498L944.672 561.177ZM790.513 759.942L811.591 758.454L811.989 763.74L790.964 765.274L790.513 759.942ZM598.211 1031.12C604.014 1034.87 610.084 1038.2 616.372 1041.07L614.18 1045.89C607.655 1042.92 601.359 1039.46 595.345 1035.55L598.211 1031.12ZM832.627 756.906L853.652 755.372L854.063 760.67L833.025 762.192L832.627 756.906ZM969.48 595.48L974.002 592.707C977.789 598.852 980.949 605.361 983.434 612.134L978.463 613.955C976.099 607.512 973.089 601.322 969.48 595.48V595.48ZM874.701 753.836L889.079 752.787C891.237 752.639 893.414 752.414 895.533 752.118L896.278 757.349C894.047 757.667 891.771 757.9 889.488 758.059L875.11 759.109L874.701 753.836ZM635.831 1048.27C642.464 1050.17 649.227 1051.59 656.066 1052.5L655.402 1057.7C648.297 1056.78 641.27 1055.33 634.379 1053.36L635.831 1048.27ZM983.604 633.815L988.881 633.034C989.228 635.376 989.531 637.772 989.742 640.137C990.167 644.938 990.284 649.761 990.093 654.575L984.787 654.341C984.981 649.757 984.872 645.164 984.461 640.592C984.208 638.33 983.942 636.057 983.604 633.815ZM915.503 747.35C921.976 745.106 928.205 742.22 934.099 738.735L936.805 743.308C930.608 746.97 924.06 750.005 917.257 752.369L915.503 747.35ZM981.857 674.62L987.039 675.855C985.315 682.847 982.896 689.646 979.817 696.152L975.02 693.88C977.921 687.705 980.208 681.259 981.846 674.633L981.857 674.62ZM950.613 726.622C955.702 722.041 960.326 716.969 964.42 711.481L968.695 714.651C964.392 720.418 959.529 725.746 954.178 730.557L950.613 726.622ZM676.679 1053.66C679.874 1053.6 683.121 1053.42 686.337 1053.17L697.509 1052.19L698.031 1057.47L686.809 1058.45C683.496 1058.73 680.136 1058.91 676.827 1058.97L676.679 1053.66ZM718.529 1050.33L739.54 1048.51L740.013 1053.79L719.015 1055.62L718.529 1050.33ZM760.73 1046.86C767.931 1046.63 775.141 1047.1 782.256 1048.26L781.431 1053.49C774.654 1052.38 767.787 1051.93 760.929 1052.17L760.73 1046.86ZM803.129 1053.74C809.883 1056.29 816.374 1059.48 822.51 1063.29L819.691 1067.84C813.849 1064.22 807.671 1061.17 801.243 1058.75L803.129 1053.74ZM836.078 1080.27L839.684 1076.38C844.976 1081.28 849.774 1086.7 854.007 1092.54L849.716 1095.64C845.68 1090.09 841.117 1084.93 836.089 1080.25L836.078 1080.27ZM665.715 1325.2L669.888 1328.49C665.612 1333.9 661.718 1339.6 658.236 1345.55L653.598 1342.82C657.232 1336.67 661.285 1330.78 665.727 1325.18L665.715 1325.2ZM680.124 1309.34C685.302 1304.42 690.821 1299.87 696.642 1295.73L699.727 1300.05C694.117 1304.06 688.798 1308.45 683.809 1313.21L680.124 1309.34ZM644.098 1362.05L649.011 1364.08C646.412 1370.46 644.269 1377.02 642.597 1383.71L637.448 1382.41C639.211 1375.47 641.467 1368.66 644.198 1362.04L644.098 1362.05ZM714.866 1284.64C721.219 1281.36 727.8 1278.54 734.558 1276.21L736.323 1281.21C729.803 1283.47 723.452 1286.19 717.32 1289.35L714.866 1284.64ZM859.991 1113.4L864.833 1111.13C867.859 1117.68 870.224 1124.52 871.893 1131.54L866.729 1132.74C865.158 1126.09 862.934 1119.61 860.091 1113.4L859.991 1113.4ZM633.762 1403.51L639.046 1404.07C638.343 1410.94 638.126 1417.84 638.398 1424.74L633.117 1424.92C632.866 1417.77 633.114 1410.61 633.862 1403.5L633.762 1403.51ZM755.26 1270.65C760.588 1269.62 765.968 1268.87 771.376 1268.41L776.358 1267.98L776.881 1273.25L771.842 1273.75C766.598 1274.17 761.382 1274.87 756.214 1275.85L755.26 1270.65ZM869.701 1153.34L874.983 1152.88L875.058 1153.73C875.67 1160.62 875.655 1167.54 875.015 1174.42L869.735 1173.91C870.335 1167.35 870.341 1160.75 869.752 1154.18L869.701 1153.34ZM634.842 1446.02L640.123 1445.56L642.015 1466.57L636.776 1467.08L634.842 1446.02ZM796.691 1264.04C803.253 1262.06 809.597 1259.42 815.63 1256.18L818.157 1260.85C811.817 1264.26 805.147 1267.03 798.248 1269.1L796.691 1264.04ZM865.956 1193.96L871.037 1195.48C868.981 1202.38 866.253 1209.06 862.893 1215.42L858.191 1212.95C861.389 1206.89 863.99 1200.53 865.956 1193.96V1193.96ZM832.641 1244.71C837.432 1240.72 841.859 1236.3 845.871 1231.53L847.005 1230.17L851.132 1233.52L849.896 1235C845.682 1240.01 841.026 1244.64 835.984 1248.83L832.641 1244.71ZM638.732 1488.09L643.906 1487.57L645.785 1508.57L640.492 1509.03L638.732 1488.09ZM642.477 1530.09L647.758 1529.64L649.636 1550.63L644.355 1551.09L642.477 1530.09ZM646.233 1572.08L651.496 1571.57L653.375 1592.56L648.094 1593.01L646.233 1572.08ZM649.949 1614.04L655.242 1613.57L657.018 1634.55L651.737 1635L649.949 1614.04Z" fill="url(#paint0_linear_262_58)"/>
</g>
<g id="blue-node" filter="url(#filter0_d_262_58)">
<path d="M837.704 1087.11C827.926 1098.77 829.484 1116.18 841.182 1125.99C852.881 1135.8 870.291 1134.3 880.068 1122.64C889.846 1110.98 888.289 1093.57 876.59 1083.76C864.892 1073.95 847.482 1075.45 837.704 1087.11Z" fill="url(#paint1_linear_262_58)"/>
<path d="M837.704 1087.11C827.926 1098.77 829.484 1116.18 841.182 1125.99C852.881 1135.8 870.291 1134.3 880.068 1122.64C889.846 1110.98 888.289 1093.57 876.59 1083.76C864.892 1073.95 847.482 1075.45 837.704 1087.11Z" stroke="white" stroke-width="3" stroke-miterlimit="10"/>
</g>
<g id="blue-node_2" filter="url(#filter1_d_262_58)">
<path d="M624.704 1378.11C614.926 1389.77 616.483 1407.18 628.182 1416.99C639.881 1426.8 657.29 1425.3 667.068 1413.64C676.846 1401.98 675.289 1384.57 663.59 1374.76C651.892 1364.95 634.482 1366.45 624.704 1378.11Z" fill="url(#paint2_linear_262_58)"/>
<path d="M624.704 1378.11C614.926 1389.77 616.483 1407.18 628.182 1416.99C639.881 1426.8 657.29 1425.3 667.068 1413.64C676.846 1401.98 675.289 1384.57 663.59 1374.76C651.892 1364.95 634.482 1366.45 624.704 1378.11Z" stroke="white" stroke-width="3" stroke-miterlimit="10"/>
</g>
<g id="red-node" filter="url(#filter2_d_262_58)">
<path d="M579.459 791.223C580.818 806.404 594.229 817.652 609.415 816.344C624.601 815.037 635.811 801.67 634.453 786.489C633.094 771.307 619.683 760.06 604.497 761.367C589.311 762.674 578.101 776.041 579.459 791.223Z" fill="url(#paint3_linear_262_58)"/>
<path d="M579.459 791.223C580.818 806.404 594.229 817.652 609.415 816.344C624.601 815.037 635.811 801.67 634.453 786.489C633.094 771.307 619.683 760.06 604.497 761.367C589.311 762.674 578.101 776.041 579.459 791.223Z" stroke="white" stroke-width="3" stroke-miterlimit="10"/>
</g>
<g id="green-node" filter="url(#filter3_d_262_58)">
<path d="M883.482 262.686C892.032 275.331 909.197 278.687 921.82 270.184C934.443 261.68 937.746 244.536 929.195 231.892C920.645 219.248 903.48 215.891 890.857 224.395C878.233 232.898 874.931 250.042 883.482 262.686Z" fill="url(#paint4_linear_262_58)"/>
<path d="M883.482 262.686C892.032 275.331 909.197 278.687 921.82 270.184C934.443 261.68 937.746 244.536 929.195 231.892C920.645 219.248 903.48 215.891 890.857 224.395C878.233 232.898 874.931 250.042 883.482 262.686Z" stroke="white" stroke-width="3" stroke-miterlimit="10"/>
</g>
</g>
<defs>
<filter id="filter0_d_262_58" x="825.779" y="1075.78" width="66.2144" height="66.1816" filterUnits="userSpaceOnUse" color-interpolation-filters="sRGB">
<feFlood flood-opacity="0" result="BackgroundImageFix"/>
<feColorMatrix in="SourceAlpha" type="matrix" values="0 0 0 0 0 0 0 0 0 0 0 0 0 0 0 0 0 0 127 0" result="hardAlpha"/>
<feOffset dy="4"/>
<feGaussianBlur stdDeviation="2"/>
<feComposite in2="hardAlpha" operator="out"/>
<feColorMatrix type="matrix" values="0 0 0 0 0 0 0 0 0 0 0 0 0 0 0 0 0 0 0.25 0"/>
<feBlend mode="normal" in2="BackgroundImageFix" result="effect1_dropShadow_262_58"/>
<feBlend mode="normal" in="SourceGraphic" in2="effect1_dropShadow_262_58" result="shape"/>
</filter>
<filter id="filter1_d_262_58" x="612.779" y="1366.78" width="66.2144" height="66.1816" filterUnits="userSpaceOnUse" color-interpolation-filters="sRGB">
<feFlood flood-opacity="0" result="BackgroundImageFix"/>
<feColorMatrix in="SourceAlpha" type="matrix" values="0 0 0 0 0 0 0 0 0 0 0 0 0 0 0 0 0 0 127 0" result="hardAlpha"/>
<feOffset dy="4"/>
<feGaussianBlur stdDeviation="2"/>
<feComposite in2="hardAlpha" operator="out"/>
<feColorMatrix type="matrix" values="0 0 0 0 0 0 0 0 0 0 0 0 0 0 0 0 0 0 0.25 0"/>
<feBlend mode="normal" in2="BackgroundImageFix" result="effect1_dropShadow_262_58"/>
<feBlend mode="normal" in="SourceGraphic" in2="effect1_dropShadow_262_58" result="shape"/>
</filter>
<filter id="filter2_d_262_58" x="573.847" y="759.764" width="66.2173" height="66.1831" filterUnits="userSpaceOnUse" color-interpolation-filters="sRGB">
<feFlood flood-opacity="0" result="BackgroundImageFix"/>
<feColorMatrix in="SourceAlpha" type="matrix" values="0 0 0 0 0 0 0 0 0 0 0 0 0 0 0 0 0 0 127 0" result="hardAlpha"/>
<feOffset dy="4"/>
<feGaussianBlur stdDeviation="2"/>
<feComposite in2="hardAlpha" operator="out"/>
<feColorMatrix type="matrix" values="0 0 0 0 0 0 0 0 0 0 0 0 0 0 0 0 0 0 0.25 0"/>
<feBlend mode="normal" in2="BackgroundImageFix" result="effect1_dropShadow_262_58"/>
<feBlend mode="normal" in="SourceGraphic" in2="effect1_dropShadow_262_58" result="shape"/>
</filter>
<filter id="filter3_d_262_58" x="873.228" y="218.197" width="66.2209" height="66.1843" filterUnits="userSpaceOnUse" color-interpolation-filters="sRGB">
<feFlood flood-opacity="0" result="BackgroundImageFix"/>
<feColorMatrix in="SourceAlpha" type="matrix" values="0 0 0 0 0 0 0 0 0 0 0 0 0 0 0 0 0 0 127 0" result="hardAlpha"/>
<feOffset dy="4"/>
<feGaussianBlur stdDeviation="2"/>
<feComposite in2="hardAlpha" operator="out"/>
<feColorMatrix type="matrix" values="0 0 0 0 0 0 0 0 0 0 0 0 0 0 0 0 0 0 0.25 0"/>
<feBlend mode="normal" in2="BackgroundImageFix" result="effect1_dropShadow_262_58"/>
<feBlend mode="normal" in="SourceGraphic" in2="effect1_dropShadow_262_58" result="shape"/>
</filter>
<linearGradient id="paint0_linear_262_58" x1="1111.03" y1="1093.16" x2="456.623" y2="544.369" gradientUnits="userSpaceOnUse">
<stop stop-opacity="0"/>
<stop offset="0.125"/>
<stop offset="0.557292"/>
<stop offset="0.885417"/>
<stop offset="1" stop-opacity="0"/>
</linearGradient>
<linearGradient id="paint1_linear_262_58" x1="880.068" y1="1122.64" x2="837.704" y2="1087.11" gradientUnits="userSpaceOnUse">
<stop stop-color="#1783C1"/>
<stop offset="1" stop-color="#1490D8"/>
</linearGradient>
<linearGradient id="paint2_linear_262_58" x1="667.068" y1="1413.64" x2="624.704" y2="1378.11" gradientUnits="userSpaceOnUse">
<stop stop-color="#F8C300"/>
<stop offset="1" stop-color="#F0CA3F"/>
</linearGradient>
<linearGradient id="paint3_linear_262_58" x1="634.453" y1="786.489" x2="579.476" y2="791.407" gradientUnits="userSpaceOnUse">
<stop stop-color="#FF564F"/>
<stop offset="1" stop-color="#EF362E"/>
</linearGradient>
<linearGradient id="paint4_linear_262_58" x1="929.195" y1="231.892" x2="883.536" y2="262.768" gradientUnits="userSpaceOnUse">
<stop stop-color="#1DA838"/>
<stop offset="1" stop-color="#27BF45"/>
</linearGradient>
</defs>
</svg>
