<svg width="1525" height="936" viewBox="0 0 1525 936" fill="none" xmlns="http://www.w3.org/2000/svg">
<g id="timeline">
<g id="path">
<g id="path_2" style="mix-blend-mode:soft-light">
<path d="M55.4259 895.018L51.6841 891.264L66.528 876.335L70.2698 880.089L55.4259 895.018ZM85.1843 865.16L81.4424 861.406L96.3392 846.459L100.063 850.284L85.1843 865.16ZM114.96 835.284L111.218 831.53L126.098 816.636L129.839 820.39L114.96 835.284ZM455.487 817.309C449.064 817.311 442.653 816.777 436.319 815.715L437.184 810.402C443.947 811.541 450.801 812.045 457.658 811.907L457.764 817.22L455.487 817.309ZM479.121 814.865L478.062 809.658C484.771 808.272 491.337 806.256 497.671 803.637L499.683 808.543C493.044 811.298 486.159 813.415 479.121 814.865ZM415.58 810.207C408.836 807.721 402.337 804.615 396.164 800.928L398.865 796.359C404.756 799.879 410.96 802.844 417.398 805.213L415.58 810.207ZM144.719 805.426L140.977 801.671L155.856 786.742L159.598 790.497L144.719 805.426ZM518.728 798.537L515.833 794.092C521.583 790.334 526.972 786.047 531.93 781.288L535.584 785.131C530.389 790.111 524.746 794.599 518.728 798.537ZM378.726 788.301C376.52 786.353 374.349 784.281 372.301 782.156C369.459 779.233 366.494 776.435 363.476 773.797L367.006 769.777C370.148 772.521 373.237 775.426 376.149 778.454C378.126 780.473 380.191 782.457 382.291 784.316L378.726 788.301ZM174.512 775.904L170.982 771.972C176.273 767.147 181.907 762.714 187.838 758.708L190.786 763.118C185.064 766.94 179.626 771.171 174.512 775.78V775.904ZM549.722 768.82L545.433 765.721C549.44 760.155 552.92 754.226 555.829 748.011L560.629 750.278C557.578 756.787 553.926 762.994 549.722 768.82ZM346.955 761.241C341.152 757.512 335.089 754.21 328.811 751.359L330.982 746.524C337.499 749.472 343.794 752.893 349.815 756.76L346.955 761.241ZM208.701 752.687L206.406 747.888C212.855 744.794 219.521 742.177 226.351 740.06L227.922 745.143C221.338 747.198 214.913 749.737 208.701 752.74V752.687ZM309.431 744.257C302.804 742.362 296.05 740.947 289.221 740.024L289.91 734.712C296.995 735.667 304.003 737.135 310.878 739.104L309.431 744.257ZM248.026 740.485L247.214 735.172C254.275 734.068 261.407 733.476 268.553 733.401V738.714C261.677 738.81 254.817 739.402 248.026 740.485ZM567.901 729.859L562.765 728.531C564.472 721.905 565.565 715.135 566.03 708.307L571.326 708.661C570.84 715.853 569.694 722.985 567.901 729.965V729.859ZM565.501 687.711C564.703 680.879 563.267 674.137 561.212 667.575L566.278 665.981C568.416 672.864 569.916 679.931 570.761 687.091L565.501 687.711ZM553.305 648.572C550.07 642.512 546.289 636.762 542.008 631.394L546.139 628.065C550.628 633.688 554.587 639.717 557.964 646.075L553.305 648.572ZM905.463 638.106C901.933 638.106 898.244 637.964 894.643 637.681L895.049 632.368C901.917 632.891 908.814 632.891 915.682 632.368L916.07 637.681C912.558 637.964 908.993 638.106 905.463 638.106ZM937.233 634.458L936.051 629.287C942.751 627.729 949.324 625.663 955.713 623.106L957.69 628.029C951.051 630.694 944.218 632.844 937.251 634.458H937.233ZM873.445 634.458C866.481 632.819 859.648 630.659 853.006 627.994L854.983 623.071C861.374 625.631 867.946 627.709 874.645 629.287L873.445 634.458ZM976.911 618.519L974.21 613.95C980.132 610.429 985.778 606.463 991.102 602.085L994.473 606.193C988.945 610.748 983.08 614.874 976.929 618.537L976.911 618.519ZM833.785 618.413C827.635 614.738 821.775 610.593 816.258 606.016L819.612 601.908C824.927 606.293 830.568 610.265 836.485 613.791L833.785 618.413ZM527.906 616.005L513.327 600.774L517.157 597.091L531.718 612.339L527.906 616.005ZM1010.08 591.565L1006.23 587.9C1010.98 582.911 1015.37 577.584 1019.36 571.961L1023.68 575.025C1019.55 580.862 1015.01 586.395 1010.09 591.583L1010.08 591.565ZM800.779 591.371L786.094 576.247L789.889 572.528L804.574 587.669L800.779 591.371ZM498.783 585.544L492.782 579.328C489.803 576.34 486.997 573.183 484.38 569.871L488.528 566.56C491.03 569.728 493.711 572.75 496.559 575.609L502.595 581.931L498.783 585.544ZM771.409 561.105L756.653 545.981L760.448 542.28L775.133 557.404L771.409 561.105ZM1034.75 556.571L1030.02 554.181C1033.12 548.01 1035.77 541.617 1037.93 535.054L1042.96 536.737C1040.71 543.542 1037.97 550.171 1034.75 556.571ZM472.749 551.63C469.492 545.199 466.879 538.46 464.947 531.512L470.048 530.096C471.886 536.712 474.369 543.13 477.461 549.257L472.749 551.63ZM742.004 530.839L727.301 515.715L731.096 512.014L745.798 527.138L742.004 530.839ZM1048.16 515.875L1042.96 514.972C1044.13 508.147 1044.81 501.246 1044.97 494.322L1050.27 494.446C1050.09 501.631 1049.39 508.793 1048.16 515.875ZM461.258 510.261C461.064 507.622 460.976 504.948 460.976 502.238C460.979 497.704 461.256 493.174 461.806 488.673L467.101 489.328C466.571 493.611 466.306 497.923 466.306 502.238C466.306 504.789 466.395 507.357 466.571 509.871L461.258 510.261ZM712.616 500.662L697.931 485.468L701.726 481.766L716.411 496.89L712.616 500.662ZM1043.96 473.762C1043.11 466.9 1041.76 460.111 1039.92 453.449L1045.02 452.032C1046.94 458.942 1048.34 465.987 1049.21 473.106L1043.96 473.762ZM683.228 470.344L668.543 455.22L672.338 451.501L687.023 466.642L683.228 470.344ZM471.602 469.21L466.571 467.528C468.847 460.677 471.803 454.074 475.396 447.817L479.985 450.456C476.568 456.408 473.759 462.691 471.602 469.21ZM653.841 440.078L643.797 429.736C642.297 428.177 640.726 426.654 639.138 425.22L642.668 421.288C644.345 422.793 645.986 424.387 647.575 426.034L657.618 436.377L653.841 440.078ZM1032.93 433.915C1030.13 427.608 1026.87 421.517 1023.17 415.692L1027.58 412.858C1031.44 418.894 1034.85 425.21 1037.77 431.754L1032.93 433.915ZM491.899 433.756L487.91 430.214C489.481 428.443 491.123 426.672 492.8 424.989C496.205 421.579 499.825 418.39 503.637 415.444L506.867 419.659C503.23 422.457 499.781 425.491 496.541 428.744C494.97 430.391 493.4 432.056 491.899 433.756ZM622.652 412.982C616.774 409.465 610.56 406.546 604.102 404.269L605.867 399.257C612.655 401.653 619.188 404.72 625.371 408.413L622.652 412.982ZM524.288 408.874L521.905 404.11C528.369 400.938 535.133 398.422 542.097 396.601L543.438 401.737C536.843 403.481 530.435 405.872 524.305 408.874H524.288ZM584.21 399.399C577.43 398.444 570.572 398.159 563.736 398.549L563.418 393.236C570.602 392.828 577.809 393.13 584.934 394.139L584.21 399.399ZM1010.82 399.151C1008.72 396.743 1006.49 394.37 1004.23 392.067L996.309 384.134L1000.02 380.344L1007.98 388.313C1010.32 390.668 1012.62 393.13 1014.79 395.627L1010.82 399.151ZM981.376 369.222L966.48 354.293L970.221 350.539L985.118 365.45L981.376 369.222ZM951.601 339.116C946.794 333.749 942.52 327.924 938.839 321.725L943.375 318.998C946.878 324.904 950.951 330.451 955.536 335.556L951.601 339.116ZM929.626 302.209C927.236 295.399 925.516 288.37 924.49 281.223L929.785 280.462C930.764 287.264 932.402 293.955 934.674 300.438L929.626 302.209ZM928.779 259.919L923.484 259.653C923.841 252.447 924.905 245.293 926.661 238.295L931.797 239.588C930.133 246.251 929.116 253.059 928.761 259.919H928.779ZM1225.92 233.071L1225.76 227.758C1232.66 227.559 1239.53 226.878 1246.32 225.722L1247.21 231.035C1240.16 232.201 1233.04 232.881 1225.9 233.071H1225.92ZM1204.51 232.221C1197.41 231.415 1190.38 230.107 1183.47 228.307L1184.8 223.171C1191.47 224.894 1198.26 226.142 1205.11 226.908L1204.51 232.221ZM1268.05 225.952L1266.45 220.887C1273.01 218.776 1279.41 216.201 1285.61 213.183L1287.93 217.965C1281.47 221.074 1274.81 223.72 1267.98 225.881L1268.05 225.952ZM1163.26 221.471C1156.67 218.708 1150.28 215.477 1144.15 211.802L1146.85 207.233C1152.77 210.778 1158.93 213.897 1165.29 216.566L1163.26 221.471ZM938.804 220.303L933.95 218.053C937.028 211.524 940.747 205.318 945.052 199.529L949.288 202.717C945.204 208.192 941.668 214.059 938.733 220.232L938.804 220.303ZM1306.46 207.233L1303.49 202.823C1309.21 198.951 1314.64 194.678 1319.75 190.037L1323.28 193.968C1317.96 198.756 1312.32 203.165 1306.39 207.162L1306.46 207.233ZM1126.59 199.512C1122.37 196.088 1118.35 192.447 1114.51 188.602L1110.98 185.061L1114.69 181.271L1118.31 184.813C1122 188.559 1125.89 192.105 1129.96 195.438L1126.59 199.512ZM963.161 187.203L959.419 183.449L960.02 182.847C964.904 177.953 970.221 173.513 975.905 169.582L978.905 173.957C973.494 177.712 968.431 181.95 963.779 186.619L963.161 187.203ZM1338.34 179.092L1334.59 175.338L1349.47 160.391L1353.23 164.075L1338.34 179.092ZM1094.9 172.009C1089.17 168.256 1083.07 165.088 1076.71 162.552L1078.66 157.611C1085.35 160.277 1091.76 163.611 1097.78 167.564L1094.9 172.009ZM996.697 163.968L994.596 159.098C1001.2 156.241 1008.07 154.041 1015.11 152.528L1016.24 157.717C1009.54 159.161 1002.99 161.255 996.697 163.968ZM1056.99 156.885C1050.85 155.781 1044.62 155.224 1038.39 155.22H1036.62L1036.53 149.907H1038.46C1045.01 149.912 1051.55 150.504 1058 151.678L1056.99 156.885ZM1368.08 149.075L1364.35 145.444L1379.23 130.515L1382.99 134.27L1368.08 149.075ZM1397.85 119.216L1394.11 115.462L1408.99 100.533L1412.73 104.287L1397.85 119.216ZM1427.61 89.3582L1423.83 85.6569L1438.71 70.7278L1442.45 74.4822L1427.61 89.3582ZM1457.37 59.553L1453.61 55.7986L1468.54 40.958L1472.28 44.7124L1457.37 59.553Z" fill="url(#paint0_linear_10_134)"/>
</g>
<path id="yellow-node" d="M1282.55 234.289C1297.77 234.289 1310.1 221.912 1310.1 206.645C1310.1 191.377 1297.77 179 1282.55 179C1267.34 179 1255 191.377 1255 206.645C1255 221.912 1267.34 234.289 1282.55 234.289Z" fill="url(#paint1_linear_10_134)"/>
<path id="blue-node" d="M1002.55 610.289C1017.77 610.289 1030.1 597.912 1030.1 582.645C1030.1 567.377 1017.77 555 1002.55 555C987.335 555 975 567.377 975 582.645C975 597.912 987.335 610.289 1002.55 610.289Z" fill="url(#paint2_linear_10_134)" stroke="white" stroke-width="3" stroke-miterlimit="10"/>
<path id="red-node" d="M561.447 413.643C572.206 402.847 572.206 385.344 561.447 374.548C550.687 363.752 533.242 363.752 522.482 374.548C511.722 385.344 511.722 402.847 522.482 413.643C533.242 424.439 550.687 424.439 561.447 413.643Z" fill="url(#paint3_linear_10_134)" stroke="white" stroke-width="3" stroke-miterlimit="10"/>
<path id="green-node" d="M288.025 743.983C292.219 729.307 283.762 713.998 269.135 709.79C254.508 705.582 239.25 714.067 235.056 728.744C230.861 743.42 239.319 758.729 253.946 762.937C268.573 767.146 283.831 758.66 288.025 743.983Z" fill="url(#paint4_linear_10_134)" stroke="white" stroke-width="3" stroke-miterlimit="10"/>
</g>
</g>
<defs>
<linearGradient id="paint0_linear_10_134" x1="761.984" y1="40.958" x2="761.984" y2="895.018" gradientUnits="userSpaceOnUse">
<stop stop-opacity="0"/>
<stop offset="0.125"/>
<stop offset="0.557292"/>
<stop offset="0.885417"/>
<stop offset="1" stop-opacity="0"/>
</linearGradient>
<linearGradient id="paint1_linear_10_134" x1="1282.55" y1="179" x2="1282.55" y2="234.289" gradientUnits="userSpaceOnUse">
<stop stop-color="#F8C300"/>
<stop offset="1" stop-color="#FFBD3E"/>
</linearGradient>
<linearGradient id="paint2_linear_10_134" x1="1002.55" y1="555" x2="1002.55" y2="610.289" gradientUnits="userSpaceOnUse">
<stop stop-color="#1783C1"/>
<stop offset="1" stop-color="#1490D8"/>
</linearGradient>
<linearGradient id="paint3_linear_10_134" x1="522.482" y1="374.548" x2="561.577" y2="413.512" gradientUnits="userSpaceOnUse">
<stop stop-color="#FF564F"/>
<stop offset="1" stop-color="#EF362E"/>
</linearGradient>
<linearGradient id="paint4_linear_10_134" x1="235.056" y1="728.744" x2="288.052" y2="743.889" gradientUnits="userSpaceOnUse">
<stop stop-color="#1DA838"/>
<stop offset="1" stop-color="#27BF45"/>
</linearGradient>
</defs>
</svg>
